<?xml version="1.0" encoding="UTF-8" standalone="no"?>
<!DOCTYPE svg PUBLIC "-//W3C//DTD SVG 1.1//EN" "http://www.w3.org/Graphics/SVG/1.1/DTD/svg11.dtd">
<svg width="100%" height="100%" viewBox="0 0 512 256" version="1.1" xmlns="http://www.w3.org/2000/svg" xmlns:xlink="http://www.w3.org/1999/xlink" xml:space="preserve" xmlns:serif="http://www.serif.com/" style="fill-rule:evenodd;clip-rule:evenodd;stroke-linejoin:round;stroke-miterlimit:2;">
    <g transform="matrix(0.457349,0,0,0.457349,-100.524,-204.964)">
        <g transform="matrix(0.275166,0,0,0.275166,283.102,679.537)">
            <path d="M261.103,465.348L340.511,465.348L340.511,777.053L528.721,777.053L528.721,845.376L261.103,845.376L261.103,465.348Z" style="fill-rule:nonzero;"/>
            <path d="M751.735,855.946C697.421,855.946 655.912,841.165 627.208,811.601C588.707,775.334 569.456,723.083 569.456,654.846C569.456,585.235 588.707,532.983 627.208,498.091C655.912,468.528 697.421,453.746 751.735,453.746C806.05,453.746 847.559,468.528 876.263,498.091C914.592,532.983 933.757,585.235 933.757,654.846C933.757,723.083 914.592,775.334 876.263,811.601C847.559,841.165 806.05,855.946 751.735,855.946ZM826.761,753.849C845.152,730.646 854.348,697.645 854.348,654.846C854.348,612.22 845.109,579.262 826.632,555.972C808.155,532.682 783.19,521.037 751.735,521.037C720.281,521.037 695.187,532.639 676.452,555.843C657.717,579.047 648.349,612.048 648.349,654.846C648.349,697.645 657.717,730.646 676.452,753.849C695.187,777.053 720.281,788.655 751.735,788.655C783.19,788.655 808.198,777.053 826.761,753.849Z" style="fill-rule:nonzero;"/>
            <path d="M1301.67,845.376L1222.26,845.376L1067.05,575.438L1067.05,845.376L993.056,845.376L993.056,465.348L1076.33,465.348L1227.67,730.646L1227.67,465.348L1301.67,465.348L1301.67,845.376Z" style="fill-rule:nonzero;"/>
            <path d="M1539.38,845.376L1375.66,845.376L1375.66,465.348L1539.38,465.348C1562.92,465.692 1582.52,468.442 1598.16,473.598C1624.8,482.364 1646.37,498.435 1662.87,521.811C1676.11,540.718 1685.13,561.171 1689.94,583.172C1694.76,605.173 1697.16,626.142 1697.16,646.08C1697.16,696.613 1687.02,739.411 1666.74,774.475C1639.24,821.742 1596.79,845.376 1539.38,845.376ZM1598.42,562.289C1586.22,541.663 1562.07,531.35 1525.97,531.35L1452.75,531.35L1452.75,779.374L1525.97,779.374C1563.44,779.374 1589.57,760.897 1604.35,723.942C1612.43,703.66 1616.47,679.511 1616.47,651.495C1616.47,612.822 1610.45,583.086 1598.42,562.289Z" style="fill-rule:nonzero;"/>
            <path d="M1925.08,855.946C1870.76,855.946 1829.25,841.165 1800.55,811.601C1762.05,775.334 1742.8,723.083 1742.8,654.846C1742.8,585.235 1762.05,532.983 1800.55,498.091C1829.25,468.528 1870.76,453.746 1925.08,453.746C1979.39,453.746 2020.9,468.528 2049.61,498.091C2087.93,532.983 2107.1,585.235 2107.1,654.846C2107.1,723.083 2087.93,775.334 2049.61,811.601C2020.9,841.165 1979.39,855.946 1925.08,855.946ZM2000.1,753.849C2018.49,730.646 2027.69,697.645 2027.69,654.846C2027.69,612.22 2018.45,579.262 1999.97,555.972C1981.5,532.682 1956.53,521.037 1925.08,521.037C1893.62,521.037 1868.53,532.639 1849.79,555.843C1831.06,579.047 1821.69,612.048 1821.69,654.846C1821.69,697.645 1831.06,730.646 1849.79,753.849C1868.53,777.053 1893.62,788.655 1925.08,788.655C1956.53,788.655 1981.54,777.053 2000.1,753.849Z" style="fill-rule:nonzero;"/>
            <path d="M2475.01,845.376L2395.6,845.376L2240.39,575.438L2240.39,845.376L2166.4,845.376L2166.4,465.348L2249.67,465.348L2401.01,730.646L2401.01,465.348L2475.01,465.348L2475.01,845.376Z" style="fill-rule:nonzero;"/>
            <path d="M2681.01,465.348L2751.39,465.348L2738.5,622.361L2693.9,622.361L2681.01,465.348Z" style="fill-rule:nonzero;"/>
            <path d="M2964.61,547.593C2955.84,537.108 2943.3,531.866 2926.97,531.866C2904.62,531.866 2889.41,540.202 2881.33,556.874C2876.69,566.5 2873.94,581.797 2873.08,602.767L2801.67,602.767C2802.87,570.969 2808.63,545.273 2818.94,525.678C2838.54,488.38 2873.34,469.731 2923.36,469.731C2962.89,469.731 2994.35,480.688 3017.72,502.603C3041.1,524.518 3052.78,553.523 3052.78,589.618C3052.78,617.29 3044.53,641.869 3028.03,663.354C3017.2,677.62 2999.42,693.519 2974.66,711.051L2945.27,731.935C2926.88,744.998 2914.29,754.451 2907.5,760.295C2900.71,766.139 2895,772.928 2890.36,780.663L3053.56,780.663L3053.56,845.376L2797.54,845.376C2798.23,818.562 2803.99,794.069 2814.82,771.897C2825.3,746.974 2850.05,720.591 2889.07,692.746C2922.93,668.511 2944.84,651.151 2954.81,640.666C2970.11,624.338 2977.76,606.462 2977.76,587.039C2977.76,571.226 2973.38,558.078 2964.61,547.593Z" style="fill-rule:nonzero;"/>
            <path d="M3215.47,659.745C3206.53,659.745 3198.8,660.862 3192.27,663.097C3180.75,667.222 3172.07,674.87 3166.23,686.043L3100.22,682.949L3126.52,476.434L3332.52,476.434L3332.52,538.827L3179.63,538.827L3166.23,620.556C3177.57,613.165 3186.42,608.267 3192.78,605.86C3203.44,601.907 3216.41,599.93 3231.71,599.93C3262.65,599.93 3289.64,610.329 3312.67,631.127C3335.7,651.924 3347.22,682.175 3347.22,721.88C3347.22,756.428 3336.13,787.28 3313.96,814.437C3291.78,841.594 3258.61,855.173 3214.44,855.173C3178.86,855.173 3149.64,845.634 3126.78,826.555C3103.92,807.476 3091.2,780.405 3088.62,745.341L3161.84,745.341C3164.76,761.326 3170.35,773.659 3178.6,782.339C3186.85,791.019 3198.88,795.359 3214.7,795.359C3232.91,795.359 3246.8,788.956 3256.33,776.151C3265.87,763.346 3270.64,747.232 3270.64,727.81C3270.64,708.731 3266.17,692.617 3257.24,679.468C3248.3,666.319 3234.38,659.745 3215.47,659.745Z" style="fill-rule:nonzero;"/>
        </g>
        <g transform="matrix(0.415702,0,0,0.415702,111.257,394.182)">
            <path d="M424.819,845.376L261.103,845.376L261.103,465.348L424.819,465.348C448.366,465.692 467.961,468.442 483.602,473.598C510.243,482.364 531.814,498.435 548.315,521.811C561.55,540.718 570.573,561.171 575.386,583.172C580.199,605.173 582.605,626.142 582.605,646.08C582.605,696.613 572.464,739.411 552.182,774.475C524.681,821.742 482.227,845.376 424.819,845.376ZM483.86,562.289C471.656,541.663 447.507,531.35 411.412,531.35L338.191,531.35L338.191,779.374L411.412,779.374C448.882,779.374 475.008,760.897 489.79,723.942C497.868,703.66 501.907,679.511 501.907,651.495C501.907,612.822 495.891,583.086 483.86,562.289Z" style="fill-rule:nonzero;"/>
            <path d="M810.519,855.946C756.204,855.946 714.695,841.165 685.991,811.601C647.49,775.334 628.239,723.083 628.239,654.846C628.239,585.235 647.49,532.983 685.991,498.091C714.695,468.528 756.204,453.746 810.519,453.746C864.833,453.746 906.342,468.528 935.046,498.091C973.375,532.983 992.54,585.235 992.54,654.846C992.54,723.083 973.375,775.334 935.046,811.601C906.342,841.165 864.833,855.946 810.519,855.946ZM885.544,753.849C903.936,730.646 913.131,697.645 913.131,654.846C913.131,612.22 903.893,579.262 885.415,555.972C866.938,532.682 841.973,521.037 810.519,521.037C779.064,521.037 753.97,532.639 735.235,555.843C716.5,579.047 707.132,612.048 707.132,654.846C707.132,697.645 716.5,730.646 735.235,753.849C753.97,777.053 779.064,788.655 810.519,788.655C841.973,788.655 866.981,777.053 885.544,753.849Z" style="fill-rule:nonzero;"/>
            <rect x="1193.64" y="465.348" width="78.893" height="380.028" style="fill-rule:nonzero;"/>
            <path d="M1622.65,465.348L1622.65,532.639L1508.95,532.639L1508.95,845.376L1429.03,845.376L1429.03,532.639L1314.82,532.639L1314.82,465.348L1622.65,465.348Z" style="fill-rule:nonzero;"/>
            <rect x="1809.57" y="465.348" width="78.893" height="380.028" style="fill-rule:nonzero;"/>
            <path d="M2269.78,845.376L2190.38,845.376L2035.17,575.438L2035.17,845.376L1961.17,845.376L1961.17,465.348L2044.45,465.348L2195.79,730.646L2195.79,465.348L2269.78,465.348L2269.78,845.376Z" style="fill-rule:nonzero;"/>
        </g>
        <g transform="matrix(0.13118,0,0,0.13118,1174.6,666.402)">
            <g transform="matrix(1,0,0,1,-1255.5,-956)">
                <g id="D-Rocket" serif:id="D Rocket" transform="matrix(2.33621,0,0,2.33621,-550.012,-576.132)">
                    <g>
                        <g transform="matrix(4.16667,0,0,4.16667,912.971,642.332)">
                            <path d="M0,-33.538L10.499,-39.321C21.616,-45.444 33.343,-41.898 39.368,-30.958L39.466,-30.781C45.491,-19.842 42.122,-8.212 31.006,-2.089L20.507,3.694L0,-33.538ZM75.191,-50.688L75.02,-50.998C58.252,-81.442 21.91,-91.839 -12.089,-73.113L-54.278,-49.876L5.304,58.301L47.493,35.064C81.492,16.338 91.959,-20.244 75.191,-50.688" style="fill:rgb(170,57,88);fill-rule:nonzero;"/>
                        </g>
                        <g transform="matrix(4.16667,0,0,4.16667,1042.16,542.047)">
                            <path d="M0,21.98L-10.499,27.763L-31.006,-9.469L-20.507,-15.252C-9.39,-21.375 2.337,-17.83 8.363,-6.889L8.46,-6.713C14.485,4.227 11.117,15.857 0,21.98M35.443,21.695L34.99,21.944C35.152,21.854 35.27,21.722 35.397,21.599C34.85,20.464 34.291,19.306 33.728,18.139C33.486,18.173 33.244,18.238 33.017,18.363L33.664,18.006C29.446,9.265 25.102,0.279 24.974,0.086C24.722,-0.292 -3.023,-38.251 -3.401,-38.251C-3.666,-38.251 -20.71,-47.721 -32.091,-54.06C-35.768,-52.709 -39.445,-51.055 -43.095,-49.045L-58.173,-40.74C-57.846,-39.814 -58.188,-38.767 -59.076,-38.278L-77.863,-27.931C-78.852,-27.386 -79.212,-26.143 -78.667,-25.154C-78.122,-24.165 -76.879,-23.805 -75.89,-24.349L-62.146,-31.92C-61.157,-32.464 -59.914,-32.104 -59.369,-31.115C-58.824,-30.126 -59.184,-28.883 -60.173,-28.338L-62.488,-27.063C-63.477,-26.518 -63.837,-25.275 -63.292,-24.286C-62.748,-23.297 -61.504,-22.937 -60.515,-23.482L-58.806,-24.423C-57.817,-24.968 -56.574,-24.607 -56.029,-23.618C-55.485,-22.63 -55.845,-21.386 -56.833,-20.842L-72.847,-12.022C-73.836,-11.477 -74.196,-10.233 -73.651,-9.245C-73.107,-8.256 -71.863,-7.895 -70.874,-8.44L-56.384,-16.421C-56.464,-16.377 -56.538,-16.327 -56.609,-16.274C-55.668,-16.642 -54.578,-16.266 -54.077,-15.357C-53.577,-14.449 -53.842,-13.326 -54.655,-12.727C-54.573,-12.76 -54.491,-12.796 -54.411,-12.84L-60.495,-9.489C-61.484,-8.944 -61.844,-7.701 -61.299,-6.712C-60.755,-5.723 -59.511,-5.363 -58.522,-5.907L-54.789,-7.963C-53.8,-8.508 -52.557,-8.148 -52.013,-7.159C-51.468,-6.17 -51.828,-4.926 -52.817,-4.382L-59.154,-0.891C-60.143,-0.347 -60.503,0.897 -59.958,1.886C-59.413,2.875 -58.17,3.235 -57.181,2.69L-43.741,-4.712C-42.752,-5.257 -41.509,-4.897 -40.964,-3.908C-40.42,-2.919 -40.78,-1.676 -41.768,-1.131L-64.727,11.514L-62.755,15.096L-52.073,9.213C-51.084,8.668 -49.841,9.028 -49.296,10.017C-48.752,11.006 -49.112,12.25 -50.1,12.794L-57.091,16.644C-58.08,17.189 -58.44,18.432 -57.895,19.421C-57.35,20.41 -56.107,20.77 -55.118,20.226L-42.94,13.518C-41.951,12.974 -40.708,13.334 -40.163,14.323C-39.619,15.312 -39.979,16.555 -40.968,17.1L-56.433,25.618C-56.576,25.697 -56.676,25.817 -56.792,25.922L-54.909,29.341C-54.758,29.299 -54.604,29.279 -54.461,29.2L-31.627,16.623C-30.638,16.079 -29.395,16.439 -28.85,17.428C-28.306,18.417 -28.666,19.66 -29.655,20.205L-47.88,30.243C-48.869,30.788 -49.229,32.031 -48.684,33.02C-48.139,34.009 -46.896,34.369 -45.907,33.825L-22.786,21.09C-21.797,20.545 -20.554,20.906 -20.009,21.894C-19.465,22.883 -19.825,24.126 -20.813,24.671L-30.015,29.74C-31.004,30.284 -31.364,31.528 -30.82,32.517C-30.275,33.506 -29.032,33.866 -28.043,33.321L-23.088,30.592C-22.099,30.048 -20.856,30.408 -20.311,31.397C-19.766,32.386 -20.126,33.629 -21.115,34.174L-40.63,44.922C-41.619,45.467 -41.979,46.71 -41.434,47.699C-40.889,48.688 -39.646,49.048 -38.657,48.503L-24.288,40.589C-23.298,40.044 -22.056,40.405 -21.511,41.394C-20.966,42.382 -21.326,43.626 -22.315,44.171L-40.095,53.964C-40.457,54.163 -40.7,54.471 -40.88,54.811L-39.258,57.756C-38.875,57.785 -38.484,57.744 -38.123,57.545L-31.264,53.767C-30.275,53.223 -29.032,53.583 -28.487,54.572C-27.942,55.561 -28.302,56.804 -29.291,57.349L-34.998,60.492C-35.987,61.037 -36.347,62.28 -35.803,63.269C-35.258,64.258 -34.015,64.619 -33.026,64.074L-14.803,54.037C-13.814,53.492 -12.57,53.853 -12.026,54.841C-11.481,55.83 -11.841,57.074 -12.83,57.618L-19.97,61.551C-20.959,62.096 -21.319,63.339 -20.775,64.328C-20.23,65.317 -18.986,65.677 -17.998,65.133L-10.186,60.83C-9.197,60.286 -7.954,60.646 -7.41,61.635C-6.865,62.624 -7.225,63.867 -8.214,64.412L-21.835,71.914C-22.824,72.459 -23.184,73.702 -22.639,74.691C-22.095,75.68 -20.851,76.04 -19.862,75.496L-1.099,65.161C-0.11,64.617 1.133,64.977 1.678,65.966C1.89,66.351 1.928,66.771 1.882,67.177L16.487,59.133C27.554,53.037 36.11,45.042 42.063,35.99C41.792,35.125 41.62,34.514 41.62,34.514C41.62,34.514 38.777,28.61 35.443,21.695" style="fill:rgb(216,50,81);fill-rule:nonzero;"/>
                        </g>
                        <g transform="matrix(4.16667,0,0,4.16667,980.899,759.95)">
                            <path d="M0,-110.347L-12.537,-103.442L0,-110.347ZM58.888,-78.916L58.717,-79.226C57.652,-81.161 56.506,-83.012 55.288,-84.783L49.943,-81.839C50.932,-82.384 51.292,-83.627 50.747,-84.616C50.203,-85.605 48.959,-85.965 47.971,-85.42L52.828,-88.096C51.961,-89.195 51.065,-90.258 50.138,-91.282L48.024,-90.118C48.915,-90.609 49.256,-91.66 48.924,-92.588C48.528,-93.001 48.129,-93.412 47.723,-93.812C47.189,-94.004 46.587,-93.994 46.051,-93.699L47.198,-94.331C31.046,-109.858 7.56,-115.017 -16.068,-106.837C-16.216,-106.342 -16.548,-105.901 -17.037,-105.631L-30.955,-97.966C-31.943,-97.421 -32.304,-96.178 -31.759,-95.189C-31.214,-94.2 -29.971,-93.84 -28.982,-94.384L-16.443,-101.29C-15.454,-101.835 -14.211,-101.475 -13.666,-100.486C-13.122,-99.497 -13.482,-98.254 -14.471,-97.709L-15.472,-97.157C-16.461,-96.613 -16.821,-95.369 -16.276,-94.38C-15.732,-93.391 -14.488,-93.031 -13.499,-93.576L-5.735,-97.852C-4.746,-98.397 -3.503,-98.037 -2.958,-97.048C-2.414,-96.059 -2.774,-94.815 -3.763,-94.271L-16.085,-87.483C-17.075,-86.939 -17.434,-85.695 -16.89,-84.706C-16.345,-83.718 -15.102,-83.357 -14.113,-83.902L-9.156,-86.632C-9.235,-86.588 -9.31,-86.538 -9.381,-86.486C-8.44,-86.853 -7.35,-86.477 -6.849,-85.569C-6.349,-84.66 -6.614,-83.537 -7.428,-82.939C-7.345,-82.971 -7.263,-83.007 -7.182,-83.051L-14.963,-78.766C-15.952,-78.221 -16.312,-76.978 -15.767,-75.989C-15.222,-75 -13.979,-74.64 -12.99,-75.184L3.551,-84.295C4.54,-84.84 5.783,-84.479 6.328,-83.491C6.873,-82.502 6.513,-81.258 5.524,-80.714L-0.813,-77.223C-1.802,-76.679 -2.162,-75.435 -1.617,-74.446C-1.073,-73.457 0.171,-73.097 1.159,-73.642L3.34,-74.843C4.329,-75.388 5.573,-75.027 6.117,-74.038C6.662,-73.05 6.302,-71.806 5.313,-71.262L-5.983,-65.04C-6.972,-64.495 -7.332,-63.252 -6.787,-62.263C-6.243,-61.274 -5,-60.913 -4.01,-61.458L11.442,-69.969C12.431,-70.514 13.674,-70.153 14.219,-69.164C14.763,-68.176 14.403,-66.932 13.414,-66.387L-4.064,-56.761C-5.053,-56.216 -5.413,-54.973 -4.868,-53.984C-4.323,-52.995 -3.08,-52.635 -2.091,-53.179L19.294,-64.958C20.283,-65.502 21.526,-65.142 22.071,-64.153C22.615,-63.164 22.255,-61.921 21.267,-61.376L9.569,-54.933C8.58,-54.389 8.22,-53.145 8.764,-52.156C9.309,-51.167 10.552,-50.807 11.541,-51.352L23.239,-57.795C24.228,-58.339 25.471,-57.979 26.016,-56.99C26.561,-56.001 26.201,-54.758 25.212,-54.213L10.144,-45.914C9.155,-45.369 8.795,-44.126 9.34,-43.137C9.884,-42.148 11.128,-41.788 12.117,-42.333L30.659,-52.545C31.648,-53.09 32.891,-52.73 33.436,-51.741C33.98,-50.752 33.62,-49.509 32.631,-48.964L17.459,-40.607C16.47,-40.062 16.11,-38.819 16.655,-37.83C17.2,-36.841 18.443,-36.481 19.432,-37.026L31.129,-43.469C32.119,-44.013 33.362,-43.653 33.907,-42.664C34.451,-41.675 34.091,-40.432 33.102,-39.887L23.51,-34.604C22.521,-34.059 22.161,-32.816 22.705,-31.827C23.25,-30.838 24.493,-30.477 25.482,-31.022L40.096,-39.071C41.085,-39.616 42.329,-39.256 42.873,-38.267C43.418,-37.278 43.058,-36.035 42.069,-35.49L32.305,-30.112C31.316,-29.567 30.956,-28.324 31.5,-27.335C32.045,-26.346 33.288,-25.986 34.277,-26.53L45.318,-32.611C46.306,-33.156 47.55,-32.795 48.095,-31.807C48.639,-30.818 48.279,-29.574 47.29,-29.03L25.602,-17.084C24.613,-16.539 24.253,-15.296 24.797,-14.307C25.342,-13.318 26.585,-12.958 27.574,-13.502L43.538,-22.295C44.527,-22.84 45.77,-22.479 46.315,-21.49C46.86,-20.502 46.5,-19.258 45.511,-18.713L32.811,-11.719C31.822,-11.174 31.462,-9.931 32.007,-8.942C32.551,-7.953 33.795,-7.592 34.784,-8.137L39.039,-10.481C40.028,-11.026 41.271,-10.665 41.816,-9.676C42.361,-8.688 42.001,-7.444 41.012,-6.899L27.498,0.543C26.509,1.088 26.15,2.332 26.694,3.32C27.239,4.309 28.482,4.67 29.471,4.125L48.963,-6.611C68.302,-26.524 72.246,-54.663 58.888,-78.916" style="fill:rgb(236,93,103);fill-rule:nonzero;"/>
                        </g>
                        <g transform="matrix(4.16667,0,0,4.16667,1048.55,326.745)">
                            <path d="M0,-5.896C-2.658,-6.338 -5.367,-6.595 -8.115,-6.68C-8.29,-6.292 -8.556,-5.94 -8.959,-5.719L-13.274,-3.342C-14.263,-2.797 -14.623,-1.554 -14.078,-0.565C-13.534,0.424 -12.29,0.784 -11.301,0.24L-0.374,-5.779C-0.255,-5.844 -0.125,-5.856 0,-5.896" style="fill:rgb(248,178,96);fill-rule:nonzero;"/>
                        </g>
                        <g transform="matrix(4.16667,0,0,4.16667,1252,358.244)">
                            <path d="M0,48.255L-16.298,57.232C-17.287,57.776 -17.647,59.02 -17.102,60.009C-16.558,60.998 -15.314,61.358 -14.325,60.813L0.45,52.675C0.766,52.502 1.104,52.45 1.439,52.451C2.473,40.765 0.004,28.713 -6.175,17.493L-6.346,17.184C-15.351,0.834 -30.004,-9.723 -46.906,-13.103C-46.718,-12.946 -46.549,-12.761 -46.424,-12.534C-45.879,-11.545 -46.239,-10.302 -47.228,-9.757L-52.42,-6.897C-53.408,-6.353 -53.768,-5.109 -53.224,-4.12C-52.679,-3.131 -51.436,-2.771 -50.447,-3.316L-40.96,-8.541C-41.04,-8.497 -41.115,-8.447 -41.186,-8.394C-40.245,-8.761 -39.155,-8.386 -38.655,-7.477C-38.154,-6.568 -38.419,-5.446 -39.233,-4.847C-39.15,-4.879 -39.068,-4.915 -38.988,-4.959L-58.033,5.531C-59.022,6.075 -59.382,7.319 -58.837,8.308C-58.293,9.297 -57.049,9.657 -56.061,9.112L-38.518,-0.55C-37.529,-1.095 -36.286,-0.734 -35.741,0.255C-35.196,1.243 -35.557,2.487 -36.545,3.032L-47.389,9.004C-48.378,9.549 -48.738,10.792 -48.194,11.781C-47.649,12.77 -46.406,13.13 -45.417,12.586L-38.729,8.902C-37.74,8.358 -36.497,8.718 -35.952,9.707C-35.407,10.696 -35.767,11.939 -36.756,12.484L-40.584,14.592C-41.573,15.136 -41.933,16.38 -41.388,17.369C-40.843,18.358 -39.6,18.718 -38.611,18.173L-30.627,13.776C-29.638,13.232 -28.395,13.592 -27.851,14.581C-27.306,15.57 -27.666,16.813 -28.655,17.358L-39.499,23.33C-40.488,23.875 -40.848,25.118 -40.303,26.107C-39.759,27.096 -38.515,27.457 -37.526,26.912L-22.775,18.787C-21.787,18.243 -20.543,18.603 -19.999,19.592C-19.454,20.581 -19.814,21.824 -20.803,22.369L-28.741,26.741C-29.73,27.286 -30.09,28.529 -29.546,29.518C-29.001,30.507 -27.757,30.867 -26.769,30.323L-18.83,25.95C-17.841,25.406 -16.598,25.766 -16.053,26.755C-15.509,27.744 -15.869,28.987 -16.858,29.532L-19.261,30.856C-20.25,31.4 -20.61,32.644 -20.065,33.633C-19.521,34.622 -18.277,34.982 -17.288,34.437L-11.41,31.2C-10.421,30.655 -9.178,31.016 -8.634,32.004C-8.089,32.993 -8.449,34.237 -9.438,34.781L-20.851,41.067C-21.84,41.612 -22.2,42.855 -21.655,43.844C-21.11,44.833 -19.867,45.193 -18.878,44.649L-10.94,40.277C-9.951,39.732 -8.707,40.092 -8.163,41.081C-7.618,42.07 -7.978,43.313 -8.967,43.858L-12.084,45.575C-13.073,46.12 -13.433,47.363 -12.889,48.352C-12.344,49.341 -11.101,49.701 -10.112,49.156L-1.973,44.674C-0.984,44.129 0.259,44.489 0.804,45.478C1.349,46.467 0.989,47.71 0,48.255" style="fill:rgb(248,178,96);fill-rule:nonzero;"/>
                        </g>
                        <g transform="matrix(4.16667,0,0,4.16667,972.068,302.002)">
                            <path d="M0,0.728L2.219,-0.494C0.627,-0.342 -0.975,-0.118 -2.582,0.154C-1.978,0.943 -0.897,1.222 0,0.728" style="fill:rgb(248,178,96);fill-rule:nonzero;"/>
                        </g>
                        <g transform="matrix(4.16667,0,0,4.16667,1230.97,613.495)">
                            <path d="M0,-0.89C-0.989,-0.345 -1.349,0.898 -0.804,1.887C-0.26,2.876 0.984,3.236 1.973,2.692L4.62,1.234C4.649,1.217 4.683,1.219 4.713,1.204C5.185,-0.557 5.569,-2.335 5.874,-4.126L0,-0.89Z" style="fill:rgb(248,178,96);fill-rule:nonzero;"/>
                        </g>
                        <g transform="matrix(-4.05034,0.977669,0.977669,4.05034,1238.22,656.758)">
                            <path d="M1.808,-2.135C2.897,-1.837 3.539,-0.714 3.241,0.376C3.045,1.095 2.477,1.586 1.808,1.773C0.464,0.183 -0.79,-1.463 -1.949,-3.161L1.808,-2.135Z" style="fill:rgb(248,178,96);fill-rule:nonzero;"/>
                        </g>
                        <g transform="matrix(4.16667,0,0,4.16667,1054.01,790.829)">
                            <path d="M0,-3.596C-0.55,-4.595 -1.806,-4.959 -2.805,-4.409L-5.717,-2.805C-6.716,-2.255 -7.08,-0.999 -6.529,-0C-5.979,0.999 -4.723,1.363 -3.724,0.813L-0.813,-0.791C0.186,-1.341 0.55,-2.597 0,-3.596" style="fill:rgb(170,57,88);fill-rule:nonzero;"/>
                        </g>
                        <g transform="matrix(-3.64958,2.0104,2.0104,3.64958,859.319,580.063)">
                            <path d="M0.996,-3.874C2.136,-3.874 3.061,-2.95 3.061,-1.809C3.06,-0.669 2.136,0.256 0.996,0.257C-0.145,0.257 -1.069,-0.668 -1.069,-1.809C-1.069,-2.949 -0.145,-3.874 0.996,-3.874" style="fill:rgb(170,57,88);fill-rule:nonzero;"/>
                        </g>
                        <g transform="matrix(-3.64958,2.0104,2.0104,3.64958,983.671,629.348)">
                            <path d="M0.996,-3.874C2.137,-3.875 3.062,-2.95 3.062,-1.81C3.061,-0.669 2.137,0.256 0.996,0.256C-0.144,0.257 -1.069,-0.668 -1.068,-1.809C-1.068,-2.949 -0.144,-3.874 0.996,-3.874" style="fill:rgb(170,57,88);fill-rule:nonzero;"/>
                        </g>
                        <g transform="matrix(4.16667,0,0,4.16667,818.147,411.094)">
                            <path d="M0,-5.222L-2.912,-3.618C-3.911,-3.068 -4.275,-1.812 -3.724,-0.813C-3.174,0.186 -1.918,0.55 -0.919,-0L1.992,-1.604C2.992,-2.154 3.355,-3.41 2.805,-4.409C2.255,-5.408 0.999,-5.772 0,-5.222" style="fill:rgb(170,57,88);fill-rule:nonzero;"/>
                        </g>
                        <g transform="matrix(-3.64957,2.01041,2.01041,3.64957,599.219,832.152)">
                            <path d="M1.102,-4.284C2.363,-4.284 3.386,-3.261 3.386,-2C3.386,-0.739 2.363,0.284 1.102,0.284C-0.159,0.284 -1.182,-0.739 -1.181,-1.999C-1.182,-3.261 -0.159,-4.284 1.102,-4.284" style="fill:rgb(253,200,99);fill-rule:nonzero;"/>
                        </g>
                        <g transform="matrix(3.64957,-2.01041,-2.01041,-3.64957,461.416,581.962)">
                            <path d="M-1.102,-0.284C0.159,-0.284 1.182,0.739 1.182,2C1.182,3.261 0.159,4.284 -1.102,4.284C-2.363,4.284 -3.386,3.261 -3.385,2.001C-3.386,0.739 -2.363,-0.284 -1.102,-0.284" style="fill:rgb(253,200,99);fill-rule:nonzero;"/>
                        </g>
                        <g transform="matrix(-3.64957,2.01041,2.01041,3.64957,396.144,726.614)">
                            <path d="M1.102,-4.284C2.364,-4.284 3.386,-3.262 3.386,-2.001C3.386,-0.739 2.363,0.283 1.102,0.283C-0.159,0.283 -1.182,-0.739 -1.181,-2C-1.182,-3.262 -0.159,-4.284 1.102,-4.284" style="fill:rgb(253,200,99);fill-rule:nonzero;"/>
                        </g>
                        <g transform="matrix(4.16667,0,0,4.16667,509.669,822.595)">
                            <path d="M0,-8.891C-0.609,-9.996 -1.997,-10.398 -3.102,-9.79L-15.269,-3.089L-15.268,-3.087C-15.284,-3.077 -15.302,-3.07 -15.318,-3.06C-16.408,-2.425 -16.775,-1.026 -16.139,0.063C-15.513,1.136 -14.148,1.507 -13.066,0.91L-13.064,0.913L-0.898,-5.787L-0.899,-5.789C0.206,-6.397 0.608,-7.786 0,-8.891" style="fill:rgb(253,200,99);fill-rule:nonzero;"/>
                        </g>
                        <g transform="matrix(3.64957,-2.01041,-2.01041,-3.64957,574.577,932.692)">
                            <path d="M-1.102,-0.284C0.159,-0.284 1.182,0.739 1.182,2C1.182,3.261 0.159,4.284 -1.102,4.284C-2.363,4.284 -3.386,3.261 -3.385,2.001C-3.386,0.739 -2.363,-0.284 -1.102,-0.284" style="fill:rgb(253,200,99);fill-rule:nonzero;"/>
                        </g>
                        <g transform="matrix(4.16667,0,0,4.16667,533.371,975.099)">
                            <path d="M0,-9.682C-0.144,-9.602 -0.276,-9.509 -0.396,-9.405L-6.065,-6.282L-6.068,-6.288C-6.095,-6.272 -6.119,-6.254 -6.147,-6.239C-7.252,-5.631 -8.64,-6.033 -9.249,-7.138C-9.858,-8.243 -9.455,-9.632 -8.35,-10.24C-8.323,-10.255 -8.295,-10.267 -8.268,-10.28L-8.27,-10.286L6.232,-18.273C6.383,-18.319 6.533,-18.38 6.677,-18.46C7.782,-19.068 8.184,-20.457 7.576,-21.562C6.976,-22.651 5.618,-23.055 4.521,-22.484L4.494,-22.533L-47.122,5.896C-48.244,6.514 -48.659,7.911 -48.051,9.016C-47.442,10.121 -46.039,10.517 -44.918,9.899L-28.596,0.91C-28.649,0.939 -28.696,0.975 -28.74,1.014C-28.094,0.826 -27.189,1.419 -26.629,2.435C-26.07,3.451 -26.053,4.532 -26.556,4.978C-26.499,4.962 -26.444,4.942 -26.391,4.913L-33.588,8.876C-34.483,9.37 -34.716,10.666 -34.107,11.771C-33.498,12.876 -32.278,13.373 -31.383,12.879L2.23,-5.634L2.204,-5.681C3.308,-6.29 3.711,-7.679 3.102,-8.783C2.494,-9.888 1.105,-10.291 0,-9.682" style="fill:rgb(253,200,99);fill-rule:nonzero;"/>
                        </g>
                        <g transform="matrix(4.16667,0,0,4.16667,1077.01,597.366)">
                            <path d="M0,-20.166C-6.026,-31.106 -17.753,-34.652 -28.869,-28.529L-39.368,-22.746L-18.862,14.486L-8.363,8.703C2.754,2.58 6.123,-9.05 0.097,-19.99L0,-20.166Z" style="fill:rgb(253,200,99);fill-rule:nonzero;"/>
                        </g>
                        <g transform="matrix(4.16667,0,0,4.16667,870.921,339.611)">
                            <path d="M0,129.578C-1.105,130.187 -2.494,129.784 -3.102,128.679C-3.711,127.574 -3.308,126.186 -2.204,125.577C-1.099,124.969 0.29,125.371 0.899,126.476C1.507,127.581 1.105,128.969 0,129.578M-6.002,132.883L-6.001,132.884L-9.481,134.801L-9.482,134.8C-10.587,135.408 -11.976,135.006 -12.584,133.901C-13.193,132.796 -12.79,131.407 -11.685,130.799L-8.205,128.882C-7.1,128.273 -5.711,128.676 -5.103,129.781C-4.494,130.885 -4.897,132.274 -6.002,132.883M-53.437,33.789L-53.437,33.79L-56.917,35.707L-56.918,35.706C-58.022,36.314 -59.411,35.912 -60.02,34.807C-60.628,33.702 -60.226,32.313 -59.121,31.705L-55.641,29.788C-54.536,29.18 -53.147,29.582 -52.539,30.687C-51.93,31.792 -52.333,33.18 -53.437,33.789M-58.23,57.299C-59.335,57.907 -60.724,57.505 -61.332,56.4C-61.941,55.296 -61.539,53.907 -60.434,53.298C-59.329,52.69 -57.94,53.092 -57.332,54.197C-56.723,55.302 -57.125,56.691 -58.23,57.299M15.593,130.275L-43.506,22.974L-1.756,-0.022C31.301,-18.23 67.65,-9.01 84.674,21.897L84.844,22.206C92.985,36.987 94.814,53.636 89.994,69.087C85.084,84.823 73.489,98.386 57.344,107.279L15.593,130.275ZM95.971,16.718C75.956,-19.621 30.372,-32.939 -6.039,-13.179C-6.075,-13.161 -6.112,-13.146 -6.148,-13.126L-6.46,-12.954L-6.461,-12.953L-6.462,-12.953L-104.564,41.08C-105.685,41.697 -106.101,43.094 -105.492,44.2C-104.883,45.305 -103.48,45.7 -102.359,45.083L-70.309,27.43C-69.187,26.813 -67.784,27.208 -67.176,28.313C-66.567,29.419 -66.982,30.816 -68.104,31.433L-95.102,46.304C-96.224,46.921 -96.639,48.318 -96.031,49.424C-95.422,50.529 -94.019,50.924 -92.897,50.307L-77.31,41.722C-76.189,41.104 -74.786,41.499 -74.177,42.605C-73.568,43.71 -73.984,45.107 -75.105,45.725L-77.731,47.171C-78.852,47.789 -79.268,49.185 -78.659,50.291C-78.05,51.396 -76.647,51.792 -75.526,51.174L-64.056,44.857C-62.935,44.24 -61.533,44.636 -60.924,45.74C-60.316,46.846 -60.731,48.243 -61.853,48.86L-89.543,64.112C-90.665,64.73 -91.08,66.127 -90.471,67.232C-89.863,68.337 -88.46,68.733 -87.338,68.115L-70.904,59.064C-70.995,59.113 -71.079,59.17 -71.161,59.23C-70.094,58.811 -68.865,59.225 -68.305,60.241C-67.746,61.257 -68.053,62.517 -68.977,63.194C-68.883,63.158 -68.79,63.117 -68.699,63.067L-75.6,66.867C-76.721,67.485 -77.137,68.882 -76.528,69.987C-75.919,71.093 -74.516,71.488 -73.395,70.87L-56.795,61.727C-55.673,61.11 -54.27,61.505 -53.661,62.61C-53.053,63.715 -53.468,65.111 -54.588,65.73L-74.143,76.5C-75.265,77.118 -75.68,78.515 -75.071,79.62C-74.463,80.726 -73.06,81.121 -71.938,80.503L-56.696,72.108C-55.574,71.49 -54.171,71.886 -53.563,72.991C-52.954,74.096 -53.369,75.493 -54.491,76.111L-84.813,92.812C-85.934,93.43 -86.35,94.826 -85.741,95.932C-85.132,97.037 -83.729,97.433 -82.608,96.815L-66.21,87.783C-65.088,87.166 -63.686,87.561 -63.077,88.666C-62.468,89.772 -62.884,91.169 -64.005,91.786L-71.933,96.153C-73.054,96.771 -73.47,98.167 -72.861,99.273C-72.252,100.378 -70.849,100.774 -69.728,100.156L-55.917,92.549C-54.795,91.932 -53.393,92.327 -52.784,93.432C-52.175,94.538 -52.59,95.935 -53.712,96.552L-71.251,106.213C-72.373,106.831 -72.789,108.228 -72.18,109.333C-71.571,110.438 -70.168,110.834 -69.047,110.216L-43.151,95.953C-42.03,95.336 -40.627,95.731 -40.018,96.836C-39.409,97.942 -39.825,99.339 -40.946,99.956L-61.615,111.341C-62.737,111.958 -63.153,113.355 -62.544,114.461C-61.935,115.566 -60.532,115.961 -59.411,115.344L-33.189,100.902C-32.068,100.284 -30.665,100.679 -30.056,101.785C-29.447,102.89 -29.863,104.287 -30.984,104.905L-41.42,110.652C-42.542,111.27 -42.957,112.667 -42.348,113.773C-41.74,114.878 -40.337,115.273 -39.215,114.656L-33.596,111.561C-32.475,110.943 -31.072,111.339 -30.463,112.444C-29.854,113.549 -30.27,114.946 -31.391,115.564L-53.522,127.753C-54.644,128.371 -55.06,129.768 -54.451,130.873C-53.842,131.979 -52.439,132.374 -51.318,131.757L-35.02,122.78C-33.899,122.163 -32.497,122.559 -31.888,123.664C-31.279,124.769 -31.695,126.166 -32.817,126.784L-52.981,137.89C-54.102,138.508 -54.518,139.905 -53.909,141.01C-53.3,142.116 -51.898,142.511 -50.776,141.893L-23.368,126.798C-22.246,126.18 -20.844,126.575 -20.235,127.681C-19.626,128.786 -20.042,130.183 -21.163,130.801L-47.265,145.177C-48.387,145.795 -48.802,147.192 -48.194,148.297C-47.585,149.403 -46.182,149.798 -45.06,149.18L-24.393,137.797C-23.272,137.18 -21.869,137.575 -21.26,138.681C-20.652,139.786 -21.067,141.183 -22.189,141.801L-30.286,146.261C-31.408,146.878 -31.824,148.275 -31.215,149.381C-30.606,150.486 -29.203,150.882 -28.082,150.264L5.671,131.674C6.792,131.056 8.195,131.452 8.804,132.557C9.412,133.662 8.997,135.059 7.875,135.677L-32.466,157.896C-33.587,158.514 -34.003,159.911 -33.394,161.016C-32.785,162.122 -31.382,162.517 -30.261,161.899L-3.251,147.023C-2.129,146.405 -0.726,146.8 -0.118,147.906C0.491,149.011 0.076,150.408 -1.046,151.026L-9.805,155.85C-10.927,156.468 -11.342,157.865 -10.733,158.97C-10.125,160.076 -8.722,160.471 -7.6,159.853L62.811,121.072C62.992,120.972 63.153,120.85 63.296,120.714C64.303,120.216 65.305,119.698 66.299,119.151C102.779,99.058 116.063,53.198 95.971,16.718" style="fill:rgb(253,200,99);fill-rule:nonzero;"/>
                        </g>
                        <g transform="matrix(-3.64957,2.01041,2.01041,3.64957,579.309,1060.52)">
                            <path d="M1.102,-4.284C2.364,-4.283 3.386,-3.261 3.386,-2C3.386,-0.739 2.363,0.284 1.102,0.284C-0.159,0.284 -1.182,-0.739 -1.181,-1.999C-1.182,-3.261 -0.159,-4.284 1.102,-4.284" style="fill:rgb(253,200,99);fill-rule:nonzero;"/>
                        </g>
                        <g transform="matrix(4.16667,0,0,4.16667,673.517,1063.67)">
                            <path d="M0,-18.1L-12.166,-11.399L-12.165,-11.397C-12.182,-11.388 -12.199,-11.381 -12.216,-11.371C-13.305,-10.735 -13.673,-9.336 -13.037,-8.247C-12.411,-7.174 -11.046,-6.804 -9.964,-7.4L-9.962,-7.397L-9.961,-7.396L-16.15,-3.987L-16.149,-3.985C-16.166,-3.976 -16.183,-3.969 -16.2,-3.959C-17.289,-3.323 -17.656,-1.925 -17.021,-0.835C-16.394,0.237 -15.029,0.608 -13.947,0.012L-13.946,0.015L-1.779,-6.686L-1.78,-6.687C-0.675,-7.296 -0.273,-8.685 -0.881,-9.79C-1.49,-10.895 -2.879,-11.297 -3.984,-10.688L-3.986,-10.689L2.204,-14.098L2.204,-14.099C3.308,-14.708 3.711,-16.096 3.102,-17.201C2.494,-18.306 1.105,-18.708 0,-18.1" style="fill:rgb(253,200,99);fill-rule:nonzero;"/>
                        </g>
                        <g transform="matrix(4.16667,0,0,4.16667,416.049,691.265)">
                            <path d="M0,0.963C-0.017,0.972 -0.034,0.98 -0.051,0.989C-1.14,1.625 -1.508,3.024 -0.872,4.113C-0.245,5.186 1.12,5.556 2.202,4.96L2.203,4.963L6.294,2.71L6.292,2.713L6.286,2.716L6.288,2.717C6.271,2.727 6.254,2.734 6.237,2.744C5.148,3.38 4.78,4.778 5.416,5.867C6.042,6.94 7.407,7.311 8.489,6.715L8.491,6.718L20.657,0.017L20.657,0.016C21.761,-0.593 22.164,-1.982 21.555,-3.087C20.947,-4.192 19.558,-4.594 18.453,-3.985L14.367,-1.735L14.368,-1.737L14.37,-1.738L14.369,-1.739C15.474,-2.347 15.876,-3.736 15.268,-4.841C14.659,-5.946 13.27,-6.348 12.165,-5.74L-0.001,0.961L0,0.963Z" style="fill:rgb(253,200,99);fill-rule:nonzero;"/>
                        </g>
                        <g transform="matrix(4.16667,0,0,4.16667,436.323,681.419)">
                            <path d="M0,-15.071C1.105,-15.679 1.507,-17.068 0.899,-18.173C0.29,-19.278 -1.099,-19.68 -2.204,-19.072C-2.348,-18.992 -2.48,-18.899 -2.599,-18.795L-8.262,-15.676L-8.265,-15.681C-8.291,-15.665 -8.316,-15.648 -8.343,-15.633C-9.448,-15.024 -10.837,-15.427 -11.445,-16.531C-12.054,-17.636 -11.652,-19.025 -10.547,-19.634C-10.52,-19.649 -10.492,-19.66 -10.464,-19.674L-10.467,-19.679L-8.887,-20.549C-8.735,-20.595 -8.586,-20.656 -8.442,-20.736C-7.337,-21.345 -6.934,-22.733 -7.543,-23.838C-8.143,-24.927 -9.501,-25.332 -10.598,-24.76L-10.625,-24.81L-37.418,-10.053C-38,-9.732 -37.978,-8.576 -37.369,-7.471C-36.761,-6.365 -35.795,-5.729 -35.213,-6.05L-30.792,-8.484C-30.845,-8.455 -30.892,-8.419 -30.936,-8.38C-30.29,-8.567 -29.385,-7.975 -28.826,-6.959C-28.266,-5.943 -28.249,-4.861 -28.753,-4.415C-28.696,-4.432 -28.64,-4.452 -28.588,-4.481L-46.893,5.601C-48.085,6.257 -48.557,7.686 -47.949,8.791C-47.34,9.897 -45.88,10.261 -44.688,9.604L0.026,-15.024L0,-15.071Z" style="fill:rgb(253,200,99);fill-rule:nonzero;"/>
                        </g>
                    </g>
                </g>
            </g>
        </g>
    </g>
</svg>
