<?xml version="1.0" encoding="UTF-8" standalone="no"?>
<svg width="560px" height="200px" viewBox="0 0 280 100"
xmlns="http://www.w3.org/2000/svg" xmlns:xlink="http://www.w3.org/1999/xlink">
	<defs>
		<style type="text/css">
			* {fill: white}
			#background, #fernsehturm-cutout {fill: #DA5845}
			text {
				font-family: Droid Sans;
				text-anchor: end
			}
		</style>
	</defs>
	<rect id="background" width="100%" height="100%" />
	
	<!-- Fernsehturm -->
	<circle cx="25" cy="85" r="10" />
	<rect x="21" y="65" width="8" height="20" />
	<path d="M24.5,5 l1,0 l2.5,95 l-6,0" />
	<rect id="fernsehturm-cutout" x="15" y="87" width="20" height="2" />
	<!-- D arc -->
	<path d="M30,5 a 42,42 0,0,1 10,80 l-1,-1 a 40,40 0,0,0 -8,-74" />
	
	<!-- text -->
	<!-- The <path>s below are generated by inkscape from the following <text>s:
	<text x="260" y="50" style="font-size: 34px"><tspan style="font-weight: bold">D</tspan>Conf 2016</text>
	<text x="259" y="75" style="font-size: 22px">May 4&#x2013;6 &#x00B7; Berlin</text>
	-->
	<!-- U+2013 EN DASH -->
	<!-- U+00B7 MIDDLE DOT -->
	<path d="m 109.15723,75 -4.75879,-13.75 -0.0859,0 q 0.0644,0.794922 0.10742,1.579102 0.043,0.676757 0.0645,1.42871 0.0322,0.741211 0.0322,1.353516 l 0,9.388672 -1.84765,0 0,-15.705078 2.96484,0 4.42578,12.804687 0.0645,0 4.44727,-12.804687 2.96484,0 0,15.705078 -1.99804,0 0,-9.52832 q 0,-0.558594 0.0215,-1.278321 0.0215,-0.719726 0.0537,-1.375 0.043,-0.762695 0.0752,-1.546875 l -0.0859,0 L 110.80078,75 l -1.64355,0 z" />
	<path d="m 128.21387,75 -0.39746,-1.632813 -0.0859,0 q -0.35449,0.483399 -0.70899,0.837891 -0.35449,0.34375 -0.77343,0.569336 -0.41895,0.225586 -0.93457,0.333008 -0.51563,0.107422 -1.19239,0.107422 -0.74121,0 -1.36425,-0.214844 -0.62305,-0.204102 -1.08496,-0.633789 -0.45118,-0.44043 -0.70899,-1.095703 -0.25781,-0.666016 -0.25781,-1.56836 0,-1.761718 1.23535,-2.707031 1.24609,-0.945312 3.78125,-1.03125 l 1.97656,-0.07519 0,-0.741211 q 0,-0.719727 -0.16113,-1.203125 -0.15039,-0.483399 -0.45117,-0.773438 -0.29004,-0.300781 -0.73047,-0.429687 -0.42969,-0.128906 -0.98828,-0.128906 -0.8916,0 -1.66504,0.257812 -0.7627,0.257813 -1.47168,0.623047 l -0.6875,-1.47168 q 0.79492,-0.429687 1.77246,-0.730468 0.97754,-0.300782 2.05176,-0.300782 1.0957,0 1.89062,0.225586 0.80567,0.214844 1.32129,0.698242 0.52637,0.472657 0.78418,1.213868 0.25781,0.741211 0.25781,1.793945 l 0,8.078125 -1.40722,0 z m -3.58789,-1.364258 q 0.65527,0 1.21386,-0.204101 0.5586,-0.204102 0.9668,-0.612305 0.4082,-0.418945 0.63379,-1.041992 0.23633,-0.633789 0.23633,-1.482422 l 0,-1.063477 -1.53613,0.0752 q -0.9668,0.04297 -1.62208,0.214843 -0.65527,0.171875 -1.05273,0.483399 -0.38672,0.300781 -0.55859,0.741211 -0.17188,0.429687 -0.17188,0.977539 0,0.988281 0.51563,1.450195 0.52636,0.461914 1.375,0.461914 z" />
	<path d="m 131.49023,63.205078 2.03028,0 2.30957,6.584961 q 0.15039,0.429688 0.30078,0.902344 0.16113,0.472656 0.29004,0.945312 0.13965,0.472657 0.23633,0.913086 0.0967,0.44043 0.13964,0.816406 l 0.0645,0 q 0.0537,-0.268554 0.17187,-0.730468 0.11817,-0.461914 0.25782,-0.977539 0.15039,-0.526368 0.30078,-1.03125 0.16113,-0.504883 0.27929,-0.859375 l 2.1377,-6.563477 2.01953,0 -4.66211,13.331055 q -0.30078,0.870117 -0.65527,1.557617 -0.34375,0.698242 -0.80567,1.181641 -0.46191,0.483398 -1.08496,0.741211 -0.62304,0.268554 -1.48242,0.268554 -0.55859,0 -0.9668,-0.06445 -0.4082,-0.05371 -0.69824,-0.118164 l 0,-1.557617 q 0.22559,0.05371 0.56934,0.08594 0.34375,0.04297 0.71972,0.04297 0.51563,0 0.89161,-0.128906 0.37597,-0.118164 0.65527,-0.354492 0.2793,-0.236328 0.47266,-0.580078 0.2041,-0.34375 0.36523,-0.78418 l 0.6123,-1.71875 -4.46875,-11.902344 z" />
	<path d="m 159.5166,71.476562 -2.28808,0 0,3.523438 -1.89063,0 0,-3.523438 -7.25098,0 0,-1.708007 7.12207,-10.559571 2.01954,0 0,10.484375 2.28808,0 0,1.783203 z m -4.17871,-1.783203 0,-3.824218 q 0,-0.601563 0.0107,-1.256836 0.0215,-0.666016 0.043,-1.289063 0.0215,-0.633789 0.043,-1.18164 0.0322,-0.547852 0.043,-0.913086 l -0.0967,0 q -0.0752,0.214843 -0.19336,0.483398 -0.10742,0.257813 -0.24707,0.526367 -0.12891,0.257813 -0.26856,0.504883 -0.13964,0.24707 -0.25781,0.418945 l -4.41504,6.53125 5.33887,0 z" />
	<path d="m 160.83789,70.004883 0,-1.804688 9.23828,0 0,1.804688 -9.23828,0 z" />
	<path d="m 172.1709,68.286133 q 0,-1.12793 0.10742,-2.245117 0.11816,-1.117188 0.39746,-2.137696 0.29004,-1.03125 0.78418,-1.912109 0.49414,-0.880859 1.25684,-1.525391 0.76269,-0.655273 1.82617,-1.020508 1.06348,-0.375976 2.49219,-0.375976 0.2041,0 0.45117,0.01074 0.24707,0.01074 0.49414,0.04297 0.25781,0.02148 0.4834,0.06445 0.23633,0.03223 0.41894,0.08594 l 0,1.66504 q -0.37597,-0.128907 -0.84863,-0.19336 -0.47266,-0.06445 -0.93457,-0.06445 -0.9668,0 -1.70801,0.236328 -0.73047,0.225586 -1.26758,0.644531 -0.53711,0.418946 -0.90234,0.999024 -0.35449,0.580078 -0.58008,1.289062 -0.22558,0.698243 -0.33301,1.493164 -0.10742,0.794922 -0.13964,1.654297 l 0.1289,0 q 0.21485,-0.386718 0.51563,-0.719726 0.31152,-0.34375 0.71972,-0.580078 0.40821,-0.247071 0.91309,-0.386719 0.51562,-0.139649 1.14941,-0.139649 1.02051,0 1.84766,0.322266 0.82715,0.311523 1.40723,0.923828 0.58007,0.612305 0.8916,1.503906 0.32226,0.88086 0.32226,2.019532 0,1.224609 -0.333,2.202148 -0.33301,0.977539 -0.95606,1.665039 -0.62305,0.676758 -1.50391,1.041992 -0.88086,0.365235 -1.97656,0.365235 -1.07422,0 -2.01953,-0.418946 -0.93457,-0.418945 -1.62207,-1.27832 -0.6875,-0.859375 -1.08496,-2.15918 -0.39746,-1.299804 -0.39746,-3.072265 z m 5.10254,5.285156 q 0.64453,0 1.1709,-0.214844 0.53711,-0.225586 0.92382,-0.666015 0.38672,-0.451172 0.59082,-1.12793 0.21485,-0.6875 0.21485,-1.62207 0,-0.751953 -0.18262,-1.342774 -0.17187,-0.601562 -0.52637,-1.020508 -0.35449,-0.418945 -0.8916,-0.644531 -0.52637,-0.225586 -1.23535,-0.225586 -0.71973,0 -1.32129,0.257813 -0.59082,0.24707 -1.00976,0.655273 -0.41895,0.397461 -0.65528,0.913086 -0.22558,0.515625 -0.22558,1.03125 0,0.719727 0.19336,1.439453 0.2041,0.708985 0.59082,1.278321 0.39746,0.569335 0.98828,0.93457 0.59082,0.354492 1.375,0.354492 z" />
	<path d="m 190.36816,67.233398 q 0,-0.408203 0.10743,-0.6875 0.10742,-0.290039 0.29003,-0.461914 0.18262,-0.182617 0.42969,-0.257812 0.24707,-0.08594 0.53711,-0.08594 0.2793,0 0.52637,0.08594 0.25781,0.07519 0.44043,0.257812 0.18262,0.171875 0.29004,0.461914 0.10742,0.279297 0.10742,0.6875 0,0.397461 -0.10742,0.676758 -0.10742,0.279297 -0.29004,0.461914 -0.18262,0.182617 -0.44043,0.268555 -0.24707,0.08594 -0.52637,0.08594 -0.29004,0 -0.53711,-0.08594 -0.24707,-0.08594 -0.42969,-0.268555 -0.18261,-0.182617 -0.29003,-0.461914 -0.10743,-0.279297 -0.10743,-0.676758 z" />
	<path d="m 202.52832,59.294922 4.28613,0 q 1.375,0 2.417,0.214844 1.05273,0.204101 1.75097,0.676757 0.70899,0.461914 1.06348,1.22461 0.35449,0.751953 0.35449,1.858398 0,0.666016 -0.21484,1.246094 -0.2041,0.580078 -0.60157,1.020508 -0.39746,0.440429 -0.98828,0.741211 -0.58008,0.290039 -1.32129,0.386718 l 0,0.107422 q 0.74121,0.128907 1.38575,0.375977 0.65527,0.236328 1.13867,0.666016 0.4834,0.418945 0.76269,1.063476 0.2793,0.644531 0.2793,1.568359 0,1.074219 -0.35449,1.922852 -0.34375,0.837891 -1.00977,1.428711 -0.65527,0.580078 -1.60058,0.891602 Q 208.93066,75 207.73828,75 l -5.20996,0 0,-15.705078 z m 1.99805,6.660156 2.62109,0 q 0.90234,0 1.51465,-0.161133 0.6123,-0.161133 0.98828,-0.472656 0.37598,-0.322266 0.53711,-0.794922 0.17187,-0.483398 0.17187,-1.117187 0,-1.289063 -0.82714,-1.847657 -0.82715,-0.558593 -2.61036,-0.558593 l -2.3955,0 0,4.952148 z m 0,1.675781 0,5.671875 2.85742,0 q 0.94531,0 1.5791,-0.214843 0.64453,-0.214844 1.03125,-0.601563 0.39746,-0.386719 0.56934,-0.923828 0.17187,-0.547852 0.17187,-1.203125 0,-0.601563 -0.18262,-1.106445 -0.17187,-0.504883 -0.58007,-0.859375 -0.39746,-0.365235 -1.06348,-0.558594 -0.66602,-0.204102 -1.6543,-0.204102 l -2.72851,0 z" />
	<path d="m 220.58594,75.214844 q -1.18164,0 -2.15918,-0.397461 -0.97754,-0.397461 -1.68653,-1.160156 -0.69824,-0.762696 -1.08496,-1.890625 -0.38672,-1.12793 -0.38672,-2.578125 0,-1.460938 0.3545,-2.610352 0.35449,-1.149414 0.99902,-1.944336 0.64453,-0.805664 1.53613,-1.224609 0.90235,-0.418946 1.98731,-0.418946 1.06347,0 1.91211,0.386719 0.84863,0.375977 1.43945,1.074219 0.59082,0.6875 0.90234,1.665039 0.32227,0.966797 0.32227,2.148437 l 0,1.213868 -7.43359,0 q 0.0537,2.073242 0.87011,3.050781 0.82715,0.977539 2.44922,0.977539 0.54785,0 1.00977,-0.05371 0.47265,-0.05371 0.90234,-0.150391 0.44043,-0.107422 0.84863,-0.257812 0.40821,-0.161133 0.82715,-0.354492 l 0,1.740234 q -0.42969,0.204102 -0.84863,0.354492 -0.4082,0.150391 -0.84863,0.247071 -0.42969,0.09668 -0.90235,0.139648 -0.46191,0.04297 -1.00976,0.04297 z m -0.4834,-10.602539 q -1.22461,0 -1.94434,0.83789 -0.70898,0.837891 -0.82715,2.438477 l 5.28516,0 q 0,-0.730469 -0.15039,-1.332031 -0.13965,-0.612305 -0.45117,-1.041993 -0.30078,-0.429687 -0.77344,-0.666015 -0.47266,-0.236328 -1.13867,-0.236328 z" />
	<path d="m 232.7998,62.990234 q 0.31153,0 0.69825,0.03223 0.38672,0.02148 0.66601,0.0752 l -0.25781,1.804688 q -0.30078,-0.05371 -0.62305,-0.08594 -0.31152,-0.04297 -0.59082,-0.04297 -0.67676,0 -1.23535,0.279297 -0.55859,0.268555 -0.9668,0.78418 -0.39746,0.504883 -0.62304,1.224609 -0.21485,0.708985 -0.21485,1.579102 l 0,6.359375 -1.95507,0 0,-11.794922 1.58984,0 0.23633,2.15918 0.0859,0 q 0.26856,-0.461914 0.56934,-0.891602 0.31152,-0.429687 0.6875,-0.751953 0.38672,-0.333008 0.85938,-0.526367 0.47265,-0.204102 1.07421,-0.204102 z" />
	<path d="m 238.41797,75 -1.95508,0 0,-16.714844 1.95508,0 0,16.714844 z" />
	<path d="m 244.13281,75 -1.95508,0 0,-11.794922 1.95508,0 0,11.794922 z m -2.10547,-14.985352 q 0,-0.644531 0.32227,-0.93457 0.33301,-0.290039 0.81641,-0.290039 0.23632,0 0.44043,0.0752 0.21484,0.06445 0.36523,0.214844 0.16113,0.150391 0.24707,0.386719 0.0967,0.225586 0.0967,0.547851 0,0.623047 -0.34375,0.934571 -0.33301,0.300781 -0.80566,0.300781 -0.4834,0 -0.81641,-0.300781 -0.32227,-0.300782 -0.32227,-0.934571 z" />
	<path d="m 255.26172,75 0,-7.594727 q 0,-1.396484 -0.56934,-2.094726 -0.55859,-0.698242 -1.76172,-0.698242 -0.87011,0 -1.46093,0.279297 -0.59082,0.279296 -0.95606,0.827148 -0.35449,0.547852 -0.51562,1.342773 -0.15039,0.794922 -0.15039,1.826172 l 0,6.112305 -1.95508,0 0,-11.794922 1.58984,0 0.2793,1.589844 0.10742,0 Q 250.1377,64.333008 250.50293,64 q 0.37598,-0.34375 0.81641,-0.569336 0.44043,-0.225586 0.93457,-0.333008 0.49414,-0.107422 1.00976,-0.107422 1.96582,0 2.9541,1.03125 0.99903,1.020508 0.99903,3.276368 l 0,7.702148 -1.95508,0 z" />
	<path d="m 102.7998,37.631836 q 0,3.071289 -0.84667,5.395508 -0.83008,2.307617 -2.423833,3.868164 -1.577149,1.543945 -3.884766,2.324219 Q 93.353516,50 90.415039,50 l -6.391602,0 0,-24.271484 7.105469,0 q 2.672852,0 4.814453,0.763671 2.158203,0.763672 3.685547,2.274415 1.527344,1.49414 2.340824,3.71875 0.83007,2.224609 0.83007,5.146484 z m -5.212886,0.132812 q 0,-2.02539 -0.415039,-3.486328 Q 96.773437,32.800781 95.993164,31.837891 95.229492,30.875 94.100586,30.410156 92.988281,29.945312 91.543945,29.945312 l -2.374023,0 0,15.804688 1.892578,0 q 3.253906,0 4.880859,-1.992188 1.643555,-1.992187 1.643555,-5.993164 z" />
	<path d="m 117.97363,28.102539 q -1.77636,0 -3.2207,0.680664 -1.44434,0.664063 -2.47363,1.925781 -1.0127,1.261719 -1.57715,3.071289 -0.54785,1.809571 -0.54785,4.083985 0,2.34082 0.48144,4.166992 0.49805,1.80957 1.47754,3.054687 0.97949,1.245118 2.44043,1.892579 1.46094,0.647461 3.41992,0.647461 1.47754,0 2.80567,-0.282227 1.32812,-0.298828 2.62304,-0.680664 l 0,2.689453 q -0.64746,0.249023 -1.29492,0.448242 -0.64746,0.182617 -1.36133,0.298828 -0.69726,0.116211 -1.51074,0.166016 -0.79687,0.06641 -1.77637,0.06641 -2.72265,0 -4.71484,-0.896484 -1.99219,-0.896485 -3.30371,-2.540039 -1.29492,-1.643555 -1.92578,-3.951172 -0.63086,-2.307617 -0.63086,-5.113281 0,-2.75586 0.71387,-5.046875 0.73047,-2.291016 2.125,-3.934571 1.41113,-1.643554 3.48632,-2.55664 2.0752,-0.913086 4.76465,-0.913086 1.79297,0 3.41992,0.365234 1.62696,0.365235 2.93848,1.0625 l -1.29492,2.589844 q -1.0459,-0.53125 -2.27441,-0.913086 -1.22852,-0.381836 -2.78907,-0.381836 z" />
	<path d="m 143.0752,40.852539 q 0,2.274414 -0.56446,4.050781 -0.54785,1.759766 -1.59375,2.97168 -1.02929,1.195312 -2.50683,1.826172 -1.47754,0.630859 -3.32032,0.630859 -1.70996,0 -3.15429,-0.630859 -1.44434,-0.63086 -2.50684,-1.826172 -1.0459,-1.211914 -1.64355,-2.97168 -0.58106,-1.776367 -0.58106,-4.050781 0,-2.257812 0.54785,-4.000977 0.56446,-1.759765 1.59375,-2.955078 1.0293,-1.211914 2.50684,-1.826172 1.49414,-0.630859 3.33691,-0.630859 1.70996,0 3.1543,0.630859 1.44434,0.614258 2.49023,1.826172 1.0625,1.195313 1.64356,2.955078 0.59766,1.743165 0.59766,4.000977 z m -12.75,0 q 0,3.469727 1.1289,5.229492 1.14551,1.743164 3.70215,1.743164 2.55664,0 3.66895,-1.743164 1.1289,-1.759765 1.1289,-5.229492 0,-3.469727 -1.14551,-5.179687 -1.1289,-1.726563 -3.68554,-1.726563 -2.55664,0 -3.68555,1.726563 -1.1123,1.70996 -1.1123,5.179687 z" />
	<path d="m 159.26172,50 0,-11.737305 q 0,-2.158203 -0.87988,-3.237304 -0.86329,-1.079102 -2.72266,-1.079102 -1.34473,0 -2.25781,0.431641 -0.91309,0.43164 -1.47754,1.27832 -0.54785,0.84668 -0.79688,2.075195 -0.23242,1.228516 -0.23242,2.822266 l 0,9.446289 -3.02148,0 0,-18.228516 2.45703,0 0.43164,2.457032 0.16601,0 q 0.41504,-0.713868 0.9795,-1.228516 0.58105,-0.53125 1.26172,-0.879883 0.68066,-0.348633 1.44433,-0.514648 0.76367,-0.166016 1.56055,-0.166016 3.03808,0 4.56543,1.59375 1.54394,1.577149 1.54394,5.063477 l 0,11.90332 -3.02148,0 z" />
	<path d="m 175.84668,34.045898 -4.06738,0 0,15.954102 -3.03809,0 0,-15.954102 -3.2207,0 0,-1.245117 3.2207,-1.128906 0,-1.59375 q 0,-1.776367 0.36524,-2.938477 0.38183,-1.178711 1.0791,-1.875976 0.71386,-0.697266 1.74316,-0.979492 1.0293,-0.298828 2.32422,-0.298828 0.97949,0 1.79297,0.199218 0.83008,0.182617 1.47754,0.415039 l -0.78028,2.340821 q -0.51464,-0.182618 -1.1289,-0.31543 -0.59766,-0.149414 -1.26172,-0.149414 -0.66406,0 -1.14551,0.166016 -0.48144,0.149414 -0.79687,0.547851 -0.31543,0.398438 -0.48145,1.095703 -0.14941,0.680664 -0.14941,1.759766 l 0,1.726562 4.06738,0 0,2.274414 z" />
	<path d="m 201.82812,50 -15.14062,0 0,-2.589844 5.81055,-6.325195 q 1.24511,-1.344727 2.22461,-2.457031 0.97949,-1.112305 1.66015,-2.174805 0.69727,-1.0625 1.0625,-2.125 0.36524,-1.079102 0.36524,-2.34082 0,-0.979493 -0.28223,-1.726563 -0.28223,-0.74707 -0.81348,-1.261719 -0.51464,-0.53125 -1.22851,-0.796875 -0.71387,-0.265625 -1.59375,-0.265625 -1.57715,0 -2.85547,0.647461 -1.26172,0.63086 -2.40723,1.626953 l -1.69336,-1.975585 q 0.66407,-0.597657 1.42774,-1.112305 0.76367,-0.53125 1.64355,-0.913086 0.87989,-0.381836 1.85938,-0.597656 0.97949,-0.232422 2.05859,-0.232422 1.59375,0 2.87207,0.448242 1.29492,0.448242 2.19141,1.294922 0.89648,0.830078 1.37793,2.041992 0.49804,1.195313 0.49804,2.706055 0,1.411133 -0.44824,2.689453 -0.43164,1.27832 -1.21191,2.523437 -0.76367,1.228516 -1.84278,2.473633 -1.0625,1.245117 -2.30761,2.589844 l -4.66504,4.963867 0,0.132813 11.43847,0 0,2.755859 z" />
	<path d="m 220.95312,37.831055 q 0,2.938476 -0.43164,5.262695 -0.41503,2.324219 -1.36132,3.93457 -0.92969,1.610352 -2.40723,2.457032 -1.47754,0.846679 -3.58594,0.846679 -1.95898,0 -3.41992,-0.846679 -1.44434,-0.84668 -2.40723,-2.457032 -0.94629,-1.610351 -1.42773,-3.93457 -0.46484,-2.324219 -0.46484,-5.262695 0,-2.938477 0.41503,-5.262696 0.43165,-2.324218 1.34473,-3.917968 0.92969,-1.610352 2.39063,-2.457032 1.47754,-0.846679 3.56933,-0.846679 1.97559,0 3.43653,0.846679 1.46093,0.830078 2.42382,2.44043 0.96289,1.59375 1.44434,3.917969 0.48144,2.324219 0.48144,5.279297 z m -12.43457,0 q 0,2.490234 0.24903,4.349609 0.24902,1.859375 0.79687,3.104492 0.54785,1.228516 1.42774,1.859375 0.89648,0.614258 2.1748,0.614258 1.27832,0 2.17481,-0.614258 0.89648,-0.614258 1.46093,-1.842773 0.58106,-1.228516 0.83008,-3.087891 0.26563,-1.875976 0.26563,-4.382812 0,-2.490235 -0.26563,-4.34961 -0.24902,-1.859375 -0.83008,-3.08789 -0.56445,-1.228516 -1.46093,-1.842774 -0.89649,-0.614258 -2.17481,-0.614258 -1.27832,0 -2.1748,0.614258 -0.87989,0.614258 -1.42774,1.842774 -0.54785,1.228515 -0.79687,3.08789 -0.24903,1.859375 -0.24903,4.34961 z" />
	<path d="m 234.35059,50 -2.92188,0 0,-15.157227 q 0,-0.713867 0,-1.527343 0.0166,-0.813477 0.0332,-1.610352 0.0332,-0.813476 0.0498,-1.543945 0.0332,-0.747071 0.0498,-1.311524 -0.28222,0.298828 -0.49804,0.514649 -0.21582,0.21582 -0.44825,0.415039 -0.21582,0.199219 -0.46484,0.43164 -0.24902,0.215821 -0.59766,0.514649 l -2.45703,2.008789 -1.59375,-2.041992 6.3584,-4.963867 2.49024,0 0,24.271484 z" />
	<path d="m 243.14941,39.624023 q 0,-1.743164 0.16602,-3.469726 0.18262,-1.726563 0.61426,-3.303711 0.44824,-1.59375 1.21191,-2.955078 0.76367,-1.361328 1.94238,-2.357422 1.17872,-1.012695 2.82227,-1.577149 1.64355,-0.581054 3.85156,-0.581054 0.31543,0 0.69727,0.0166 0.38183,0.0166 0.76367,0.06641 0.39844,0.0332 0.74707,0.09961 0.36523,0.0498 0.64746,0.132812 l 0,2.573243 q -0.58105,-0.199219 -1.31152,-0.298828 -0.73047,-0.09961 -1.44434,-0.09961 -1.49414,0 -2.63965,0.365235 -1.1289,0.348632 -1.95898,0.996093 -0.83008,0.647461 -1.39453,1.543946 -0.54785,0.896484 -0.89649,1.992187 -0.34863,1.079102 -0.51465,2.307617 -0.16601,1.228516 -0.21582,2.556641 l 0.19922,0 q 0.33203,-0.597656 0.79688,-1.112305 0.48144,-0.53125 1.1123,-0.896484 0.63086,-0.381836 1.41114,-0.597656 0.79687,-0.215821 1.77636,-0.215821 1.57715,0 2.85547,0.498047 1.27832,0.481445 2.17481,1.427735 0.89648,0.946289 1.37793,2.324218 0.49804,1.361328 0.49804,3.121094 0,1.892578 -0.51465,3.40332 -0.51464,1.510743 -1.47753,2.573243 -0.9629,1.045898 -2.32422,1.610351 -1.36133,0.564453 -3.05469,0.564453 -1.66016,0 -3.12109,-0.647461 -1.44434,-0.647461 -2.50684,-1.975586 -1.0625,-1.328125 -1.67676,-3.336914 -0.61426,-2.008789 -0.61426,-4.748047 z m 7.88575,8.167969 q 0.99609,0 1.80957,-0.332031 0.83007,-0.348633 1.42773,-1.029297 0.59766,-0.697266 0.91309,-1.743164 0.33203,-1.0625 0.33203,-2.506836 0,-1.162109 -0.28223,-2.075195 -0.26562,-0.929688 -0.81348,-1.577149 -0.54785,-0.647461 -1.37792,-0.996093 -0.81348,-0.348633 -1.90918,-0.348633 -1.11231,0 -2.042,0.398437 -0.91308,0.381836 -1.56054,1.012696 -0.64746,0.614257 -1.0127,1.411132 -0.34863,0.796875 -0.34863,1.59375 0,1.112305 0.29883,2.22461 0.31543,1.095703 0.91308,1.975586 0.61426,0.879882 1.52735,1.444336 0.91308,0.547851 2.125,0.547851 z" />
</svg>
