<?xml version="1.0" encoding="UTF-8" standalone="no"?>
<!-- Created with Inkscape (http://www.inkscape.org/) -->

<svg
   xmlns:dc="http://purl.org/dc/elements/1.1/"
   xmlns:cc="http://creativecommons.org/ns#"
   xmlns:rdf="http://www.w3.org/1999/02/22-rdf-syntax-ns#"
   xmlns:svg="http://www.w3.org/2000/svg"
   xmlns="http://www.w3.org/2000/svg"
   xmlns:sodipodi="http://sodipodi.sourceforge.net/DTD/sodipodi-0.dtd"
   xmlns:inkscape="http://www.inkscape.org/namespaces/inkscape"
   width="240"
   height="238"
   id="svg7020"
   version="1.1"
   inkscape:version="0.48.5 r10040"
   sodipodi:docname="starkes-catering_starke-teams.com.svg">
  <defs
     id="defs7022" />
  <sodipodi:namedview
     id="base"
     pagecolor="#ffffff"
     bordercolor="#666666"
     borderopacity="1.0"
     inkscape:pageopacity="0.0"
     inkscape:pageshadow="2"
     inkscape:zoom="1.9908333"
     inkscape:cx="84.520081"
     inkscape:cy="116.55905"
     inkscape:document-units="px"
     inkscape:current-layer="text3360"
     showgrid="false"
     inkscape:window-width="1897"
     inkscape:window-height="1002"
     inkscape:window-x="0"
     inkscape:window-y="0"
     inkscape:window-maximized="0" />
  <metadata
     id="metadata7025">
    <rdf:RDF>
      <cc:Work
         rdf:about="">
        <dc:format>image/svg+xml</dc:format>
        <dc:type
           rdf:resource="http://purl.org/dc/dcmitype/StillImage" />
        <dc:title></dc:title>
      </cc:Work>
    </rdf:RDF>
  </metadata>
  <g
     inkscape:label="Ebene 1"
     inkscape:groupmode="layer"
     id="layer1"
     transform="translate(0,-814.36218)">
    <g
       style="font-size:27.81663895px;font-style:normal;font-variant:normal;font-weight:bold;font-stretch:normal;text-align:start;line-height:125%;letter-spacing:0px;word-spacing:0px;writing-mode:lr-tb;text-anchor:start;fill:#80af51;fill-opacity:1;stroke:none;font-family:Mirarae BT;-inkscape-font-specification:Mirarae BT Bold"
       id="text3360">
      <path
         d="m 38.917923,1013.2098 -1.27674,0 c -1.6e-5,-0.027 0.0045,-0.072 0.01358,-0.1358 0.009,-0.063 0.01357,-0.1132 0.01358,-0.1494 -1.6e-5,-0.7787 -0.366739,-1.4171 -1.10017,-1.9151 -0.733461,-0.498 -1.684224,-0.747 -2.852292,-0.747 -1.892484,0 -3.370694,0.6678 -4.434635,2.0034 -1.063957,1.3356 -1.595932,3.1896 -1.595926,5.5619 -6e-6,2.146 0.493486,3.8642 1.480476,5.1545 0.986975,1.2904 2.290878,1.9355 3.911715,1.9355 0.452732,0 0.885103,-0.052 1.297113,-0.1562 0.411985,-0.1041 0.812664,-0.2648 1.202038,-0.4822 l 0.135823,-2.8387 0,-0.421 c -1.4e-5,-0.5795 -0.108673,-0.9644 -0.325976,-1.1545 -0.217331,-0.1902 -0.710822,-0.2852 -1.480475,-0.2852 l 0.08149,-1.4126 5.989813,0 c -0.07246,0.2898 -0.129051,0.5863 -0.169779,0.8896 -0.04077,0.3034 -0.07019,0.618 -0.08829,0.944 l -0.271646,5.7046 c -1.204318,0.4075 -2.424464,0.7176 -3.660442,0.9304 -1.236006,0.2128 -2.447097,0.3192 -3.633277,0.3192 -2.77986,0 -4.966616,-0.7108 -6.560271,-2.1325 -1.593665,-1.4216 -2.390495,-3.3729 -2.390493,-5.854 -2e-6,-3.0877 1.079794,-5.6411 3.239389,-7.6604 2.159585,-2.0192 4.937172,-3.0288 8.332768,-3.0289 0.89642,10e-5 1.770217,0.054 2.621392,0.163 0.851143,0.1087 1.693248,0.2717 2.526316,0.489 z"
         style=""
         id="path4240" />
      <path
         d="m 49.62081,1008.7277 c -0.03623,0.5252 -0.08377,1.1137 -0.142614,1.7657 -0.05887,0.6519 -0.09282,1.0277 -0.101868,1.1273 l -0.448217,8.4346 c -0.01812,0.3079 -0.0317,0.5977 -0.04075,0.8693 -0.0091,0.2717 -0.01359,0.5207 -0.01358,0.747 -8e-6,0.8421 0.178826,1.4873 0.536503,1.9355 0.35766,0.4482 0.876052,0.6723 1.555178,0.6723 1.294839,0 2.458392,-0.7221 3.490662,-2.1663 1.032244,-1.4443 1.602702,-3.2711 1.711376,-5.4805 l 0.190152,-4.0611 c 0.009,-0.072 0.01809,-0.1721 0.02716,-0.2988 0.0181,-0.3713 0.02715,-0.6158 0.02717,-0.7335 -1.6e-5,-0.5795 -0.14263,-0.9802 -0.427844,-1.202 -0.285244,-0.2219 -0.826273,-0.3328 -1.62309,-0.3328 l -0.448217,0 0.08149,-1.2767 6.66893,0 c -0.04529,0.3712 -0.08604,0.7606 -0.122241,1.168 -0.03624,0.4075 -0.06793,0.8376 -0.09508,1.2904 l -0.584041,11.2597 c -0.01813,0.317 -0.03171,0.5569 -0.04075,0.7199 -0.0091,0.163 -0.0136,0.3124 -0.01358,0.4482 -1.9e-5,0.6429 0.138068,1.0911 0.414261,1.3447 0.276155,0.2535 0.758328,0.3803 1.44652,0.3803 0.04525,0 0.124484,-0 0.237691,-0.014 0.113165,-0.01 0.20145,-0.014 0.264855,-0.014 l -0.05433,1.3311 c -0.615753,-0.027 -1.188475,-0.048 -1.718167,-0.061 -0.52973,-0.014 -1.011902,-0.02 -1.446519,-0.02 -0.434652,0 -0.919089,0.01 -1.453311,0.02 -0.534254,0.014 -1.122822,0.034 -1.765704,0.061 l -0.01358,-0.1359 c -1.4e-5,-0.2263 0.02489,-0.4708 0.0747,-0.7334 0.04979,-0.2626 0.147127,-0.6293 0.29202,-1.1002 l 0.529712,-1.983 -0.339559,-0.163 c -0.842119,1.3854 -1.881168,2.4697 -3.117147,3.253 -1.236005,0.7832 -2.524062,1.1749 -3.864177,1.1749 -1.412571,0 -2.512739,-0.4166 -3.30051,-1.2496 -0.78778,-0.8331 -1.181667,-1.9921 -1.181663,-3.4771 -4e-6,-0.1539 0.0068,-0.3984 0.02037,-0.7334 0.01358,-0.3351 0.03848,-0.7606 0.0747,-1.2768 l 0.40747,-7.7012 c 0.0091,-0.1539 0.02037,-0.3463 0.03396,-0.5772 0.01358,-0.2309 0.02037,-0.3735 0.02037,-0.4279 -5e-6,-0.6066 -0.147146,-1.0096 -0.441426,-1.2088 -0.294288,-0.1992 -0.962086,-0.2988 -2.003396,-0.2988 l 0.05433,-1.2767 z"
         style=""
         id="path4242" />
      <path
         d="m 81.091099,1008.619 -0.217318,4.5365 -1.344652,0 0,-0.1901 c -1.6e-5,-0.8784 -0.201487,-1.4828 -0.604414,-1.8133 -0.402958,-0.3305 -1.156777,-0.4957 -2.26146,-0.4957 l -2.213922,0 -0.611205,11.6536 c -0.0091,0.1721 -0.01586,0.335 -0.02037,0.489 -0.0045,0.1539 -0.0068,0.2761 -0.0068,0.3667 -1.1e-5,0.9598 0.156186,1.5733 0.468591,1.8404 0.312382,0.2671 0.948488,0.4052 1.908319,0.4143 l -0.08149,1.2767 c -1.041325,-0.045 -1.892484,-0.079 -2.553481,-0.1019 -0.661017,-0.023 -1.217892,-0.034 -1.670628,-0.034 -0.443698,0 -0.996046,0.011 -1.657046,0.034 -0.661014,0.023 -1.525755,0.057 -2.594227,0.1019 l 0.08149,-1.2767 c 0.814935,0 1.351437,-0.1359 1.609507,-0.4075 0.258058,-0.2717 0.418783,-0.9462 0.482174,-2.0238 l 0.63837,-12.3327 -2.14601,0 c -1.032263,0 -1.767972,0.1901 -2.207131,0.5704 -0.439165,0.3803 -0.658746,1.0232 -0.658744,1.9287 l -1.358234,0 0.217317,-4.5229 c 0.615731,0.045 1.353705,0.077 2.213922,0.095 0.860211,0.018 2.358795,0.027 4.495756,0.027 3.006214,0 5.274463,-0.011 6.804754,-0.034 1.530261,-0.023 2.625902,-0.057 3.286927,-0.1019 z"
         style=""
         id="path4244" />
      <path
         d="m 96.642884,1008.7277 -0.679117,3.7351 -1.358235,0 0,-0.421 c -1.4e-5,-0.5433 -0.21054,-0.9168 -0.631579,-1.1206 -0.421065,-0.2037 -1.378619,-0.3056 -2.872665,-0.3056 l -2.14601,0 -0.271647,5.2971 6.152801,0 -0.556876,3.1375 -1.290322,0 0,-0.1901 c -1.3e-5,-0.3984 -0.158473,-0.6701 -0.475382,-0.8149 -0.316933,-0.1449 -0.973413,-0.2174 -1.96944,-0.2174 l -1.96944,0 -0.203735,3.8167 c -0.0091,0.1086 -0.01585,0.2331 -0.02037,0.3735 -0.0045,0.1403 -0.0068,0.3735 -0.0068,0.6995 -8e-6,0.7696 0.244474,1.2926 0.733447,1.5687 0.488955,0.2762 1.462355,0.4143 2.920203,0.4143 1.005081,0 1.749846,-0.163 2.234296,-0.489 0.484423,-0.3259 0.794553,-0.8783 0.93039,-1.657 l 1.398982,0 -0.787776,4.1154 c -0.362211,-0.036 -1.00058,-0.063 -1.915111,-0.082 -0.914556,-0.018 -2.861357,-0.027 -5.840407,-0.027 l -1.222411,0 c -1.059428,0 -1.944543,0.016 -2.655348,0.047 -0.710812,0.032 -1.355973,0.079 -1.935484,0.1426 l 0.08149,-1.3582 0.244482,0 c 0.642895,0 1.084321,-0.163 1.324279,-0.489 0.239951,-0.3259 0.39162,-1.0322 0.455008,-2.1188 l 0.529712,-10.1324 c -5e-6,-0.045 0.0045,-0.1426 0.01358,-0.2921 0.0091,-0.1494 0.01358,-0.2739 0.01358,-0.3735 -4e-6,-0.8149 -0.142618,-1.3446 -0.427844,-1.5891 -0.285232,-0.2445 -0.862481,-0.3667 -1.731748,-0.3667 l -0.203735,0 0.08149,-1.3039 z"
         style=""
         id="path4246" />
      <path
         d="m 112.11317,1012.7888 -1.24958,0 0,-0.1358 c -1e-5,-0.7425 -0.29656,-1.3401 -0.88964,-1.7929 -0.59311,-0.4527 -1.37409,-0.6791 -2.34296,-0.6791 -0.86928,0 -1.55971,0.1947 -2.0713,0.584 -0.51161,0.3894 -0.76741,0.9055 -0.76741,1.5484 0,0.7063 0.76966,1.6208 2.309,2.7436 0.16298,0.1178 0.28522,0.2083 0.36673,0.2717 -1e-5,0 -1e-5,0 0,0 2.99715,2.1913 4.49574,4.1743 4.49575,5.949 -10e-6,1.6933 -0.71082,3.0629 -2.13243,4.1087 -1.42163,1.0458 -3.32315,1.5688 -5.70458,1.5688 -0.69723,0 -1.42389,-0.048 -2.17997,-0.1426 -0.75608,-0.095 -1.55065,-0.2332 -2.383699,-0.4143 l 0.393888,-4.5908 1.412561,0 0,0.1358 c 0,0.9689 0.28749,1.7159 0.86248,2.2411 0.57498,0.5252 1.39219,0.7877 2.45161,0.7877 0.97793,0 1.78381,-0.2558 2.41766,-0.7674 0.63383,-0.5116 0.95076,-1.1431 0.95077,-1.8947 -10e-6,-0.5342 -0.17885,-1.0232 -0.53651,-1.4669 -0.35767,-0.4437 -1.25637,-1.1409 -2.69609,-2.0917 -1.54839,-1.0503 -2.57386,-1.94 -3.0764,-2.6689 -0.50255,-0.7289 -0.75383,-1.5733 -0.75382,-2.5331 -1e-5,-1.6027 0.61346,-2.8749 1.8404,-3.8166 1.22694,-0.9417 2.89077,-1.4126 4.99152,-1.4126 0.80587,0 1.61402,0.059 2.42444,0.1766 0.8104,0.1177 1.6095,0.2988 2.39729,0.5433 z"
         style=""
         id="path4248" />
      <path
         d="m 138.58516,1008.7277 -0.67912,3.7351 -1.35823,0 0,-0.421 c -2e-5,-0.5433 -0.21054,-0.9168 -0.63158,-1.1206 -0.42107,-0.2037 -1.37862,-0.3056 -2.87267,-0.3056 l -2.14601,0 -0.27164,5.2971 6.1528,0 -0.55688,3.1375 -1.29032,0 0,-0.1901 c -1e-5,-0.3984 -0.15847,-0.6701 -0.47538,-0.8149 -0.31694,-0.1449 -0.97341,-0.2174 -1.96944,-0.2174 l -1.96944,0 -0.20374,3.8167 c -0.009,0.1086 -0.0159,0.2331 -0.0204,0.3735 -0.005,0.1403 -0.007,0.3735 -0.007,0.6995 -1e-5,0.7696 0.24447,1.2926 0.73344,1.5687 0.48896,0.2762 1.46236,0.4143 2.92021,0.4143 1.00508,0 1.74984,-0.163 2.23429,-0.489 0.48443,-0.3259 0.79456,-0.8783 0.93039,-1.657 l 1.39899,0 -0.78778,4.1154 c -0.36221,-0.036 -1.00058,-0.063 -1.91511,-0.082 -0.91456,-0.018 -2.86136,-0.027 -5.84041,-0.027 l -1.22241,0 c -1.05943,0 -1.94454,0.016 -2.65535,0.047 -0.71081,0.032 -1.35597,0.079 -1.93548,0.1426 l 0.0815,-1.3582 0.24449,0 c 0.64289,0 1.08432,-0.163 1.32427,-0.489 0.23995,-0.3259 0.39162,-1.0322 0.45501,-2.1188 l 0.52971,-10.1324 c 0,-0.045 0.005,-0.1426 0.0136,-0.2921 0.009,-0.1494 0.0136,-0.2739 0.0136,-0.3735 -1e-5,-0.8149 -0.14262,-1.3446 -0.42785,-1.5891 -0.28523,-0.2445 -0.86248,-0.3667 -1.73174,-0.3667 l -0.20374,0 0.0815,-1.3039 z"
         style=""
         id="path4250" />
      <path
         d="m 154.05544,1012.7888 -1.24957,0 0,-0.1358 c -2e-5,-0.7425 -0.29656,-1.3401 -0.88965,-1.7929 -0.5931,-0.4527 -1.37409,-0.6791 -2.34295,-0.6791 -0.86928,0 -1.55971,0.1947 -2.07131,0.584 -0.51161,0.3894 -0.76741,0.9055 -0.7674,1.5484 -10e-6,0.7063 0.76966,1.6208 2.309,2.7436 0.16298,0.1178 0.28522,0.2083 0.36672,0.2717 -1e-5,0 -1e-5,0 0,0 2.99716,2.1913 4.49574,4.1743 4.49576,5.949 -2e-5,1.6933 -0.71083,3.0629 -2.13243,4.1087 -1.42163,1.0458 -3.32316,1.5688 -5.70459,1.5688 -0.69723,0 -1.42388,-0.048 -2.17996,-0.1426 -0.75609,-0.095 -1.55065,-0.2332 -2.3837,-0.4143 l 0.39389,-4.5908 1.41256,0 0,0.1358 c 0,0.9689 0.28749,1.7159 0.86248,2.2411 0.57498,0.5252 1.39218,0.7877 2.45161,0.7877 0.97792,0 1.78381,-0.2558 2.41766,-0.7674 0.63383,-0.5116 0.95075,-1.1431 0.95076,-1.8947 -10e-6,-0.5342 -0.17884,-1.0232 -0.5365,-1.4669 -0.35768,-0.4437 -1.25638,-1.1409 -2.6961,-2.0917 -1.54839,-1.0503 -2.57385,-1.94 -3.0764,-2.6689 -0.50255,-0.7289 -0.75382,-1.5733 -0.75382,-2.5331 0,-1.6027 0.61347,-2.8749 1.84041,-3.8166 1.22693,-0.9417 2.89077,-1.4126 4.99151,-1.4126 0.80588,0 1.61403,0.059 2.42445,0.1766 0.8104,0.1177 1.60949,0.2988 2.39728,0.5433 z"
         style=""
         id="path4252" />
      <path
         d="m 170.19128,1012.7888 -1.24958,0 0,-0.1358 c -1e-5,-0.7425 -0.29656,-1.3401 -0.88964,-1.7929 -0.59311,-0.4527 -1.37409,-0.6791 -2.34296,-0.6791 -0.86928,0 -1.55971,0.1947 -2.0713,0.584 -0.51161,0.3894 -0.76741,0.9055 -0.76741,1.5484 0,0.7063 0.76966,1.6208 2.309,2.7436 0.16298,0.1178 0.28522,0.2083 0.36672,0.2717 0,0 0,0 0,0 2.99716,2.1913 4.49575,4.1743 4.49576,5.949 -10e-6,1.6933 -0.71082,3.0629 -2.13243,4.1087 -1.42163,1.0458 -3.32315,1.5688 -5.70458,1.5688 -0.69723,0 -1.42389,-0.048 -2.17997,-0.1426 -0.75608,-0.095 -1.55065,-0.2332 -2.3837,-0.4143 l 0.39389,-4.5908 1.41256,0 0,0.1358 c 0,0.9689 0.28749,1.7159 0.86248,2.2411 0.57498,0.5252 1.39219,0.7877 2.45161,0.7877 0.97793,0 1.78381,-0.2558 2.41766,-0.7674 0.63383,-0.5116 0.95076,-1.1431 0.95077,-1.8947 -1e-5,-0.5342 -0.17885,-1.0232 -0.53651,-1.4669 -0.35767,-0.4437 -1.25637,-1.1409 -2.69609,-2.0917 -1.54839,-1.0503 -2.57386,-1.94 -3.0764,-2.6689 -0.50255,-0.7289 -0.75383,-1.5733 -0.75382,-2.5331 -1e-5,-1.6027 0.61346,-2.8749 1.8404,-3.8166 1.22694,-0.9417 2.89077,-1.4126 4.99152,-1.4126 0.80587,0 1.61402,0.059 2.42444,0.1766 0.8104,0.1177 1.6095,0.2988 2.39729,0.5433 z"
         style=""
         id="path4254" />
      <path
         d="m 188.02489,1008.7277 -0.67912,3.7351 -1.35823,0 0,-0.421 c -2e-5,-0.5433 -0.21054,-0.9168 -0.63158,-1.1206 -0.42107,-0.2037 -1.37862,-0.3056 -2.87267,-0.3056 l -2.14601,0 -0.27165,5.2971 6.15281,0 -0.55688,3.1375 -1.29032,0 0,-0.1901 c -2e-5,-0.3984 -0.15848,-0.6701 -0.47538,-0.8149 -0.31694,-0.1449 -0.97342,-0.2174 -1.96944,-0.2174 l -1.96944,0 -0.20374,3.8167 c -0.009,0.1086 -0.0159,0.2331 -0.0204,0.3735 -0.005,0.1403 -0.007,0.3735 -0.007,0.6995 -1e-5,0.7696 0.24447,1.2926 0.73344,1.5687 0.48896,0.2762 1.46236,0.4143 2.92021,0.4143 1.00508,0 1.74984,-0.163 2.23429,-0.489 0.48442,-0.3259 0.79455,-0.8783 0.93039,-1.657 l 1.39898,0 -0.78777,4.1154 c -0.36221,-0.036 -1.00058,-0.063 -1.91511,-0.082 -0.91456,-0.018 -2.86136,-0.027 -5.84041,-0.027 l -1.22241,0 c -1.05943,0 -1.94454,0.016 -2.65535,0.047 -0.71081,0.032 -1.35597,0.079 -1.93548,0.1426 l 0.0815,-1.3582 0.24448,0 c 0.6429,0 1.08432,-0.163 1.32428,-0.489 0.23995,-0.3259 0.39162,-1.0322 0.45501,-2.1188 l 0.52971,-10.1324 c 0,-0.045 0.005,-0.1426 0.0136,-0.2921 0.009,-0.1494 0.0136,-0.2739 0.0136,-0.3735 -1e-5,-0.8149 -0.14262,-1.3446 -0.42785,-1.5891 -0.28523,-0.2445 -0.86248,-0.3667 -1.73175,-0.3667 l -0.20373,0 0.0815,-1.3039 z"
         style=""
         id="path4256" />
      <path
         d="m 196.45952,1008.7277 7.80984,11.4906 c 0.20825,0.326 0.38935,0.6293 0.5433,0.91 0.15392,0.2807 0.29879,0.5705 0.43463,0.8693 l 0.29881,-0.054 c -0.0272,-0.1992 -0.0476,-0.3962 -0.0611,-0.5908 -0.0136,-0.1947 -0.0204,-0.3871 -0.0204,-0.5773 -2e-5,-0.172 0.002,-0.3101 0.007,-0.4143 0.005,-0.1041 0.0113,-0.206 0.0204,-0.3056 l 0.42106,-7.6468 c -2e-5,-0.063 0.005,-0.1472 0.0136,-0.2513 0.009,-0.1041 0.0136,-0.1788 0.0136,-0.2241 -1e-5,-0.7244 -0.16074,-1.2156 -0.48217,-1.4737 -0.32147,-0.258 -0.93041,-0.3871 -1.82683,-0.3871 l -0.16298,0 0.0543,-1.3446 6.87267,0 -0.0951,1.3446 c -0.8059,0 -1.3424,0.1494 -1.6095,0.4482 -0.26714,0.2989 -0.43239,1.1002 -0.49576,2.4041 l -0.6927,13.8268 -3.2326,0 -7.85059,-11.219 c -0.0815,-0.1267 -0.17884,-0.3124 -0.29202,-0.5569 -0.11319,-0.2444 -0.22864,-0.5161 -0.34635,-0.8149 l -0.27165,0.027 c 0.0453,0.2445 0.0792,0.455 0.10187,0.6315 0.0226,0.1766 0.0339,0.3464 0.034,0.5094 -1e-5,0.2988 -0.002,0.5229 -0.007,0.6723 -0.005,0.1494 -0.0113,0.2875 -0.0204,0.4143 l -0.32598,6.4244 c 0,0.072 -0.005,0.1766 -0.0136,0.3124 -0.009,0.1358 -0.0136,0.2354 -0.0136,0.2988 -1e-5,0.7606 0.14487,1.2745 0.43464,1.5416 0.28975,0.2671 0.83757,0.4007 1.64346,0.4007 l 0.28523,0 -0.0951,1.2767 c -0.58857,-0.036 -1.17488,-0.063 -1.75891,-0.082 -0.58405,-0.018 -1.16583,-0.027 -1.74533,-0.027 -0.28976,0 -0.66554,0.01 -1.12734,0.027 -0.4618,0.018 -1.15903,0.054 -2.09168,0.1087 l 0.0543,-1.3039 0.24448,0 c 0.67006,0 1.1296,-0.1811 1.37861,-0.5433 0.24901,-0.3622 0.41426,-1.1635 0.49576,-2.4041 l 0.55687,-10.0645 0,-0.3939 c 0,-0.6791 -0.15393,-1.1477 -0.4618,-1.4057 -0.30787,-0.2581 -1.00962,-0.4324 -2.10526,-0.523 l 0.0543,-1.331 z"
         style=""
         id="path4258" />
    </g>
    <path
       inkscape:connector-curvature="0"
       id="path4199"
       style="font-size:17.98892975px;font-style:normal;font-variant:normal;font-weight:bold;font-stretch:normal;text-align:start;line-height:125%;letter-spacing:0px;word-spacing:0px;writing-mode:lr-tb;text-anchor:start;fill:#614726;fill-opacity:1;stroke:none;font-family:Mirarae BT;-inkscape-font-specification:Mirarae BT Bold"
       d="m 8.5313699,1041.9135 -0.9310677,0 0,-0.088 c -6.6e-6,-0.3982 -0.1581123,-0.7173 -0.4743175,-0.9574 -0.3162174,-0.2401 -0.7349047,-0.3601 -1.2560629,-0.3601 -0.4567546,0 -0.8198121,0.098 -1.0891735,0.2942 -0.269369,0.1962 -0.4040516,0.4582 -0.4040482,0.7862 -3.4e-6,0.3923 0.5972847,0.8754 1.791866,1.4493 0.1229659,0.058 0.2137303,0.1024 0.2722934,0.1317 0.7319652,0.3514 1.2692317,0.7291 1.6118011,1.1331 0.3425552,0.4041 0.5138363,0.8608 0.5138439,1.3703 -7.6e-6,0.8666 -0.3791684,1.5635 -1.1374836,2.0905 -0.7583281,0.527 -1.7816231,0.7905 -3.0698882,0.7905 -0.4508973,0 -0.8973994,-0.032 -1.3395077,-0.097 -0.4421123,-0.064 -0.8827586,-0.1581 -1.3219404,-0.2811 l 0.2108078,-2.2486 0.9398513,0 c -1.8e-6,0.445 0.1742072,0.8081 0.5226276,1.0892 0.3484157,0.281 0.7978457,0.4216 1.3482914,0.4216 0.4684575,0 0.8490823,-0.1069 1.1418754,-0.3206 0.2927834,-0.2138 0.4391776,-0.4904 0.4391829,-0.8301 -5.3e-6,-0.2693 -0.1010173,-0.505 -0.3030362,-0.7071 -0.2020289,-0.202 -0.6514589,-0.4699 -1.3482914,-0.8037 -0.9662049,-0.4684 -1.6044834,-0.8783 -1.9148372,-1.2297 -0.3103573,-0.3513 -0.4655351,-0.7817 -0.4655338,-1.2912 -1.3e-6,-0.8256 0.3762316,-1.5152 1.1286999,-2.0685 0.7524635,-0.5534 1.714273,-0.8301 2.8854314,-0.8301 0.4098983,0 0.8227297,0.031 1.2384956,0.092 0.4157528,0.062 0.8432237,0.1508 1.2824139,0.2679 z" />
    <path
       inkscape:connector-curvature="0"
       id="path4201"
       style="font-size:17.98892975px;font-style:normal;font-variant:normal;font-weight:bold;font-stretch:normal;text-align:start;line-height:125%;letter-spacing:0px;word-spacing:0px;writing-mode:lr-tb;text-anchor:start;fill:#614726;fill-opacity:1;stroke:none;font-family:Mirarae BT;-inkscape-font-specification:Mirarae BT Bold"
       d="m 17.173987,1037.4865 -0.219591,2.3628 c 0.09369,-0.012 0.194699,-0.022 0.303036,-0.031 0.108327,-0.01 0.168348,-0.013 0.180065,-0.013 l 2.433073,-0.035 -0.289861,1.3527 -1.853351,0 c -0.1464,0 -0.292794,0 -0.439183,-0.013 -0.146399,-0.01 -0.292794,-0.022 -0.439183,-0.039 l -0.307428,4.3919 c -4e-6,0.01 -0.0029,0.026 -0.0088,0.061 -0.0059,0.1113 -0.0088,0.2079 -0.0088,0.2899 -5e-6,0.5036 0.09076,0.8579 0.272293,1.0628 0.181524,0.205 0.49188,0.3074 0.931068,0.3074 0.263504,0 0.550436,-0.04 0.860798,-0.1185 0.310349,-0.079 0.629489,-0.1947 0.957419,-0.347 l -0.272294,1.4054 c -0.427478,0.1405 -0.876908,0.2474 -1.348291,0.3206 -0.471395,0.073 -0.973527,0.1098 -1.506397,0.1098 -0.819812,0 -1.418564,-0.183 -1.796258,-0.549 -0.377699,-0.366 -0.566548,-0.9442 -0.566546,-1.7348 -2e-6,-0.2225 0.0029,-0.4011 0.0088,-0.5358 0.0059,-0.1346 0.01464,-0.2635 0.02635,-0.3864 l 0.324995,-4.2777 c -0.09955,0.018 -0.200562,0.031 -0.303036,0.039 -0.102478,0.01 -0.20349,0.013 -0.303036,0.013 l -1.229712,0 0.114187,-1.3 0.193241,0 c 0.866652,10e-5 1.516642,-0.1815 1.949972,-0.5445 0.433324,-0.3631 0.708545,-0.9604 0.825663,-1.7919 z" />
    <path
       inkscape:connector-curvature="0"
       id="path4203"
       style="font-size:17.98892975px;font-style:normal;font-variant:normal;font-weight:bold;font-stretch:normal;text-align:start;line-height:125%;letter-spacing:0px;word-spacing:0px;writing-mode:lr-tb;text-anchor:start;fill:#614726;fill-opacity:1;stroke:none;font-family:Mirarae BT;-inkscape-font-specification:Mirarae BT Bold"
       d="m 30.094247,1042.4756 c -8e-6,-0.5914 -0.136154,-1.0452 -0.40844,-1.3615 -0.2723,-0.3162 -0.663173,-0.4743 -1.172619,-0.4743 -0.708553,0 -1.289738,0.3572 -1.743556,1.0716 -0.453825,0.7144 -0.680736,1.6338 -0.680733,2.7581 -3e-6,0.7085 0.118576,1.2575 0.355738,1.6469 0.237155,0.3894 0.572398,0.5841 1.005729,0.5841 0.632418,0 1.23117,-0.4508 1.796258,-1.3526 0.565075,-0.9018 0.847615,-1.8592 0.847623,-2.8723 z m 2.916174,-2.6087 c -0.187395,0.65 -0.332325,1.2502 -0.434791,1.8006 -0.102486,0.5505 -0.162507,1.0482 -0.180065,1.4932 l -0.105404,2.6966 0,0.3338 c -10e-6,0.486 0.07026,0.8213 0.210808,1.0057 0.140528,0.1845 0.389398,0.2767 0.746611,0.2767 l 0.158105,0 -0.0527,0.8784 c -0.439193,-0.029 -0.803714,-0.051 -1.093565,-0.066 -0.28987,-0.015 -0.543132,-0.022 -0.759786,-0.022 -0.222528,0 -0.467006,0.01 -0.733436,0.018 -0.266445,0.012 -0.548986,0.029 -0.847623,0.053 l 0.395265,-2.2486 -0.307428,-0.088 c -0.568016,0.8198 -1.187264,1.4507 -1.857743,1.8928 -0.670491,0.4421 -1.339512,0.6632 -2.007066,0.6632 -0.802243,0 -1.422954,-0.2606 -1.862135,-0.7817 -0.439184,-0.5212 -0.658775,-1.262 -0.658775,-2.2223 0,-0.855 0.165425,-1.6777 0.496277,-2.4682 0.330849,-0.7905 0.800775,-1.4903 1.409777,-2.0993 0.550439,-0.5504 1.114057,-0.9501 1.690854,-1.199 0.576788,-0.2488 1.23117,-0.3733 1.963147,-0.3733 0.339628,0 0.686582,0.048 1.040864,0.1449 0.354266,0.097 0.727571,0.2416 1.119916,0.4348 l 1.168226,-0.5973 z" />
    <path
       inkscape:connector-curvature="0"
       id="path4205"
       style="font-size:17.98892975px;font-style:normal;font-variant:normal;font-weight:bold;font-stretch:normal;text-align:start;line-height:125%;letter-spacing:0px;word-spacing:0px;writing-mode:lr-tb;text-anchor:start;fill:#614726;fill-opacity:1;stroke:none;font-family:Mirarae BT;-inkscape-font-specification:Mirarae BT Bold"
       d="m 44.7361,1042.3966 -0.843231,0 c 0.0058,-0.041 0.01024,-0.082 0.01318,-0.123 0.0029,-0.041 0.0044,-0.082 0.0044,-0.123 -7e-6,-0.2225 -0.07174,-0.4011 -0.215199,-0.5358 -0.143474,-0.1347 -0.33525,-0.202 -0.57533,-0.202 -0.556304,0 -1.071612,0.3572 -1.545923,1.0716 -0.474323,0.7144 -0.734904,1.5401 -0.781746,2.477 l -0.07027,1.1067 0,0.3075 c -4e-6,0.4508 0.0893,0.748 0.267901,0.8915 0.178597,0.1435 0.581181,0.2298 1.207753,0.2591 l -0.0527,0.8081 c -0.456755,-0.023 -0.898865,-0.041 -1.326332,-0.053 -0.427475,-0.012 -0.843235,-0.018 -1.247279,-0.018 -0.327926,0 -0.692448,0.01 -1.093566,0.018 -0.401122,0.012 -0.821273,0.029 -1.260454,0.053 l 0.0527,-0.7993 c 0.380624,-0.059 0.641205,-0.1918 0.781745,-0.3997 0.140537,-0.2078 0.228373,-0.6719 0.26351,-1.3922 l 0.210808,-3.9878 0,-0.2722 c -2e-6,-0.4217 -0.06588,-0.6954 -0.197633,-0.8213 -0.131756,-0.1259 -0.399658,-0.1889 -0.803704,-0.1889 l -0.114188,0 0.04392,-0.8081 3.346574,0 -0.439183,2.8284 0.219591,0.088 c 0.527015,-1.095 1.09356,-1.9031 1.699638,-2.4243 0.606066,-0.5211 1.286799,-0.7817 2.0422,-0.7817 0.152242,0 0.308884,0.012 0.469926,0.035 0.161025,0.023 0.329378,0.062 0.50506,0.1142 z" />
    <path
       inkscape:connector-curvature="0"
       id="path4207"
       style="font-size:17.98892975px;font-style:normal;font-variant:normal;font-weight:bold;font-stretch:normal;text-align:start;line-height:125%;letter-spacing:0px;word-spacing:0px;writing-mode:lr-tb;text-anchor:start;fill:#614726;fill-opacity:1;stroke:none;font-family:Mirarae BT;-inkscape-font-specification:Mirarae BT Bold"
       d="m 52.315896,1035.6331 c -0.04685,0.3455 -0.08784,0.8111 -0.122972,1.3966 -0.01172,0.1757 -0.0205,0.3046 -0.02635,0.3865 l -0.307428,5.4371 0.632424,0 1.545923,-1.2473 c 0.251792,-0.1991 0.428929,-0.3645 0.531412,-0.4963 0.102469,-0.1317 0.153706,-0.2532 0.153714,-0.3645 -8e-6,-0.094 -0.03075,-0.1727 -0.09223,-0.2371 -0.06149,-0.064 -0.150793,-0.1084 -0.267901,-0.1318 l 0.0527,-0.7115 3.056712,0 0,0.088 c -10e-6,0.4216 -0.225457,0.8622 -0.676341,1.3219 -0.450903,0.4597 -1.335124,1.1112 -2.652665,1.9544 0.245936,0.1464 0.527013,0.445 0.843231,0.8959 0.01756,0.023 0.0322,0.044 0.04392,0.062 l 2.011457,2.8723 c 0.152241,0.2225 0.322058,0.3894 0.509452,0.5006 0.187375,0.1113 0.389399,0.1669 0.606072,0.1669 l 0.0527,0 -0.0527,0.7905 c -0.30451,-0.018 -0.579731,-0.031 -0.825663,-0.04 -0.245952,-0.01 -0.468471,-0.013 -0.667558,-0.013 -0.169826,0 -0.370386,0 -0.601681,0.013 -0.231311,0.01 -0.490429,0.022 -0.777353,0.04 -0.491892,-0.6558 -0.972065,-1.3541 -1.44052,-2.0949 -0.468468,-0.7407 -0.919362,-1.5181 -1.352683,-2.332 l -0.685126,0 -0.105403,2.4155 c -5e-6,0.018 -0.0029,0.059 -0.0088,0.123 -0.0059,0.064 -0.0088,0.12 -0.0088,0.1668 -4e-6,0.3338 0.06148,0.5695 0.184457,0.7071 0.122967,0.1376 0.336702,0.2123 0.641207,0.224 l -0.0527,0.8081 c -0.398197,-0.023 -0.768574,-0.041 -1.111133,-0.053 -0.342566,-0.012 -0.636818,-0.018 -0.882757,-0.018 -0.386484,0 -0.768572,0.01 -1.146267,0.018 -0.377699,0.012 -0.759788,0.029 -1.146268,0.053 l 0.06149,-0.8081 c 0.398191,-0.035 0.663165,-0.1361 0.794921,-0.303 0.131753,-0.1669 0.21227,-0.5197 0.24155,-1.0585 l 0.439183,-8.2478 0,-0.2635 c -2e-6,-0.486 -0.08052,-0.8052 -0.24155,-0.9574 -0.161036,-0.1523 -0.472855,-0.2284 -0.93546,-0.2284 l 0.04392,-0.8345 z" />
    <path
       inkscape:connector-curvature="0"
       id="path4209"
       style="font-size:17.98892975px;font-style:normal;font-variant:normal;font-weight:bold;font-stretch:normal;text-align:start;line-height:125%;letter-spacing:0px;word-spacing:0px;writing-mode:lr-tb;text-anchor:start;fill:#614726;fill-opacity:1;stroke:none;font-family:Mirarae BT;-inkscape-font-specification:Mirarae BT Bold"
       d="m 69.02191,1043.8898 -4.87493,0 c -0.05271,0 -0.105408,0 -0.158106,-0.01 -0.05271,-0.01 -0.125902,-0.018 -0.219591,-0.035 -4e-6,0.047 -0.0029,0.1127 -0.0088,0.1976 -0.0059,0.085 -0.0088,0.1479 -0.0088,0.1888 -3e-6,0.9545 0.196165,1.6704 0.588505,2.1476 0.392333,0.4773 0.980837,0.7159 1.765515,0.7159 0.509446,0 1.055497,-0.094 1.638152,-0.2811 0.582642,-0.1873 1.18725,-0.4655 1.813826,-0.8344 l -0.158106,1.3878 c -0.77297,0.3806 -1.556179,0.6705 -2.349628,0.8696 -0.793463,0.1991 -1.56496,0.2986 -2.314494,0.2986 -1.147734,0 -2.01878,-0.2928 -2.613138,-0.8783 -0.594362,-0.5856 -0.891542,-1.4435 -0.891541,-2.5736 -10e-7,-0.8374 0.174208,-1.6455 0.522627,-2.4243 0.348417,-0.7788 0.838837,-1.4581 1.471263,-2.0378 0.445035,-0.4217 0.926672,-0.7349 1.444912,-0.9399 0.518231,-0.2049 1.081848,-0.3074 1.690853,-0.3074 1.065744,0 1.87384,0.2957 2.42429,0.8871 0.550434,0.5915 0.825654,1.461 0.825664,2.6088 -1e-5,0.01 -1e-5,0.023 0,0.053 -0.01172,0.1112 -0.01758,0.2137 -0.01757,0.3074 z m -2.450641,-1.0541 c 0.06441,0 0.131749,0 0.202024,0 0.07026,0 0.1581,0.013 0.26351,0.031 0.0058,-0.1054 0.0117,-0.2284 0.01757,-0.3689 0.0058,-0.1406 0.0088,-0.2284 0.0088,-0.2636 -7e-6,-0.5738 -0.09224,-1.0057 -0.276685,-1.2955 -0.184463,-0.2899 -0.45822,-0.4348 -0.821272,-0.4348 -0.486034,0 -0.913505,0.2093 -1.282414,0.628 -0.368917,0.4187 -0.632427,0.997 -0.790529,1.7348 0.04099,-0.01 0.09662,-0.012 0.166889,-0.018 0.122968,-0.012 0.210804,-0.018 0.26351,-0.018 z" />
    <path
       inkscape:connector-curvature="0"
       id="path4211"
       style="font-size:17.98892975px;font-style:normal;font-variant:normal;font-weight:bold;font-stretch:normal;text-align:start;line-height:125%;letter-spacing:0px;word-spacing:0px;writing-mode:lr-tb;text-anchor:start;fill:#614726;fill-opacity:1;stroke:none;font-family:Mirarae BT;-inkscape-font-specification:Mirarae BT Bold"
       d="m 80.273275,1041.9135 -0.931068,0 0,-0.088 c -6e-6,-0.3982 -0.158112,-0.7173 -0.474317,-0.9574 -0.316218,-0.2401 -0.734905,-0.3601 -1.256063,-0.3601 -0.456755,0 -0.819812,0.098 -1.089173,0.2942 -0.269369,0.1962 -0.404052,0.4582 -0.404049,0.7862 -3e-6,0.3923 0.597285,0.8754 1.791866,1.4493 0.122966,0.058 0.213731,0.1024 0.272294,0.1317 0.731965,0.3514 1.269231,0.7291 1.611801,1.1331 0.342555,0.4041 0.513836,0.8608 0.513844,1.3703 -8e-6,0.8666 -0.379169,1.5635 -1.137484,2.0905 -0.758328,0.527 -1.781623,0.7905 -3.069888,0.7905 -0.450897,0 -0.897399,-0.032 -1.339508,-0.097 -0.442112,-0.064 -0.882758,-0.1581 -1.32194,-0.2811 l 0.210808,-2.2486 0.939851,0 c -2e-6,0.445 0.174207,0.8081 0.522628,1.0892 0.348415,0.281 0.797845,0.4216 1.348291,0.4216 0.468457,0 0.849082,-0.1069 1.141875,-0.3206 0.292784,-0.2138 0.439178,-0.4904 0.439183,-0.8301 -5e-6,-0.2693 -0.101017,-0.505 -0.303036,-0.7071 -0.202029,-0.202 -0.651459,-0.4699 -1.348291,-0.8037 -0.966205,-0.4684 -1.604484,-0.8783 -1.914838,-1.2297 -0.310357,-0.3513 -0.465535,-0.7817 -0.465533,-1.2912 -2e-6,-0.8256 0.376231,-1.5152 1.1287,-2.0685 0.752463,-0.5534 1.714272,-0.8301 2.885431,-0.8301 0.409898,0 0.82273,0.031 1.238496,0.092 0.415752,0.062 0.843223,0.1508 1.282413,0.2679 z" />
    <path
       inkscape:connector-curvature="0"
       id="path4213"
       style="font-size:17.98892975px;font-style:normal;font-variant:normal;font-weight:bold;font-stretch:normal;text-align:start;line-height:125%;letter-spacing:0px;word-spacing:0px;writing-mode:lr-tb;text-anchor:start;fill:#614726;fill-opacity:1;stroke:none;font-family:Mirarae BT;-inkscape-font-specification:Mirarae BT Bold"
       d="m 90.330064,1042.7216 -0.175673,1.5986 -5.472218,0 0.184457,-1.5986 z" />
    <path
       inkscape:connector-curvature="0"
       id="path4215"
       style="font-size:17.98892975px;font-style:normal;font-variant:normal;font-weight:bold;font-stretch:normal;text-align:start;line-height:125%;letter-spacing:0px;word-spacing:0px;writing-mode:lr-tb;text-anchor:start;fill:#614726;fill-opacity:1;stroke:none;font-family:Mirarae BT;-inkscape-font-specification:Mirarae BT Bold"
       d="m 101.70439,1042.0979 -0.9662,-0.01 c -1e-5,-0.023 0.003,-0.056 0.009,-0.097 0.006,-0.041 0.009,-0.097 0.009,-0.1669 -1e-5,-0.3806 -0.13762,-0.6822 -0.41283,-0.9047 -0.27523,-0.2225 -0.641217,-0.3338 -1.097961,-0.3338 -0.767111,0 -1.376111,0.3192 -1.827001,0.9574 -0.450898,0.6383 -0.676345,1.505 -0.676341,2.6 -4e-6,0.9604 0.20934,1.6923 0.628031,2.1959 0.418684,0.5036 1.023291,0.7554 1.813825,0.7554 0.404042,0 0.852007,-0.067 1.343897,-0.202 0.49188,-0.1347 1.01012,-0.3309 1.55471,-0.5885 l -0.19324,1.379 c -0.57973,0.2752 -1.21362,0.486 -1.901662,0.6324 -0.688059,0.1464 -1.392215,0.2196 -2.11247,0.2196 -1.188724,0 -2.10076,-0.2913 -2.736109,-0.8739 -0.635352,-0.5827 -0.953027,-1.4127 -0.953026,-2.4902 -10e-7,-1.6572 0.522626,-3.0348 1.567882,-4.1327 1.045252,-1.098 2.370119,-1.6469 3.974605,-1.647 0.41575,10e-5 0.83444,0.029 1.25606,0.088 0.42161,0.059 0.84323,0.1435 1.26485,0.2547 z" />
    <path
       inkscape:connector-curvature="0"
       id="path4217"
       style="font-size:17.98892975px;font-style:normal;font-variant:normal;font-weight:bold;font-stretch:normal;text-align:start;line-height:125%;letter-spacing:0px;word-spacing:0px;writing-mode:lr-tb;text-anchor:start;fill:#614726;fill-opacity:1;stroke:none;font-family:Mirarae BT;-inkscape-font-specification:Mirarae BT Bold"
       d="m 112.58685,1042.4756 c -1e-5,-0.5914 -0.13616,-1.0452 -0.40844,-1.3615 -0.2723,-0.3162 -0.66318,-0.4743 -1.17262,-0.4743 -0.70856,0 -1.28974,0.3572 -1.74356,1.0716 -0.45382,0.7144 -0.68073,1.6338 -0.68073,2.7581 0,0.7085 0.11857,1.2575 0.35574,1.6469 0.23715,0.3894 0.57239,0.5841 1.00573,0.5841 0.63241,0 1.23117,-0.4508 1.79625,-1.3526 0.56508,-0.9018 0.84762,-1.8592 0.84763,-2.8723 z m 2.91617,-2.6087 c -0.18739,0.65 -0.33232,1.2502 -0.43479,1.8006 -0.10249,0.5505 -0.16251,1.0482 -0.18007,1.4932 l -0.1054,2.6966 0,0.3338 c -1e-5,0.486 0.0703,0.8213 0.21081,1.0057 0.14053,0.1845 0.3894,0.2767 0.74661,0.2767 l 0.1581,0 -0.0527,0.8784 c -0.43919,-0.029 -0.80371,-0.051 -1.09356,-0.066 -0.28987,-0.015 -0.54313,-0.022 -0.75979,-0.022 -0.22253,0 -0.467,0.01 -0.73343,0.018 -0.26645,0.012 -0.54899,0.029 -0.84763,0.053 l 0.39527,-2.2486 -0.30743,-0.088 c -0.56802,0.8198 -1.18726,1.4507 -1.85774,1.8928 -0.67049,0.4421 -1.33952,0.6632 -2.00707,0.6632 -0.80224,0 -1.42295,-0.2606 -1.86213,-0.7817 -0.43919,-0.5212 -0.65878,-1.262 -0.65878,-2.2223 0,-0.855 0.16543,-1.6777 0.49628,-2.4682 0.33085,-0.7905 0.80077,-1.4903 1.40977,-2.0993 0.55044,-0.5504 1.11406,-0.9501 1.69086,-1.199 0.57679,-0.2488 1.23117,-0.3733 1.96315,-0.3733 0.33962,0 0.68658,0.048 1.04086,0.1449 0.35427,0.097 0.72757,0.2416 1.11992,0.4348 l 1.16822,-0.5973 z" />
    <path
       inkscape:connector-curvature="0"
       id="path4219"
       style="font-size:17.98892975px;font-style:normal;font-variant:normal;font-weight:bold;font-stretch:normal;text-align:start;line-height:125%;letter-spacing:0px;word-spacing:0px;writing-mode:lr-tb;text-anchor:start;fill:#614726;fill-opacity:1;stroke:none;font-family:Mirarae BT;-inkscape-font-specification:Mirarae BT Bold"
       d="m 124.08415,1037.4865 -0.21959,2.3628 c 0.0937,-0.012 0.1947,-0.022 0.30304,-0.031 0.10833,-0.01 0.16835,-0.013 0.18006,-0.013 l 2.43308,-0.035 -0.28986,1.3527 -1.85336,0 c -0.1464,0 -0.29279,0 -0.43918,-0.013 -0.1464,-0.01 -0.29279,-0.022 -0.43918,-0.039 l -0.30743,4.3919 c 0,0.01 -0.003,0.026 -0.009,0.061 -0.006,0.1113 -0.009,0.2079 -0.009,0.2899 0,0.5036 0.0908,0.8579 0.2723,1.0628 0.18152,0.205 0.49188,0.3074 0.93106,0.3074 0.26351,0 0.55044,-0.04 0.8608,-0.1185 0.31035,-0.079 0.62949,-0.1947 0.95742,-0.347 l -0.27229,1.4054 c -0.42748,0.1405 -0.87691,0.2474 -1.34829,0.3206 -0.4714,0.073 -0.97353,0.1098 -1.5064,0.1098 -0.81981,0 -1.41856,-0.183 -1.79626,-0.549 -0.3777,-0.366 -0.56655,-0.9442 -0.56654,-1.7348 -1e-5,-0.2225 0.003,-0.4011 0.009,-0.5358 0.006,-0.1346 0.0146,-0.2635 0.0264,-0.3864 l 0.325,-4.2777 c -0.0995,0.018 -0.20057,0.031 -0.30304,0.039 -0.10248,0.01 -0.20349,0.013 -0.30304,0.013 l -1.22971,0 0.11419,-1.3 0.19324,0 c 0.86665,10e-5 1.51664,-0.1815 1.94997,-0.5445 0.43333,-0.3631 0.70855,-0.9604 0.82567,-1.7919 z" />
    <path
       inkscape:connector-curvature="0"
       id="path4221"
       style="font-size:17.98892975px;font-style:normal;font-variant:normal;font-weight:bold;font-stretch:normal;text-align:start;line-height:125%;letter-spacing:0px;word-spacing:0px;writing-mode:lr-tb;text-anchor:start;fill:#614726;fill-opacity:1;stroke:none;font-family:Mirarae BT;-inkscape-font-specification:Mirarae BT Bold"
       d="m 138.3044,1043.8898 -4.87493,0 c -0.0527,0 -0.10541,0 -0.15811,-0.01 -0.0527,-0.01 -0.1259,-0.018 -0.21959,-0.035 0,0.047 -0.003,0.1127 -0.009,0.1976 -0.006,0.085 -0.009,0.1479 -0.009,0.1888 -1e-5,0.9545 0.19616,1.6704 0.5885,2.1476 0.39233,0.4773 0.98084,0.7159 1.76552,0.7159 0.50944,0 1.05549,-0.094 1.63815,-0.2811 0.58264,-0.1873 1.18725,-0.4655 1.81382,-0.8344 l -0.1581,1.3878 c -0.77297,0.3806 -1.55618,0.6705 -2.34963,0.8696 -0.79346,0.1991 -1.56496,0.2986 -2.3145,0.2986 -1.14773,0 -2.01877,-0.2928 -2.61313,-0.8783 -0.59437,-0.5856 -0.89155,-1.4435 -0.89154,-2.5736 -1e-5,-0.8374 0.1742,-1.6455 0.52262,-2.4243 0.34842,-0.7788 0.83884,-1.4581 1.47127,-2.0378 0.44503,-0.4217 0.92667,-0.7349 1.44491,-0.9399 0.51823,-0.2049 1.08185,-0.3074 1.69085,-0.3074 1.06574,0 1.87384,0.2957 2.42429,0.8871 0.55043,0.5915 0.82566,1.461 0.82566,2.6088 0,0.01 0,0.023 0,0.053 -0.0117,0.1112 -0.0176,0.2137 -0.0176,0.3074 z m -2.45064,-1.0541 c 0.0644,0 0.13175,0 0.20202,0 0.0703,0 0.1581,0.013 0.26351,0.031 0.006,-0.1054 0.0117,-0.2284 0.0176,-0.3689 0.006,-0.1406 0.009,-0.2284 0.009,-0.2636 0,-0.5738 -0.0922,-1.0057 -0.27668,-1.2955 -0.18446,-0.2899 -0.45822,-0.4348 -0.82127,-0.4348 -0.48604,0 -0.91351,0.2093 -1.28242,0.628 -0.36891,0.4187 -0.63242,0.997 -0.79053,1.7348 0.041,-0.01 0.0966,-0.012 0.16689,-0.018 0.12297,-0.012 0.21081,-0.018 0.26351,-0.018 z" />
    <path
       inkscape:connector-curvature="0"
       id="path4223"
       style="font-size:17.98892975px;font-style:normal;font-variant:normal;font-weight:bold;font-stretch:normal;text-align:start;line-height:125%;letter-spacing:0px;word-spacing:0px;writing-mode:lr-tb;text-anchor:start;fill:#614726;fill-opacity:1;stroke:none;font-family:Mirarae BT;-inkscape-font-specification:Mirarae BT Bold"
       d="m 150.27601,1042.3966 -0.84323,0 c 0.006,-0.041 0.0102,-0.082 0.0132,-0.123 0.003,-0.041 0.004,-0.082 0.004,-0.123 -1e-5,-0.2225 -0.0717,-0.4011 -0.2152,-0.5358 -0.14347,-0.1347 -0.33525,-0.202 -0.57533,-0.202 -0.5563,0 -1.07161,0.3572 -1.54592,1.0716 -0.47433,0.7144 -0.73491,1.5401 -0.78175,2.477 l -0.0703,1.1067 0,0.3075 c 0,0.4508 0.0893,0.748 0.2679,0.8915 0.1786,0.1435 0.58118,0.2298 1.20776,0.2591 l -0.0527,0.8081 c -0.45675,-0.023 -0.89886,-0.041 -1.32633,-0.053 -0.42747,-0.012 -0.84323,-0.018 -1.24728,-0.018 -0.32792,0 -0.69244,0.01 -1.09356,0.018 -0.40112,0.012 -0.82128,0.029 -1.26046,0.053 l 0.0527,-0.7993 c 0.38063,-0.059 0.64121,-0.1918 0.78175,-0.3997 0.14054,-0.2078 0.22837,-0.6719 0.26351,-1.3922 l 0.21081,-3.9878 0,-0.2722 c 0,-0.4217 -0.0659,-0.6954 -0.19763,-0.8213 -0.13176,-0.1259 -0.39966,-0.1889 -0.80371,-0.1889 l -0.11419,0 0.0439,-0.8081 3.34657,0 -0.43918,2.8284 0.21959,0.088 c 0.52702,-1.095 1.09356,-1.9031 1.69964,-2.4243 0.60607,-0.5211 1.2868,-0.7817 2.0422,-0.7817 0.15224,0 0.30889,0.012 0.46993,0.035 0.16102,0.023 0.32938,0.062 0.50506,0.1142 z" />
    <path
       inkscape:connector-curvature="0"
       id="path4225"
       style="font-size:17.98892975px;font-style:normal;font-variant:normal;font-weight:bold;font-stretch:normal;text-align:start;line-height:125%;letter-spacing:0px;word-spacing:0px;writing-mode:lr-tb;text-anchor:start;fill:#614726;fill-opacity:1;stroke:none;font-family:Mirarae BT;-inkscape-font-specification:Mirarae BT Bold"
       d="m 157.77676,1039.6648 -0.009,0.07 c -0.0995,0.6441 -0.15518,1.0892 -0.16689,1.3351 l -0.27229,5.1472 0,0.246 c 0,0.3806 0.0688,0.6471 0.20642,0.7993 0.1376,0.1523 0.37622,0.2284 0.71586,0.2284 l 0.19324,0 -0.0527,0.8608 c -0.63828,-0.035 -1.12577,-0.059 -1.46248,-0.07 -0.33671,-0.012 -0.61632,-0.018 -0.83884,-0.018 -0.18738,0 -0.43772,0.01 -0.751,0.018 -0.31328,0.012 -0.80663,0.035 -1.48005,0.07 l 0.0351,-0.8608 c 0.39233,-0.035 0.65292,-0.1303 0.78174,-0.2855 0.12883,-0.1552 0.21081,-0.5607 0.24595,-1.2165 l 0.2108,-4.2952 0,-0.246 c 0,-0.3689 -0.0703,-0.6236 -0.2108,-0.7642 -0.14054,-0.1405 -0.3982,-0.2108 -0.77296,-0.2108 l -0.0966,0 0.0351,-0.8081 z m 0.21959,-4.0317 -0.12297,2.1433 -2.59118,0 0.12297,-2.1433 z" />
    <path
       inkscape:connector-curvature="0"
       id="path4227"
       style="font-size:17.98892975px;font-style:normal;font-variant:normal;font-weight:bold;font-stretch:normal;text-align:start;line-height:125%;letter-spacing:0px;word-spacing:0px;writing-mode:lr-tb;text-anchor:start;fill:#614726;fill-opacity:1;stroke:none;font-family:Mirarae BT;-inkscape-font-specification:Mirarae BT Bold"
       d="m 171.59295,1046.1208 c -0.006,0.088 -0.0103,0.1684 -0.0132,0.2416 -0.003,0.073 -0.004,0.1361 -0.004,0.1888 -1e-5,0.3338 0.0805,0.5739 0.24155,0.7203 0.16102,0.1464 0.42014,0.2196 0.77735,0.2196 l 0.14933,0 -0.0439,0.8608 c -0.55631,-0.029 -1.0116,-0.051 -1.36586,-0.066 -0.35429,-0.015 -0.65147,-0.022 -0.89154,-0.022 -0.2401,0 -0.53142,0.01 -0.87398,0.022 -0.34257,0.015 -0.78907,0.037 -1.3395,0.066 l 0.0351,-0.8608 c 0.55044,-0.012 0.84908,-0.5212 0.89593,-1.5284 l 0,0 0.16689,-2.9864 0,-0.3953 c -1e-5,-0.4684 -0.0805,-0.8081 -0.24155,-1.0189 -0.16104,-0.2108 -0.41723,-0.3162 -0.76857,-0.3162 -0.59729,0 -1.14627,0.3484 -1.64693,1.0453 -0.50068,0.6968 -0.78029,1.5488 -0.83884,2.556 l -0.0703,1.3702 c -1e-5,0.035 -0.003,0.1113 -0.009,0.2284 -0.006,0.1171 -0.009,0.2196 -0.009,0.3074 0,0.2636 0.0585,0.4495 0.17567,0.5578 0.11711,0.1083 0.32207,0.1684 0.61486,0.1801 l -0.0351,0.8608 c -0.51531,-0.029 -0.94717,-0.051 -1.29558,-0.066 -0.34843,-0.015 -0.64268,-0.022 -0.88276,-0.022 -0.18739,0 -0.42894,0.01 -0.72465,0.018 -0.29572,0.012 -0.73051,0.035 -1.30438,0.07 l 0.0351,-0.8608 c 0.39233,-0.035 0.65291,-0.1303 0.78174,-0.2855 0.12883,-0.1552 0.21081,-0.5607 0.24595,-1.2165 l 0.2108,-4.2952 0,-0.246 c 0,-0.3689 -0.0703,-0.6236 -0.2108,-0.7642 -0.14054,-0.1405 -0.3982,-0.2108 -0.77297,-0.2108 l -0.0966,0 0.0351,-0.8081 3.329,0 -0.37769,2.2838 0.25472,0.1054 c 0.54459,-0.8784 1.13163,-1.5415 1.76113,-1.9895 0.62949,-0.448 1.29558,-0.6719 1.99828,-0.672 0.72025,10e-5 1.28387,0.2226 1.69085,0.6676 0.40697,0.445 0.61046,1.0628 0.61047,1.8534 -1e-5,0.1288 -0.003,0.2737 -0.009,0.4347 -0.006,0.1611 -0.0146,0.3294 -0.0264,0.5051 z" />
    <path
       inkscape:connector-curvature="0"
       id="path4229"
       style="font-size:17.98892975px;font-style:normal;font-variant:normal;font-weight:bold;font-stretch:normal;text-align:start;line-height:125%;letter-spacing:0px;word-spacing:0px;writing-mode:lr-tb;text-anchor:start;fill:#614726;fill-opacity:1;stroke:none;font-family:Mirarae BT;-inkscape-font-specification:Mirarae BT Bold"
       d="m 182.97607,1042.3614 c -1e-5,-0.5446 -0.14055,-0.9676 -0.42162,-1.2692 -0.28108,-0.3016 -0.67927,-0.4524 -1.19457,-0.4524 -0.7027,0 -1.28096,0.3455 -1.73478,1.0365 -0.45382,0.691 -0.68073,1.5664 -0.68073,2.6263 0,0.6793 0.1215,1.2092 0.36452,1.5899 0.24301,0.3806 0.57826,0.5709 1.00573,0.5709 0.63242,0 1.2341,-0.4363 1.80504,-1.3088 0.57093,-0.8725 0.8564,-1.8035 0.85641,-2.7932 z m 2.96888,-2.5385 c -0.1874,0.5388 -0.33526,1.0834 -0.44358,1.6338 -0.10834,0.5505 -0.183,1.1155 -0.22398,1.6952 l -0.15811,2.8635 c -0.006,0.088 -0.0147,0.2167 -0.0264,0.3865 -0.11127,1.9324 -0.43919,3.2558 -0.98377,3.9702 -0.46847,0.6149 -1.06722,1.0745 -1.79626,1.379 -0.72905,0.3045 -1.59131,0.4568 -2.58678,0.4568 -0.57387,0 -1.12724,-0.032 -1.66012,-0.097 -0.53287,-0.064 -1.04818,-0.1581 -1.54592,-0.2811 l 0.5358,-2.2135 0.88715,0 c 0,0.023 -0.003,0.059 -0.009,0.1054 -0.006,0.047 -0.009,0.082 -0.009,0.1054 -1e-5,0.3572 0.20055,0.65 0.60168,0.8784 0.40111,0.2284 0.91203,0.3426 1.53275,0.3426 0.6207,0 1.1243,-0.1464 1.51078,-0.4392 0.38648,-0.2928 0.65292,-0.7261 0.79932,-1.3 -1e-5,-0.018 0.006,-0.053 0.0176,-0.1054 0.16396,-0.9077 0.41576,-1.9471 0.7554,-3.1182 l -0.30743,-0.123 c -0.60315,0.773 -1.22093,1.3498 -1.85335,1.7304 -0.63243,0.3806 -1.28535,0.5709 -1.95876,0.5709 -0.74954,0 -1.34536,-0.2518 -1.78747,-0.7554 -0.44211,-0.5036 -0.66317,-1.1799 -0.66317,-2.029 0,-0.6968 0.14054,-1.4127 0.42162,-2.1476 0.28107,-0.7349 0.67341,-1.4244 1.17701,-2.0685 0.49774,-0.6149 1.05843,-1.0833 1.68207,-1.4054 0.62363,-0.3221 1.29266,-0.4831 2.00706,-0.4831 0.36306,0 0.73197,0.047 1.10675,0.1405 0.37476,0.094 0.77881,0.2401 1.21214,0.4392 l 1.17701,-0.5797 z" />
    <path
       inkscape:connector-curvature="0"
       id="path4231"
       style="font-size:17.98892975px;font-style:normal;font-variant:normal;font-weight:bold;font-stretch:normal;text-align:start;line-height:125%;letter-spacing:0px;word-spacing:0px;writing-mode:lr-tb;text-anchor:start;fill:#614726;fill-opacity:1;stroke:none;font-family:Mirarae BT;-inkscape-font-specification:Mirarae BT Bold"
       d="m 193.37542,1045.9627 -0.12297,2.3013 -2.46821,0 0.13176,-2.3013 z" />
    <path
       inkscape:connector-curvature="0"
       id="path4233"
       style="font-size:17.98892975px;font-style:normal;font-variant:normal;font-weight:bold;font-stretch:normal;text-align:start;line-height:125%;letter-spacing:0px;word-spacing:0px;writing-mode:lr-tb;text-anchor:start;fill:#614726;fill-opacity:1;stroke:none;font-family:Mirarae BT;-inkscape-font-specification:Mirarae BT Bold"
       d="m 205.73352,1042.0979 -0.9662,-0.01 c -1e-5,-0.023 0.003,-0.056 0.009,-0.097 0.006,-0.041 0.009,-0.097 0.009,-0.1669 -1e-5,-0.3806 -0.13762,-0.6822 -0.41283,-0.9047 -0.27523,-0.2225 -0.64122,-0.3338 -1.09796,-0.3338 -0.76711,0 -1.37611,0.3192 -1.827,0.9574 -0.4509,0.6383 -0.67635,1.505 -0.67634,2.6 -1e-5,0.9604 0.20934,1.6923 0.62803,2.1959 0.41868,0.5036 1.02329,0.7554 1.81382,0.7554 0.40404,0 0.85201,-0.067 1.3439,-0.202 0.49188,-0.1347 1.01011,-0.3309 1.55471,-0.5885 l -0.19324,1.379 c -0.57973,0.2752 -1.21362,0.486 -1.90166,0.6324 -0.68806,0.1464 -1.39222,0.2196 -2.11247,0.2196 -1.18873,0 -2.10076,-0.2913 -2.73611,-0.8739 -0.63535,-0.5827 -0.95303,-1.4127 -0.95303,-2.4902 0,-1.6572 0.52263,-3.0348 1.56788,-4.1327 1.04526,-1.098 2.37012,-1.6469 3.97461,-1.647 0.41575,10e-5 0.83444,0.029 1.25606,0.088 0.42161,0.059 0.84322,0.1435 1.26485,0.2547 z" />
    <path
       inkscape:connector-curvature="0"
       id="path4235"
       style="font-size:17.98892975px;font-style:normal;font-variant:normal;font-weight:bold;font-stretch:normal;text-align:start;line-height:125%;letter-spacing:0px;word-spacing:0px;writing-mode:lr-tb;text-anchor:start;fill:#614726;fill-opacity:1;stroke:none;font-family:Mirarae BT;-inkscape-font-specification:Mirarae BT Bold"
       d="m 216.83557,1043.8019 c -1e-5,-1.0423 -0.16836,-1.8518 -0.50506,-2.4286 -0.33672,-0.5768 -0.80371,-0.8652 -1.401,-0.8652 -0.62071,0 -1.11553,0.3147 -1.48444,0.9442 -0.36891,0.6295 -0.55337,1.4859 -0.55337,2.5692 0,1.0716 0.16835,1.9061 0.50506,2.5034 0.33671,0.5973 0.8037,0.8959 1.401,0.8959 0.6207,0 1.11552,-0.3265 1.48444,-0.9794 0.3689,-0.6529 0.55336,-1.5327 0.55337,-2.6395 z m -1.20336,-4.4269 c 1.23556,0 2.19151,0.3206 2.86786,0.9618 0.67633,0.6412 1.0145,1.5445 1.01451,2.7097 -1e-5,1.587 -0.52556,2.8987 -1.57666,3.9351 -1.05112,1.0365 -2.38477,1.5547 -4.00096,1.5547 -1.18287,0 -2.11394,-0.3411 -2.7932,-1.0233 -0.67927,-0.6822 -1.01891,-1.6205 -1.01891,-2.8151 0,-1.5284 0.5197,-2.7976 1.5591,-3.8077 1.0394,-1.0102 2.35548,-1.5152 3.94826,-1.5152 z" />
    <path
       inkscape:connector-curvature="0"
       id="path4237"
       style="font-size:17.98892975px;font-style:normal;font-variant:normal;font-weight:bold;font-stretch:normal;text-align:start;line-height:125%;letter-spacing:0px;word-spacing:0px;writing-mode:lr-tb;text-anchor:start;fill:#614726;fill-opacity:1;stroke:none;font-family:Mirarae BT;-inkscape-font-specification:Mirarae BT Bold"
       d="m 231.86389,1042.4756 c 0.44503,-0.9896 0.96766,-1.745 1.56789,-2.2662 0.6002,-0.5211 1.2458,-0.7817 1.93679,-0.7817 0.68512,0 1.1975,0.1947 1.53714,0.5841 0.33962,0.3894 0.50944,0.9764 0.50946,1.7611 -0.0117,0.2284 -0.0293,0.5563 -0.0527,0.9838 l -0.17567,3.3993 0,0.2723 c -1e-5,0.4391 0.0717,0.7217 0.2152,0.8476 0.14345,0.1259 0.44356,0.2122 0.90033,0.2591 l -0.0439,0.8169 c -0.47434,-0.029 -0.87692,-0.051 -1.20776,-0.066 -0.33086,-0.015 -0.61047,-0.022 -0.83884,-0.022 -0.22253,0 -0.49189,0.01 -0.80809,0.022 -0.31623,0.015 -0.70563,0.037 -1.16823,0.066 l 0.0527,-0.8169 c 0.20494,-0.035 0.34695,-0.1157 0.42601,-0.2416 0.079,-0.1259 0.13028,-0.4025 0.15372,-0.83 l 0.19324,-3.7418 c -2e-5,-0.041 0.003,-0.1025 0.009,-0.1845 0.006,-0.082 0.009,-0.1405 0.009,-0.1757 -1e-5,-0.4626 -0.06,-0.7934 -0.18006,-0.9925 -0.12006,-0.1991 -0.31769,-0.2987 -0.5929,-0.2987 -0.51532,0 -1.01306,0.4012 -1.49322,1.2034 -0.48018,0.8022 -0.74955,1.745 -0.8081,2.8283 l -0.0703,1.3439 c -1e-5,0.041 -0.003,0.1098 -0.009,0.2064 -0.006,0.097 -0.009,0.1713 -0.009,0.224 -10e-6,0.2225 0.0439,0.3836 0.13175,0.4831 0.0878,0.1 0.23422,0.1552 0.43918,0.1669 l -0.0351,0.8257 c -0.43334,-0.029 -0.79347,-0.051 -1.08039,-0.066 -0.28694,-0.015 -0.53288,-0.022 -0.73783,-0.022 -0.15226,0 -0.34989,0.01 -0.59289,0.018 -0.24303,0.012 -0.60755,0.035 -1.09357,0.07 l 0.0351,-0.8257 c 0.21665,-0.018 0.37329,-0.1069 0.46992,-0.2679 0.0966,-0.161 0.15664,-0.4436 0.18007,-0.8476 l 0.17567,-3.7067 0,-0.3426 c -1e-5,-0.4684 -0.063,-0.8007 -0.18885,-0.9969 -0.12591,-0.1962 -0.33232,-0.2943 -0.61925,-0.2943 -0.55045,0 -1.04233,0.3528 -1.47565,1.0585 -0.43333,0.7056 -0.67928,1.5883 -0.73783,2.6482 l -0.0878,1.7392 c 0,0.047 -0.003,0.12 -0.009,0.2196 -0.006,0.1 -0.009,0.1786 -0.009,0.2371 -1e-5,0.164 0.0351,0.2884 0.1054,0.3733 0.0703,0.085 0.19031,0.145 0.36013,0.1801 l -0.0351,0.8257 c -0.52117,-0.035 -0.91204,-0.059 -1.17262,-0.07 -0.26059,-0.012 -0.47579,-0.018 -0.6456,-0.018 -0.23423,0 -0.50946,0.01 -0.82566,0.022 -0.31622,0.015 -0.70563,0.037 -1.16823,0.066 l 0.0351,-0.8257 c 0.36892,-0.029 0.63096,-0.1376 0.78614,-0.325 0.15518,-0.1874 0.24741,-0.5065 0.27669,-0.9574 l 0.22837,-4.4006 0,-0.2899 c 0,-0.4333 -0.0747,-0.7246 -0.22398,-0.8739 -0.14933,-0.1494 -0.44651,-0.224 -0.89154,-0.224 l -0.10541,0 0.0351,-0.7906 3.43441,0 -0.50067,2.3365 0.23716,0.097 c 0.49188,-0.8666 1.04525,-1.5283 1.66011,-1.9851 0.61485,-0.4567 1.25313,-0.6851 1.91484,-0.6851 0.53286,0 0.94277,0.1391 1.22971,0.4172 0.28692,0.2782 0.43039,0.6749 0.4304,1.1902 -1e-5,0.1757 -0.019,0.3762 -0.0571,0.6017 -0.0381,0.2254 -0.0922,0.4787 -0.16249,0.7598 z" />
    <path
       id="path3334"
       d="m 148.44372,988.69858 0,0 c -1.9414,0.7196 -3.9138,1.3743 -5.9113,1.9941 l -51.371399,0.023 c -2.0268,-0.6171 -3.9856,-1.2731 -5.9354,-1.9901 l 63.218099,-0.027 z m 21.8719,-11.9154 0,0 c -1.4824,1.1059 -3.0155,2.1684 -4.5884,3.1773 l -97.786399,0.043 c -1.5637,-1.0095 -3.1062,-2.0693 -4.5962,-3.1732 l 106.970999,-0.047 z m 13.1939,-11.9723 0,0 c -1.3718,1.5404 -2.7708,2.9827 -4.2557,4.3955 l -124.848099,0.055 c -1.4666,-1.4134 -2.9082,-2.8527 -4.2772,-4.3907 l 133.380999,-0.059 z m 8.6112,-11.1292 0,0 c -1.3213,2.0204 -2.7246,3.979 -4.2131,5.8781 l -142.172199,0.062 c -1.495,-1.8981 -2.8958,-3.8576 -4.2233,-5.875 l 150.608599,-0.065 z m 7.2098,-13.3179 0,0 c -1.4721,3.4098 -3.1542,6.6683 -5.047,9.8517 l -154.950999,0.069 c -1.8699,-3.1821 -3.5638,-6.4403 -5.0342,-9.8498 l 165.032199,-0.071 z m 5.3504,-16.4094 0,0 c -1.0773,4.8242 -2.5452,9.5556 -4.3655,14.0992 l -166.978499,0.072 c -1.8337,-4.5397 -3.325,-9.2692 -4.3935,-14.0948 l 175.737499,-0.076 z m 2.1003,-17.7008 c -0.1161,5.6638 -0.7521,11.1948 -1.8594,16.5224 l -176.223899,0.078 c -1.1016,-5.3279 -1.7668,-10.8573 -1.8746,-16.5215 l 179.957899,-0.079 z"
       inkscape:connector-curvature="0"
       style="fill:#614726;fill-opacity:1" />
    <path
       id="path3336"
       d="m 200.30522,870.89864 0,0 -81.0587,33.6098 87.5527,-0.078 c 0,-11.8673 -2.312,-23.1703 -6.494,-33.5313 m -19.4385,-29.6143 0,0 -60.8912,60.9217 79.625,-33.0099 c -4.4699,-10.4755 -10.8638,-19.9293 -18.7338,-27.9118 m -28.6398,-19.5296 0,0 -32.14,77.6888 59.4246,-59.4782 c -7.8425,-7.6163 -17.0682,-13.836 -27.2846,-18.2106 m -33.9023,-7.2259 0,0 c 11.3711,0.176 22.2221,2.4869 32.1906,6.5003 l -32.1545,77.6868 -0.036,-84.1871 z m -34.541799,6.2288 0,0 32.715199,78.8083 -0.037,-85.05 c -11.5426,0.03 -22.546699,2.2787 -32.678499,6.2417 m -29.5663,19.0596 0,0 60.535099,60.4649 -32.696799,-78.8352 c -10.3995,4.3709 -19.8459,10.645 -27.8383,18.3703 m -20.3641,29.7117 0,0 81.022699,33.5071 -61.989099,-61.9184 c -8.0331,8.1259 -14.5362,17.7417 -19.0336,28.4113 m -7.0532,34.9794 c -0.01,-11.7497 2.2464,-22.9884 6.3415,-33.2743 l 80.444599,33.2768 -86.785299,0.10394 -8e-4,-0.10644 z"
       inkscape:connector-curvature="0"
       style="fill:#80af51;fill-opacity:1" />
    <path
       style="font-size:medium;font-style:normal;font-variant:normal;font-weight:normal;font-stretch:normal;text-indent:0;text-align:start;text-decoration:none;line-height:normal;letter-spacing:normal;word-spacing:normal;text-transform:none;direction:ltr;block-progression:tb;writing-mode:lr-tb;text-anchor:start;baseline-shift:baseline;color:#000000;fill:#ffffff;fill-opacity:1;stroke:none;stroke-width:6.38815737;marker:none;visibility:visible;display:inline;overflow:visible;enable-background:accumulate;font-family:Sans;-inkscape-font-specification:Sans"
       d="m 73.712221,842.10694 c -2.3918,0.055 -4.4974,0.862 -5.958,2.6377 -11.0522,12.7408 11.8786,24.462 24.4216,21.0081 1.5062,-0.5423 4.0524,-0.2947 5.989,0.931 l 2.079099,1.2102 0.031,4.5306 c 0.042,4.7247 0.3837,4.6649 1.986,8.2543 1.6023,3.5892 2.4592,8.3374 7.1371,13.0951 -0.4221,5.6535 -0.5328,9.7848 -1.6136,15.05024 -23.609199,1.0629 -43.832499,5.8622 -61.503899,13.4675 l -2.1411,0.6206 0.5275,1.955 3.879,11.6987 -10.5507,2.3584 1.3964,1.1792 -2.4204,1.0861 0,1.4895 8.4714,10.0541 -3.972,14.7398 3.6618,-1.3343 14.6468,-5.3374 1.7687,-0.6517 0.4655,-0.1551 -2.1723,-0.3103 0.1864,-0.6516 -1.5827,-0.8999 -3.2893,-3.6307 c 17.4101,-5.784 39.4866,-8.8128 61.410699,-8.8128 0.076,0 0.1713,-1e-4 0.2482,0 0.076,-1e-4 0.14,0 0.2173,0 21.9241,0 44.0315,3.277 61.4418,9.061 l -2.4204,3.3825 -2.2964,0.2172 -0.6517,1.2722 -1.5204,0.3724 0.4965,0.1551 1.7688,0.6517 14.6156,5.3374 3.6617,1.3343 -3.941,-14.7398 8.4405,-10.0541 1.1172,-2.2963 -3.1653,-1.1482 -9.5265,-3.4755 3.4134,-10.6437 0.5276,-1.955 -0.031,0 0.2794,-1.055 c -17.3653,-7.4735 -38.5577,-12.5415 -61.6901,-13.7158 l 0,-0.1861 -0.3414,-3.5687 c -0.4966,-5.28394 0.2522,-9.53494 1.986,-12.56764 0.8091,-1.4165 2.1961,-3.0104 2.5135,-3.01 6.6584,4.4897 13.0426,8.9983 20.7909,13.3124 1.8388,0.7328 2.7578,-0.7749 0.9931,-2.6686 -2.9069,-2.2339 -7.9612,-5.2949 -13.0331,-8.5958 -6.1143,-4.2825 -8.7741,-4.9043 -8.4406,-8.0992 0.137,-0.9998 -0.031,-6.2243 -0.4963,-8.1921 -0.071,-0.405 -1.3376,-1.5926 -1.7689,-2.6377 -0.8916,-1.8784 -2.9935,-3.8478 -4.7788,-3.8478 -0.6577,0 -1.239,-0.4517 -2.1411,-1.1172 -0.9017,-0.6653 -0.896,-1.1857 -1.7067,-1.5205 -0.8106,-0.3345 -1.532,-1.088 -2.8549,-0.4655 -0.8546,0.5337 -1.1362,0.8906 -2.3274,-0.5275 -1.1523,-1.3719 -1.609,-1.5614 -5.1511,-2.3584 -5.2525,-1.1819 -5.5216,-0.7018 -6.5476,0.4965 -1.063,1.2412 -0.9829,1.5893 -3.2894,0.2793 -2.766199,-1.5712 -6.280499,-4.736 -7.571599,-7.2302 -3.2775,-7.3016 -12.4983,-13.9442 -19.6738,-13.778 z"
       id="path4445"
       inkscape:connector-curvature="0"
       sodipodi:nodetypes="cccccccccccccccccccccccccccscscccccccccccccccccccccccccccccsccccscccc" />
    <path
       inkscape:connector-curvature="0"
       id="path4449"
       d="m 73.403221,841.67344 c -2.4087,0.055 -4.5188,0.8671 -5.9897,2.6553 -11.1302,12.8306 11.76,25.4461 24.3915,21.9678 1.5169,-0.5462 4.0858,-0.2927 6.0361,0.9417 l 2.084,1.2042 0.046,4.5849 c 0.042,4.7581 0.377899,4.6753 1.991499,8.29 1.6136,3.6145 1.6494,7.0803 6.3603,11.8716 -0.4251,5.6933 -0.5172,9.8573 -1.6056,15.15984 -23.775699,1.0705 -45.575599,5.988 -63.371599,13.6469 l 0.2781,1.0342 -0.015,0 0.5403,1.976 2.856,10.6675 -9.5869,3.4889 -0.015,0.015 -3.1802,1.1578 2.1922,2.6089 8.506,10.1425 -3.9828,14.8202 3.6896,-1.3276 0,-0.015 14.7275,-5.3567 1.7908,-0.6485 0.4785,-0.1699 1.4202,-0.5094 -2.1612,-1.5128 -1.0498,-0.7409 -3.5043,-2.4547 c 17.5329,-5.8248 38.159,-9.201 60.237799,-9.201 0.077,0 0.1539,-10e-5 0.2315,0 0.077,-10e-5 0.1538,0 0.2316,0 22.0787,0 42.7048,3.3762 60.2378,9.201 l -3.5044,2.4547 -1.0499,0.7409 -2.1612,1.5128 1.4203,0.5094 0.4786,0.1699 1.7907,0.6485 14.7275,5.3567 0,0.015 3.6897,1.3276 -3.9829,-14.8202 8.5061,-10.1425 2.1921,-2.6089 -3.1802,-1.1578 -0.015,-0.015 -9.5868,-3.4889 2.8559,-10.6675 0.5403,-1.976 -0.015,0 0.278,-1.0342 c -17.4877,-7.5262 -38.841,-12.4026 -62.1366,-13.5852 l 0,-0.1699 -0.3396,-3.6122 c -0.5001,-5.32124 0.076,-9.26524 1.8216,-12.31934 0.8148,-1.4266 1.7489,-2.594 2.0686,-2.5936 6.7054,4.5213 12.976,8.6849 20.779,13.0294 1.8518,0.7381 3.5218,-1.2421 1.7446,-3.1493 -2.9275,-2.2496 -8.0143,-5.2592 -13.122,-8.5833 -6.1575,-4.3127 -8.6106,-4.8873 -8.2746,-8.1047 0.138,-1.007 -0.4576,-6.6944 -0.9263,-8.6761 -0.071,-0.4079 -1.3411,-1.6029 -1.7754,-2.6553 -0.8979,-1.8917 -3.0186,-3.8748 -4.8164,-3.8748 -0.6624,0 -1.2375,-0.4568 -2.146,-1.127 -0.9081,-0.67 -0.928,-1.2066 -1.7444,-1.5438 -0.8163,-0.3369 -1.5392,-1.0745 -2.8714,-0.4476 -0.8606,0.5374 -1.1469,0.9032 -2.3465,-0.5249 -1.1605,-1.3816 -1.62,-1.5902 -5.1871,-2.3928 -5.2896,-1.1903 -5.9753,-0.8209 -7.0086,0.3859 -1.0704,1.25 -0.9965,1.5817 -3.3192,0.2624 -2.785699,-1.5823 -5.523099,-4.3114 -6.823299,-6.8233 -3.3006,-7.3531 -13.198,-13.9843 -20.4241,-13.8168 z m 0.9263,2.1613 c 5.3092,0.048 12.4472,4.5077 17.6762,12.3192 1.2624,2.409 3.3372,3.9066 4.6621,6.1288 0.01,0.2853 0.3007,1.0096 0.6483,1.621 0.7439,1.3068 0.6051,1.408 -0.463,0.3397 -0.6606,-0.6608 -1.7514,-0.7051 -5.712,-0.3243 -2.553,0.2455 -5.6511,0.2073 -7.3175,0.1389 -9.6967,-1.0038 -20.5986,-8.5053 -15.098,-17.6762 1.212,-1.6104 2.9992,-2.4359 5.0944,-2.5317 0.1673,-0.01 0.3382,-0.016 0.5095,-0.015 z m -0.9263,1.4512 c -0.9713,0.069 -2.1145,0.3954 -3.0103,0.9415 -1.7442,1.0635 -2.4097,2.7601 -1.8989,4.8474 0.1816,0.7422 0.3226,1.8546 0.3088,2.4855 -0.036,1.6654 3.0044,4.7319 4.7394,4.7704 1.046,0.023 1.3612,0.2445 1.2504,0.8952 -0.1081,0.6364 0.6802,1.2664 2.964,2.3467 2.9159,1.3794 4.3535,1.7842 4.3535,1.235 0,-0.1292 -0.8337,-0.6817 -1.8524,-1.2196 -2.3995,-1.2668 -1.8072,-1.2794 1.3583,-0.031 1.523,0.6004 3.6617,0.988 5.465,0.988 2.4927,0 3.1654,-0.1858 4.1836,-1.2041 0.6669,-0.6669 1.2197,-1.5211 1.2197,-1.8987 0,-1.1494 -3.6607,-6.43 -5.6966,-8.2129 -2.491,-2.1813 -2.8499,-1.1465 -0.386,1.1116 1.0344,0.9475 1.7092,1.8877 1.5129,2.0838 -0.4659,0.466 -1.8525,-0.704 -1.8525,-1.559 0,-0.8435 -1.686,-1.7531 -2.5935,-1.4048 -0.4713,0.1808 -0.9172,-0.3909 -1.3739,-1.7754 -0.6794,-2.0585 -1.9804,-3.0965 -5.0172,-3.9675 -0.9568,-0.2743 -1.4092,-0.2168 -1.4358,0.1852 -0.028,0.4115 -0.1021,0.4044 -0.2778,-0.031 -0.1889,-0.4683 -0.9894,-0.6565 -1.9607,-0.5867 z m 3.8904,1.4665 c 0.074,0 0.2932,0.2048 0.71,0.6174 0.7233,0.7161 0.7587,0.9617 0.2162,1.2968 -1.1796,0.7294 0.1603,2.4305 1.8217,2.3157 1.2417,-0.085 1.4152,0.064 1.3739,1.2351 -0.026,0.7329 -0.2131,1.2364 -0.4168,1.1115 -0.2039,-0.1252 -0.3706,0.1494 -0.3706,0.602 0,0.5158 0.2616,0.7125 0.7103,0.5404 0.4605,-0.1767 0.6274,-0.027 0.4629,0.4012 -0.1404,0.3661 -0.013,0.8088 0.2781,0.9881 0.2901,0.1792 0.5248,0.6428 0.5248,1.0343 0,0.987 -0.8235,0.8934 -1.2196,-0.1389 -0.2448,-0.6385 -0.4211,-0.6994 -0.71,-0.2316 -0.238,0.3852 -0.3861,0.064 -0.3861,-0.8336 0,-1.9975 -1.2968,-3.2422 -2.6244,-2.5318 -0.8149,0.4361 -0.9881,0.3834 -0.9881,-0.2778 0,-0.5181 0.2678,-0.7065 0.7412,-0.525 0.4074,0.1564 0.7409,0.091 0.7409,-0.1388 0,-0.6636 -1.2905,-1.5503 -1.6827,-1.1579 -0.1957,0.1956 -0.1349,-0.2366 0.1389,-0.9571 0.5141,-1.3521 0.1988,-1.9172 -1.4201,-2.5164 -0.6027,-0.2229 -0.5867,-0.2772 0.091,-0.3087 0.4595,-0.021 0.9744,0.176 1.1425,0.4477 0.524,0.8477 1.3484,0.5426 1.0033,-0.3705 -0.1524,-0.4044 -0.214,-0.6043 -0.1388,-0.6021 z m 2.6706,1.7753 c 0.1377,0.013 0.2375,0.151 0.3397,0.4169 0.143,0.3727 -0.051,0.7952 -0.4323,0.9416 -0.9532,0.3657 -1.2658,-0.2916 -0.4786,-1.0189 0.2529,-0.2334 0.4339,-0.3521 0.5712,-0.3396 z m -4.7392,0.9263 c 0.1793,-0.033 0.2325,0.2653 0.1079,0.741 -0.3014,1.1535 -0.6329,1.3004 -0.6329,0.2779 0,-0.3914 0.2015,-0.8357 0.4476,-0.9879 0.031,-0.019 0.052,-0.026 0.076,-0.031 z m 4.4305,2.2847 c -0.1399,-0.018 -0.2667,0.02 -0.3551,0.1082 -0.1449,0.1447 -0.1173,0.4975 0.062,0.7873 0.4024,0.6511 1.2657,0.6931 1.2657,0.061 0,-0.437 -0.5522,-0.9037 -0.9725,-0.9571 z m 4.4769,0.5559 c 0.039,0 0.07,0.01 0.1081,0.015 0.8241,0.2748 2.2282,3.0288 1.7134,3.3655 -0.2489,0.1629 2e-4,1.1079 0.5559,2.0996 1.008,1.7946 0.7238,2.4766 -0.4477,1.0651 -0.3382,-0.4076 -0.4385,-0.741 -0.2161,-0.741 0.2225,0 -0.3278,-0.747 -1.2195,-1.6672 -1.0138,-1.0458 -1.4161,-1.7996 -1.0808,-2.007 0.2954,-0.1825 0.5404,-0.5619 0.5404,-0.8336 0,-0.2718 -0.2255,-0.3512 -0.494,-0.1853 -0.2829,0.1748 -0.3602,-0.038 -0.1852,-0.4941 0.1453,-0.379 0.4538,-0.6247 0.7255,-0.6173 z m -5.7273,1.4666 c 0.1509,-0.01 0.4447,0.3377 0.7101,0.8336 0.3035,0.5669 0.3449,1.0342 0.092,1.0342 -0.5077,0 -1.2102,-1.4914 -0.8645,-1.8371 0.014,-0.014 0.04,-0.031 0.062,-0.031 z m -8.3982,0.6328 1.3586,1.2043 c 0.7472,0.6586 1.3586,1.2699 1.3586,1.3584 0,0.3875 -0.4091,0.064 -1.5285,-1.2041 l -1.1887,-1.3586 z m 18.4789,1.5285 c 0.2319,0.023 0.4789,0.2184 0.88,0.5864 0.5126,0.4707 0.695,0.6977 0.4013,0.5096 -0.2935,-0.1883 -0.8522,-0.1438 -1.2504,0.1081 -1.4603,0.9233 -1.9669,0.4079 -0.7719,-0.7874 0.3,-0.3001 0.5093,-0.4395 0.741,-0.4167 z m -12.5199,3.1801 c 0.2877,-0.01 0.9546,0.3112 1.482,0.71 1.2196,0.9225 0.8283,0.9305 -0.772,0.015 -0.6792,-0.3883 -0.9977,-0.7157 -0.71,-0.7255 z m 31.184099,2.9949 c 1.1387,-0.027 2.1842,0.148 2.3311,0.3859 0.3205,0.519 -1.4482,0.5373 -3.1647,0.031 -1.023,-0.3013 -0.8812,-0.3765 0.8336,-0.4168 z m 5.3105,0.957 c 0.6538,0.022 1.3705,0.229 1.8216,0.6021 0.5905,0.4883 0.6859,1.3411 0.4632,4.0757 -0.3021,3.7071 -1.0189,3.372 -1.0189,-0.4787 0,-1.9387 -0.1484,-2.1896 -1.5284,-2.6707 -0.8352,-0.2914 -1.3762,-0.7557 -1.2041,-1.0344 0.2165,-0.3504 0.8129,-0.5158 1.4666,-0.494 z m -13.214599,1.976 c 0.3235,-0.01 0.7274,0.2069 0.895499,0.4786 0.379,0.6134 0.2079,0.6134 -0.741199,0 -0.4451,-0.2878 -0.5078,-0.4736 -0.1543,-0.4786 z m 22.044899,1.6211 c 0.2638,0.037 0.5609,0.2932 0.7101,0.741 0.1076,0.3226 -0.1091,0.5865 -0.4939,0.5865 -0.3848,0 -0.7102,-0.3414 -0.7102,-0.7564 0,-0.4269 0.2304,-0.608 0.494,-0.5711 z m 2.2694,1.7135 c 1.5446,0.1249 4.2303,3.1833 5.9126,4.8475 0.01,0.016 -0.01,0.028 0,0.046 0.4348,1.3648 1.5924,6.1596 1.0497,7.7806 l -1.0806,-1.0652 c -0.9934,-0.9933 -1.0267,-1.2312 -0.4478,-3.1647 0.6162,-2.0562 0.6049,-2.1099 -0.9569,-3.4736 -0.873,-0.7621 -1.8095,-1.25 -2.0842,-1.0806 -0.2767,0.171 -0.3977,0.01 -0.2624,-0.3704 0.4075,-1.1451 -0.562,-2.4237 -1.8525,-2.4237 -0.6697,0 -1.2195,-0.2224 -1.2195,-0.4941 0.2075,-0.464 0.5319,-0.635 0.9416,-0.6021 z m -17.5064,2.8096 c 0.19,-0.013 0.3601,0.036 0.4632,0.139 0.163,0.163 0.2933,1.3576 0.2933,2.6706 0,2.23 0.073,2.393 1.2504,2.393 1.7529,0 4.0537,1.2822 4.4307,2.4701 0.1735,0.5465 0.741,1.2166 1.2659,1.4973 1.3137,0.7031 1.187,1.7046 -0.3551,2.9177 -1.4639,1.1516 -3.1337,1.3453 -3.1337,0.3705 0,-0.3542 -0.7949,-1.3958 -1.7601,-2.3311 -1.1521,-1.1165 -1.6697,-2.0244 -1.5128,-2.6244 0.3736,-1.4285 -0.1922,-2.3001 -1.4821,-2.3001 -0.9767,0 -1.1732,-0.2447 -1.1732,-1.4357 0,-0.7929 -0.1315,-1.7646 -0.2779,-2.1459 -0.2241,-0.5838 1.1682,-1.5673 1.9914,-1.621 z m 18.2166,4.3998 c 0.1333,0.01 0.1422,0.1952 0.015,0.5248 -0.3283,0.856 -0.6791,1.0195 -0.6791,0.3088 0,-0.2556 0.2099,-0.6059 0.4785,-0.7719 0.069,-0.043 0.1407,-0.063 0.1853,-0.062 z m 1.976,6.422 c 0.036,-0.024 0.2552,0.077 0.6638,0.2778 0.5962,0.2917 1.2223,0.7489 1.3894,1.019 0.446,0.7214 0.148,0.5909 -1.235,-0.5403 -0.5985,-0.4894 -0.8642,-0.7255 -0.8182,-0.7565 z m -5.0791,1.9144 c 0.36,-0.042 0.8588,0.091 1.7291,0.3704 1.064,0.3414 2.6121,1.1004 3.4272,1.6981 0.815,0.5978 1.8649,1.2428 2.3464,1.4204 0.4817,0.1775 1.0035,0.6474 1.1579,1.0496 0.4542,1.1843 -1.2588,4.4515 -2.8098,5.3415 -1.3617,0.7817 -1.445,0.9925 -1.4355,4.1837 0.01,1.8463 0.2237,4.7971 0.4785,6.5609 0.2546,1.76384 0.3005,3.34784 0.108,3.51974 -0.6145,0.5495 -1.5811,-0.1098 -2.3465,-1.59 -0.4709,-0.9104 -1.1337,-1.4357 -1.8062,-1.4357 -1.0571,0 -1.057,-0.011 0.1081,-1.25034 1.0556,-1.1238 1.1187,-1.4001 0.5867,-2.8715 -0.8386,-2.3186 -0.7375,-3.0572 0.5248,-3.9521 1.0535,-0.7466 1.0645,-0.8224 0.2315,-1.4819 -0.7605,-0.6021 -0.7773,-0.7371 -0.1234,-0.988 0.4153,-0.1593 0.7564,-0.7566 0.7564,-1.3276 0,-0.5714 0.3702,-1.4047 0.8182,-1.8527 0.7572,-0.7571 0.6708,-0.9252 -1.0806,-2.3156 -4.3644,-3.4641 -4.2962,-3.3848 -3.5507,-4.3998 0.3074,-0.4183 0.5199,-0.6366 0.8799,-0.6791 z m 12.2576,2.8405 c 0.2717,0 0.6348,0.2223 0.8026,0.494 0.1681,0.2717 0.07,0.494 -0.2005,0.494 -0.2717,0 -0.6195,-0.2223 -0.7874,-0.494 -0.1679,-0.2717 -0.087,-0.494 0.1853,-0.494 z m 1.7907,2.0068 c 0.2718,0.01 0.9124,0.3297 1.4356,0.7257 0.5236,0.3961 0.8611,0.8214 0.7411,0.9416 -0.1198,0.1201 -0.7762,-0.207 -1.4511,-0.7255 -0.6753,-0.5188 -0.9972,-0.9467 -0.7256,-0.9418 z m 10.5594,7.3794 c 0.2188,0.012 0.6975,0.2492 1.3277,0.71 0.5269,0.3853 0.8456,0.807 0.71,0.9416 -0.1353,0.1346 -0.7787,-0.1901 -1.4202,-0.7101 -0.6707,-0.5435 -0.8576,-0.8693 -0.6947,-0.9263 0.02,-0.01 0.046,-0.017 0.077,-0.015 z m -29.2081,15.00534 c 0.077,0 0.1542,-10e-5 0.2316,0 0.077,-10e-5 0.154,0 0.2316,0 26.0795,0 50.1172,4.7191 69.4384,12.6125 l -3.6895,13.7551 -0.062,0.1697 0.015,0 -3.9519,14.7583 c -18.0209,-6.0319 -39.1484,-9.4787 -61.7507,-9.4787 l -0.2315,0 -0.2317,0 c -22.602199,0 -43.729799,3.4468 -61.750599,9.4787 l -3.9519,-14.7583 0.015,0 -0.062,-0.1697 -3.6896,-13.7551 c 19.3212,-7.8934 43.359,-12.6125 69.438499,-12.6125 z m -68.728499,27.6488 4.5233,16.8889 0.2161,0.7873 3.5661,2.5008 -10.4975,3.8132 2.8097,-10.4823 -0.015,0 -8.8304,-10.513 8.2282,-2.9949 z m 137.920199,0 8.2281,2.9949 -8.8303,10.513 -0.015,0 2.8097,10.4823 -10.4976,-3.8132 3.5661,-2.5008 0.2161,-0.7873 4.5233,-16.8889 z"
       style="font-size:medium;font-style:normal;font-variant:normal;font-weight:normal;font-stretch:normal;text-indent:0;text-align:start;text-decoration:none;line-height:normal;letter-spacing:normal;word-spacing:normal;text-transform:none;direction:ltr;block-progression:tb;writing-mode:lr-tb;text-anchor:start;baseline-shift:baseline;color:#000000;fill:#000000;fill-opacity:1;stroke:none;stroke-width:6.38815737;marker:none;visibility:visible;display:inline;overflow:visible;enable-background:accumulate;font-family:Sans;-inkscape-font-specification:Sans" />
    <path
       style="font-size:13.94157982px;font-style:normal;font-variant:normal;font-weight:bold;font-stretch:normal;text-align:start;line-height:125%;letter-spacing:0px;word-spacing:0px;writing-mode:lr-tb;text-anchor:start;fill:#000000;fill-opacity:1;stroke:none;font-family:Mirarae BT;-inkscape-font-specification:Mirarae BT Bold"
       inkscape:connector-curvature="0"
       id="path4575"
       d="m 100.42002,916.73058 -0.499299,0.097 -0.013,-0.054 c -0.058,-0.2967 -0.223,-0.5124 -0.4953,-0.647 -0.2723,-0.1347 -0.6021,-0.1643 -0.9892,-0.089 -0.3474,0.068 -0.6081,0.1997 -0.7822,0.3949 -0.1741,0.1955 -0.236,0.4217 -0.1859,0.6786 0.055,0.2822 0.434,0.5877 1.1366,0.9163 0.075,0.034 0.1303,0.061 0.1678,0.08 0,0 0,0 0,0 1.368599,0.642 2.122099,1.3176 2.260499,2.0268 0.1323,0.6766 -0.045,1.2794 -0.5317,1.8082 -0.4866,0.5288 -1.205699,0.8861 -2.157399,1.0717 -0.2786,0.054 -0.5727,0.092 -0.8822,0.1131 -0.3096,0.021 -0.6378,0.028 -0.9848,0.02 l -0.2006,-1.8654 0.5643,-0.1102 0.013,0.054 c 0.075,0.3872 0.2488,0.6633 0.5195,0.8283 0.2707,0.1651 0.6178,0.2062 1.0411,0.1236 0.3908,-0.076 0.6929,-0.2412 0.9063,-0.4951 0.2134,-0.2539 0.2908,-0.531 0.2322,-0.8313 -0.042,-0.2136 -0.1516,-0.3949 -0.3288,-0.5445 -0.1775,-0.1493 -0.591,-0.3579 -1.2406,-0.6255 -0.7006,-0.299 -1.1798,-0.5746 -1.4374,-0.8267 -0.2577,-0.252 -0.424,-0.5699 -0.4989,-0.9534 -0.1247,-0.6405 0.021,-1.1968 0.4379,-1.6688 0.4168,-0.4719 1.045,-0.7899 1.8845,-0.9537 0.322,-0.063 0.6495,-0.1026 0.9826,-0.1185 0.3331,-0.016 0.666399,-0.01 1.000399,0.03 z" />
    <path
       style="font-size:13.94157982px;font-style:normal;font-variant:normal;font-weight:bold;font-stretch:normal;text-align:start;line-height:125%;letter-spacing:0px;word-spacing:0px;writing-mode:lr-tb;text-anchor:start;fill:#000000;fill-opacity:1;stroke:none;font-family:Mirarae BT;-inkscape-font-specification:Mirarae BT Bold"
       inkscape:connector-curvature="0"
       id="path4577"
       d="m 104.55612,914.97888 0.051,1.4932 c 0.058,-0.014 0.1201,-0.028 0.1868,-0.043 0.066,-0.016 0.1035,-0.024 0.1107,-0.026 l 1.5167,-0.2158 -0.073,0.8679 -1.1574,0.1477 c -0.092,0.011 -0.1833,0.02 -0.2753,0.027 -0.092,0.01 -0.1846,0.01 -0.2774,0.011 l 0.1579,2.7674 c -4e-4,10e-5 0,0.016 -8e-4,0.039 0.01,0.07 0.011,0.1304 0.017,0.1817 0.04,0.3144 0.1237,0.5289 0.2548,0.642 0.1297,0.1135 0.3316,0.1528 0.6059,0.1178 0.1646,-0.021 0.3406,-0.069 0.5282,-0.1426 0.1876,-0.074 0.3776,-0.1717 0.5703,-0.2929 l -0.058,0.8994 c -0.2559,0.1215 -0.5279,0.2243 -0.8165,0.3076 -0.2886,0.083 -0.5988,0.1484 -0.932,0.1887 -0.512,0.066 -0.9005,0 -1.1656,-0.1997 -0.265,-0.1985 -0.429,-0.5445 -0.492,-1.0383 -0.017,-0.139 -0.03,-0.2507 -0.037,-0.3352 -0.01,-0.085 -0.012,-0.1657 -0.014,-0.2435 l -0.1378,-2.6974 c -0.06,0.022 -0.1223,0.037 -0.1854,0.052 -0.063,0.015 -0.1268,0.021 -0.1882,0.032 l -0.768,0.098 -0.032,-0.821 0.1206,-0.016 c 0.5413,-0.069 0.9328,-0.2339 1.1745,-0.4954 0.2416,-0.2613 0.366,-0.6563 0.3729,-1.1849 z" />
    <path
       style="font-size:13.94157982px;font-style:normal;font-variant:normal;font-weight:bold;font-stretch:normal;text-align:start;line-height:125%;letter-spacing:0px;word-spacing:0px;writing-mode:lr-tb;text-anchor:start;fill:#000000;fill-opacity:1;stroke:none;font-family:Mirarae BT;-inkscape-font-specification:Mirarae BT Bold"
       inkscape:connector-curvature="0"
       id="path4579"
       d="m 111.58682,917.53898 c -0.022,-0.3717 -0.124,-0.6519 -0.307,-0.8406 -0.1829,-0.1887 -0.4344,-0.2735 -0.7546,-0.2547 -0.4452,0.026 -0.7974,0.2722 -1.0562,0.738 -0.2588,0.4657 -0.3674,1.052 -0.3258,1.7586 0.026,0.4453 0.1211,0.786 0.2847,1.0219 0.1635,0.236 0.3813,0.3459 0.6537,0.3299 0.3974,-0.024 0.7571,-0.3289 1.079,-0.9165 0.3218,-0.5878 0.4639,-1.2 0.4264,-1.8367 z m 1.7363,-1.7475 c -0.094,0.4155 -0.1626,0.7981 -0.2066,1.1478 -0.044,0.3498 -0.064,0.6648 -0.058,0.9452 l 0.034,1.6987 0.012,0.2098 c 0.018,0.3055 0.074,0.5137 0.1694,0.6244 0.095,0.1107 0.2549,0.1595 0.4794,0.1463 l 0.099,-0.01 -6e-4,0.554 c -0.2771,0 -0.5071,0 -0.6897,0 -0.1827,0 -0.3421,0.01 -0.4784,0.014 -0.1398,0.01 -0.2933,0.021 -0.4603,0.038 -0.167,0.017 -0.3439,0.039 -0.5308,0.064 l 0.1652,-1.4278 -0.1965,-0.044 c -0.3266,0.5362 -0.6925,0.9557 -1.0975,1.2584 -0.4051,0.3026 -0.8174,0.4663 -1.237,0.491 -0.5041,0.03 -0.904,-0.1111 -1.1992,-0.4225 -0.2953,-0.3113 -0.4608,-0.7687 -0.4963,-1.3723 -0.032,-0.5373 0.042,-1.0605 0.2206,-1.5696 0.1788,-0.5091 0.4482,-0.9663 0.8084,-1.3715 0.3256,-0.3663 0.6652,-0.6383 1.0185,-0.8161 0.3533,-0.1778 0.7599,-0.2802 1.2201,-0.3069 0.2134,-0.012 0.4333,0 0.6595,0.053 0.2262,0.048 0.4662,0.1249 0.7199,0.2318 l 0.7121,-0.4186 z" />
    <path
       style="font-size:13.94157982px;font-style:normal;font-variant:normal;font-weight:bold;font-stretch:normal;text-align:start;line-height:125%;letter-spacing:0px;word-spacing:0px;writing-mode:lr-tb;text-anchor:start;fill:#000000;fill-opacity:1;stroke:none;font-family:Mirarae BT;-inkscape-font-specification:Mirarae BT Bold"
       inkscape:connector-curvature="0"
       id="path4581"
       d="m 119.33322,917.43228 -0.5309,-0.01 c 0,-0.026 0.01,-0.052 0.01,-0.077 0,-0.026 0,-0.052 0,-0.078 0,-0.14 -0.043,-0.253 -0.1317,-0.3387 -0.089,-0.086 -0.2097,-0.1296 -0.3608,-0.1312 -0.3503,0 -0.6771,0.2175 -0.9807,0.664 -0.3035,0.4465 -0.4732,0.9645 -0.5092,1.554 l -0.052,0.6962 0,0.1936 c 0,0.2838 0.051,0.4716 0.1625,0.5632 0.1114,0.091 0.3643,0.1487 0.7585,0.1714 l -0.039,0.5084 c -0.2874,-0.018 -0.5656,-0.032 -0.8346,-0.042 -0.2691,-0.011 -0.5308,-0.017 -0.7852,-0.02 -0.2065,0 -0.4359,0 -0.6885,0 -0.2526,0 -0.5173,0.013 -0.7939,0.025 l 0.039,-0.5029 c 0.24,-0.034 0.405,-0.1163 0.4949,-0.2462 0.09,-0.1299 0.1483,-0.4214 0.1755,-0.8747 l 0.1601,-2.509 0,-0.1714 c 0,-0.2654 -0.037,-0.4382 -0.1211,-0.5178 -0.082,-0.08 -0.2502,-0.1217 -0.5047,-0.1245 l -0.072,-7e-4 0.033,-0.5085 2.1068,0.023 -0.296,1.7776 0.1377,0.057 c 0.3392,-0.6857 0.7015,-1.1906 1.0866,-1.5145 0.3852,-0.3239 0.8155,-0.4833 1.2911,-0.4781 0.096,0 0.1944,0.01 0.2956,0.025 0.1011,0.016 0.2069,0.041 0.3172,0.075 z" />
    <path
       style="font-size:13.94157982px;font-style:normal;font-variant:normal;font-weight:bold;font-stretch:normal;text-align:start;line-height:125%;letter-spacing:0px;word-spacing:0px;writing-mode:lr-tb;text-anchor:start;fill:#000000;fill-opacity:1;stroke:none;font-family:Mirarae BT;-inkscape-font-specification:Mirarae BT Bold"
       inkscape:connector-curvature="0"
       id="path4583"
       d="m 122.95372,913.41158 c -0.046,0.2145 -0.095,0.5048 -0.1457,0.8706 -0.016,0.1097 -0.028,0.1901 -0.036,0.2413 l -0.4597,3.3976 0.3971,0.031 1.0315,-0.707 c 0.1678,-0.1126 0.2871,-0.2078 0.3579,-0.2855 0.071,-0.077 0.1089,-0.1514 0.1143,-0.2212 0,-0.059 -0.011,-0.11 -0.047,-0.1533 -0.035,-0.043 -0.089,-0.075 -0.1617,-0.096 l 0.068,-0.4439 1.9186,0.1499 0,0.055 c -0.021,0.2647 -0.1838,0.5302 -0.4894,0.7966 -0.3056,0.2664 -0.8925,0.6319 -1.7608,1.0965 0.1472,0.104 0.3089,0.3052 0.4852,0.6038 0.012,0.015 0.019,0.029 0.025,0.041 l 1.1216,1.9015 c 0.084,0.1471 0.183,0.2602 0.2952,0.3392 0.1121,0.079 0.2362,0.1238 0.3722,0.1345 l 0.033,0 -0.072,0.4936 c -0.1902,-0.026 -0.3624,-0.048 -0.5164,-0.065 -0.1539,-0.017 -0.2933,-0.031 -0.4182,-0.041 -0.1067,-0.01 -0.2329,-0.016 -0.3784,-0.021 -0.1457,-0.01 -0.3089,-0.01 -0.4898,-0.013 -0.2766,-0.4358 -0.5437,-0.8977 -0.8014,-1.3856 -0.2578,-0.4879 -0.5026,-0.998 -0.7347,-1.5301 l -0.43,-0.034 -0.1847,1.511 c 0,0.01 0,0.037 -0.011,0.077 -0.01,0.04 -0.012,0.075 -0.014,0.1043 -0.016,0.2095 0.011,0.3605 0.081,0.453 0.071,0.092 0.2009,0.1498 0.3915,0.172 l -0.073,0.5047 c -0.2487,-0.034 -0.4804,-0.063 -0.6949,-0.088 -0.2143,-0.024 -0.3988,-0.042 -0.5532,-0.054 -0.2426,-0.019 -0.4826,-0.034 -0.7202,-0.045 -0.2378,-0.011 -0.4784,-0.019 -0.7222,-0.023 l 0.078,-0.5042 c 0.2515,0 0.4229,-0.053 0.5138,-0.151 0.091,-0.098 0.1588,-0.3158 0.2036,-0.6525 l 0.6803,-5.1554 0.013,-0.1655 c 0.024,-0.305 -0.011,-0.5093 -0.1049,-0.6127 -0.093,-0.1035 -0.2856,-0.1665 -0.576,-0.1892 l 0.068,-0.5216 z" />
    <path
       style="font-size:13.94157982px;font-style:normal;font-variant:normal;font-weight:bold;font-stretch:normal;text-align:start;line-height:125%;letter-spacing:0px;word-spacing:0px;writing-mode:lr-tb;text-anchor:start;fill:#000000;fill-opacity:1;stroke:none;font-family:Mirarae BT;-inkscape-font-specification:Mirarae BT Bold"
       inkscape:connector-curvature="0"
       id="path4585"
       d="m 131.46772,919.68838 -3.0351,-0.456 c -0.033,0 -0.065,-0.011 -0.098,-0.021 -0.032,-0.01 -0.077,-0.023 -0.1333,-0.042 0,0.029 -0.012,0.07 -0.024,0.1222 -0.012,0.052 -0.019,0.091 -0.023,0.1167 -0.089,0.5943 -0.034,1.0583 0.1655,1.3921 0.1996,0.3339 0.5437,0.5375 1.0323,0.6109 0.3171,0.048 0.6659,0.04 1.0462,-0.022 0.3803,-0.062 0.7836,-0.1749 1.2073,-0.3498 l -0.2282,0.8492 c -0.5168,0.165 -1.0316,0.272 -1.5442,0.3217 -0.5126,0.05 -1.0023,0.039 -1.4689,-0.031 -0.7147,-0.1073 -1.2296,-0.3711 -1.5448,-0.7913 -0.3153,-0.4201 -0.4201,-0.9821 -0.314,-1.6858 0.078,-0.5213 0.2623,-1.0082 0.5521,-1.4604 0.2898,-0.4524 0.6587,-0.8294 1.1066,-1.1312 0.3166,-0.2208 0.6457,-0.3708 0.9875,-0.45 0.3417,-0.08 0.7024,-0.09 1.0816,-0.033 0.6635,0.1 1.1389,0.3594 1.4263,0.7792 0.2874,0.4197 0.3774,0.9868 0.2701,1.7014 0,0 0,0.015 0,0.033 -0.017,0.068 -0.031,0.1315 -0.04,0.1898 z m -1.4272,-0.8855 c 0.04,0.01 0.082,0.014 0.1253,0.022 0.044,0.01 0.097,0.023 0.1613,0.044 0.013,-0.065 0.029,-0.1411 0.045,-0.2281 0.017,-0.086 0.027,-0.1414 0.03,-0.1633 0.054,-0.3572 0.037,-0.6347 -0.051,-0.8324 -0.088,-0.1977 -0.2446,-0.3136 -0.4707,-0.3475 -0.3025,-0.045 -0.5883,0.045 -0.8571,0.2712 -0.2688,0.2262 -0.487,0.5615 -0.6545,1.0061 0.026,0 0.061,0 0.1055,0 0.078,0 0.133,0.01 0.1658,0.014 z" />
    <path
       style="font-size:13.94157982px;font-style:normal;font-variant:normal;font-weight:bold;font-stretch:normal;text-align:start;line-height:125%;letter-spacing:0px;word-spacing:0px;writing-mode:lr-tb;text-anchor:start;fill:#000000;fill-opacity:1;stroke:none;font-family:Mirarae BT;-inkscape-font-specification:Mirarae BT Bold"
       inkscape:connector-curvature="0"
       id="path4587"
       d="m 137.15002,919.61428 -0.5729,-0.1243 0.012,-0.054 c 0.053,-0.2451 0,-0.4625 -0.1641,-0.6524 -0.1626,-0.19 -0.4041,-0.3197 -0.7248,-0.3892 -0.281,-0.061 -0.5175,-0.049 -0.7094,0.035 -0.1919,0.085 -0.3098,0.228 -0.3535,0.4298 -0.052,0.2414 0.2506,0.6184 0.909,1.131 0.068,0.052 0.1178,0.091 0.15,0.1174 0.4034,0.3138 0.6835,0.618 0.8403,0.9123 0.1568,0.2944 0.2016,0.5982 0.133,0.9117 -0.1157,0.5333 -0.442,0.9114 -0.9789,1.1344 -0.5369,0.2231 -1.2018,0.2484 -1.9943,0.077 -0.2775,-0.06 -0.5479,-0.1397 -0.8113,-0.2383 -0.2634,-0.099 -0.522,-0.2152 -0.7758,-0.3495 l 0.4298,-1.3552 0.5783,0.1254 c -0.059,0.2738 -7e-4,0.5204 0.1731,0.7406 0.1768,0.2194 0.4346,0.3659 0.7732,0.4394 0.2883,0.062 0.5367,0.048 0.7454,-0.045 0.2088,-0.092 0.3357,-0.2431 0.381,-0.4521 0.036,-0.1658 0.01,-0.3242 -0.092,-0.4755 -0.097,-0.1513 -0.3381,-0.3761 -0.7223,-0.6745 -0.532,-0.4172 -0.8699,-0.7546 -1.014,-1.0122 -0.144,-0.2576 -0.182,-0.5431 -0.1141,-0.8566 0.1103,-0.508 0.4338,-0.882 0.9706,-1.1221 0.5369,-0.24 1.1657,-0.2816 1.8862,-0.1255 0.2522,0.055 0.5021,0.1288 0.7497,0.2221 0.2476,0.093 0.4987,0.2054 0.7532,0.336 z" />
    <path
       style="font-size:19.83680153px;font-style:normal;font-variant:normal;font-weight:bold;font-stretch:normal;text-align:start;line-height:125%;letter-spacing:0px;word-spacing:0px;writing-mode:lr-tb;text-anchor:start;fill:#000000;fill-opacity:1;stroke:none;font-family:Mirarae BT;-inkscape-font-specification:Mirarae BT Bold"
       inkscape:connector-curvature="0"
       id="path4558"
       d="m 84.148521,930.84978 -1.1071,0.2418 c -0.01,-0.025 -0.01,-0.064 -0.015,-0.1156 0,-0.052 -0.01,-0.087 -0.013,-0.1062 -0.1241,-0.5677 -0.4508,-0.9691 -0.9811,-1.2038 -0.5304,-0.2347 -1.1898,-0.2661 -1.9784,-0.094 -1.243,0.2707 -2.1067,0.9168 -2.5914,1.9378 -0.4846,1.0209 -0.5515,2.3358 -0.2009,3.9447 0.358,1.6403 0.9827,2.811 1.8758,3.5119 0.8929,0.7009 2.0208,0.9028 3.3836,0.6058 0.5867,-0.1279 1.1661,-0.3273 1.7385,-0.597 0.5722,-0.2701 1.1229,-0.6017 1.6519,-0.9945 l 0.1058,1.6225 c -0.6601,0.4281 -1.3532,0.7955 -2.0794,1.1026 -0.7262,0.3069 -1.4709,0.5436 -2.2344,0.71 -1.9116,0.4167 -3.5102,0.238 -4.7959,-0.536 -1.2856,-0.7738 -2.1229,-2.0536 -2.5121,-3.839 -0.4677,-2.1451 -0.123,-4.0591 1.0336,-5.742 1.1565,-1.683 2.8956,-2.7775 5.2175,-3.2835 0.5172,-0.113 1.0665,-0.1931 1.6477,-0.2401 0.5812,-0.047 1.21,-0.066 1.8866,-0.054 z" />
    <path
       style="font-size:19.83680153px;font-style:normal;font-variant:normal;font-weight:bold;font-stretch:normal;text-align:start;line-height:125%;letter-spacing:0px;word-spacing:0px;writing-mode:lr-tb;text-anchor:start;fill:#000000;fill-opacity:1;stroke:none;font-family:Mirarae BT;-inkscape-font-specification:Mirarae BT Bold"
       inkscape:connector-curvature="0"
       id="path4560"
       d="m 94.216721,932.51098 c -0.091,-0.6456 -0.3102,-1.1201 -0.656,-1.4235 -0.3461,-0.3032 -0.7973,-0.4155 -1.3535,-0.3369 -0.7737,0.1092 -1.3532,0.5891 -1.7384,1.4391 -0.3853,0.8501 -0.4911,1.889 -0.3177,3.1165 0.1091,0.7737 0.3234,1.3548 0.6426,1.7434 0.3191,0.3886 0.7152,0.5494 1.1883,0.4825 0.6905,-0.098 1.2747,-0.6823 1.7525,-1.7541 0.4779,-1.0718 0.6387,-2.1608 0.4822,-3.267 z m 2.7816,-3.2984 c -0.1043,0.7387 -0.1699,1.4164 -0.1969,2.0332 -0.027,0.6168 -0.016,1.1695 0.034,1.6582 l 0.3011,2.9605 0.052,0.3645 c 0.075,0.5305 0.2032,0.8859 0.3854,1.0655 0.1818,0.1797 0.4678,0.242 0.8578,0.1869 l 0.1728,-0.024 0.078,0.9672 c -0.4842,0.035 -0.8854,0.068 -1.2042,0.097 -0.3188,0.029 -0.5963,0.06 -0.8329,0.093 -0.2431,0.034 -0.5092,0.078 -0.7982,0.132 -0.2891,0.054 -0.595,0.1166 -0.9173,0.1886 l 0.085,-2.5161 -0.3492,-0.049 c -0.4937,0.9829 -1.0724,1.7674 -1.7364,2.3535 -0.6638,0.5862 -1.3602,0.9309 -2.089,1.0339 -0.8759,0.1241 -1.5939,-0.065 -2.1538,-0.5662 -0.56,-0.5013 -0.9142,-1.2762 -1.0623,-2.3248 -0.1319,-0.9335 -0.078,-1.8574 0.161,-2.7715 0.2392,-0.9143 0.6443,-1.7508 1.2153,-2.5098 0.516,-0.686 1.0698,-1.2093 1.6611,-1.57 0.5914,-0.3608 1.2867,-0.5976 2.086,-0.7106 0.3707,-0.052 0.757,-0.053 1.1588,0 0.4017,0.051 0.8317,0.1515 1.2899,0.302 l 1.1834,-0.8325 z" />
    <path
       style="font-size:19.83680153px;font-style:normal;font-variant:normal;font-weight:bold;font-stretch:normal;text-align:start;line-height:125%;letter-spacing:0px;word-spacing:0px;writing-mode:lr-tb;text-anchor:start;fill:#000000;fill-opacity:1;stroke:none;font-family:Mirarae BT;-inkscape-font-specification:Mirarae BT Bold"
       inkscape:connector-curvature="0"
       id="path4562"
       d="m 103.79082,926.02778 -0.038,2.6164 c 0.1032,-0.016 0.2124,-0.04 0.3306,-0.06 0.1183,-0.019 0.1839,-0.029 0.1967,-0.03 l 2.6719,-0.2482 -0.2022,1.512 -2.0375,0.1597 c -0.161,0.013 -0.3223,0.02 -0.4841,0.023 -0.1618,0 -0.3238,0 -0.4862,-0.01 l 0.04,4.8547 c 0,0.01 0,0.03 0,0.068 0,0.1229 0.01,0.2292 0.015,0.3194 0.043,0.5538 0.1736,0.9353 0.3909,1.1449 0.2172,0.2097 0.5673,0.2956 1.0501,0.2578 0.2897,-0.022 0.6018,-0.09 0.936,-0.2048 0.3345,-0.1133 0.6752,-0.2686 1.0227,-0.4639 l -0.1784,1.5684 c -0.4578,0.1917 -0.9427,0.3475 -1.4545,0.469 -0.512,0.121 -1.061,0.204 -1.6466,0.2504 -0.9013,0.071 -1.5753,-0.079 -2.022,-0.4489 -0.4468,-0.3698 -0.7041,-0.9892 -0.7722,-1.8583 -0.019,-0.2447 -0.031,-0.4412 -0.037,-0.5898 -0.01,-0.1486 -0.01,-0.2909 0,-0.4272 l -0.011,-4.7306 c -0.1079,0.028 -0.219,0.046 -0.3297,0.07 -0.1118,0.018 -0.2226,0.032 -0.3321,0.04 l -1.351799,0.1059 0.014,-1.439 0.2124,-0.017 c 0.952799,-0.074 1.651799,-0.3299 2.096899,-0.7666 0.4451,-0.4364 0.6962,-1.1167 0.7533,-2.0409 z" />
    <path
       style="font-size:19.83680153px;font-style:normal;font-variant:normal;font-weight:bold;font-stretch:normal;text-align:start;line-height:125%;letter-spacing:0px;word-spacing:0px;writing-mode:lr-tb;text-anchor:start;fill:#000000;fill-opacity:1;stroke:none;font-family:Mirarae BT;-inkscape-font-specification:Mirarae BT Bold"
       inkscape:connector-curvature="0"
       id="path4564"
       d="m 117.27082,932.58698 -5.3745,0.1084 c -0.059,7e-4 -0.1164,-9e-4 -0.1746,-0.01 -0.058,-0.01 -0.1393,-0.017 -0.243,-0.034 9e-4,0.051 -9e-4,0.1244 -0.01,0.2183 0,0.094 -0.01,0.1632 -0.01,0.2084 0.021,1.0524 0.2534,1.8373 0.6965,2.3547 0.4431,0.5175 1.0972,0.7675 1.9624,0.7501 0.5616,-0.011 1.1615,-0.1268 1.7998,-0.3463 0.6381,-0.2197 1.2985,-0.5397 1.9812,-0.9603 l -0.1435,1.5336 c -0.8438,0.4368 -1.7008,0.7738 -2.5712,1.0109 -0.8703,0.2373 -1.7187,0.3637 -2.5451,0.3807 -1.2653,0.025 -2.2322,-0.278 -2.9004,-0.9104 -0.6684,-0.6323 -1.0151,-1.5715 -1.0401,-2.8175 -0.019,-0.9232 0.1554,-1.818 0.5222,-2.6845 0.3669,-0.8664 0.8924,-1.6261 1.5768,-2.2794 0.4813,-0.4746 1.0054,-0.8307 1.5722,-1.0682 0.5667,-0.2374 1.1858,-0.3634 1.8573,-0.3766 1.1749,-0.024 2.0725,0.2845 2.6925,0.9243 0.62,0.6399 0.9427,1.5924 0.9682,2.8578 0,0.01 0,0.027 0,0.058 -0.01,0.123 -0.014,0.236 -0.012,0.3393 z m -2.7253,-1.1075 c 0.071,0 0.1453,0 0.2229,2e-4 0.078,0 0.1745,0.011 0.2912,0.028 0,-0.1163 0.01,-0.2521 0.011,-0.407 0,-0.1551 0,-0.2519 0,-0.2906 -0.013,-0.6328 -0.124,-1.1068 -0.3336,-1.4224 -0.2098,-0.3154 -0.5148,-0.4692 -0.9151,-0.4611 -0.5359,0.011 -1.003,0.249 -1.3999,0.721 -0.3974,0.4697 -0.6751,1.1132 -0.833,1.9301 0.044,-0.011 0.1062,-0.015 0.1837,-0.023 0.1354,-0.015 0.2321,-0.024 0.2901,-0.025 z" />
    <path
       style="font-size:19.83680153px;font-style:normal;font-variant:normal;font-weight:bold;font-stretch:normal;text-align:start;line-height:125%;letter-spacing:0px;word-spacing:0px;writing-mode:lr-tb;text-anchor:start;fill:#000000;fill-opacity:1;stroke:none;font-family:Mirarae BT;-inkscape-font-specification:Mirarae BT Bold"
       inkscape:connector-curvature="0"
       id="path4566"
       d="m 127.79672,931.29728 -0.9292,-0.036 c 0.01,-0.044 0.015,-0.09 0.02,-0.1348 0,-0.045 0.01,-0.09 0.01,-0.1355 0.01,-0.2452 -0.061,-0.4452 -0.2139,-0.5996 -0.1522,-0.1546 -0.3606,-0.2371 -0.6252,-0.2475 -0.6129,-0.024 -1.1961,0.3474 -1.7496,1.1141 -0.5535,0.7667 -0.8762,1.6653 -0.9683,2.6956 l -0.1251,1.2164 -0.014,0.3389 c -0.019,0.4968 0.066,0.8281 0.2567,0.9939 0.1905,0.1658 0.6304,0.2784 1.3196,0.3377 l -0.093,0.8881 c -0.5023,-0.045 -0.9887,-0.084 -1.4592,-0.1152 -0.4705,-0.031 -0.9284,-0.056 -1.3735,-0.073 -0.3614,-0.014 -0.7633,-0.023 -1.2058,-0.028 -0.4424,0 -0.9062,0 -1.3911,0 l 0.093,-0.8784 c 0.422,-0.048 0.7146,-0.1848 0.8787,-0.4067 0.1638,-0.223 0.2805,-0.7306 0.3504,-1.5227 l 0.4043,-4.3849 0.011,-0.3 c 0.018,-0.4645 -0.043,-0.769 -0.1824,-0.9134 -0.1396,-0.1445 -0.4323,-0.2253 -0.8775,-0.2427 l -0.1258,0 0.083,-0.8885 3.6875,0.1444 -0.6059,3.0975 0.2382,0.1063 c 0.6279,-1.1839 1.2871,-2.0499 1.9774,-2.598 0.6902,-0.5481 1.4516,-0.8059 2.2839,-0.7732 0.1677,0.01 0.3399,0.026 0.5163,0.059 0.1765,0.033 0.3603,0.082 0.5516,0.1477 z" />
    <path
       style="font-size:19.83680153px;font-style:normal;font-variant:normal;font-weight:bold;font-stretch:normal;text-align:start;line-height:125%;letter-spacing:0px;word-spacing:0px;writing-mode:lr-tb;text-anchor:start;fill:#000000;fill-opacity:1;stroke:none;font-family:Mirarae BT;-inkscape-font-specification:Mirarae BT Bold"
       inkscape:connector-curvature="0"
       id="path4568"
       d="m 133.58602,928.79238 -0.016,0.076 c -0.1702,0.6983 -0.2734,1.182 -0.3095,1.4511 l -0.7854,5.6294 -0.023,0.2702 c -0.036,0.4182 0.014,0.7174 0.1515,0.8976 0.1365,0.1803 0.3918,0.2864 0.7649,0.3185 l 0.2124,0.018 -0.1392,0.9408 c -0.6979,-0.099 -1.2314,-0.1707 -1.6002,-0.2153 -0.3688,-0.045 -0.6754,-0.078 -0.9199,-0.099 -0.206,-0.018 -0.4815,-0.035 -0.8268,-0.052 -0.3452,-0.017 -0.8895,-0.037 -1.6327,-0.063 l 0.1199,-0.9424 c 0.4344,0 0.7297,-0.081 0.886,-0.2394 0.1562,-0.1583 0.2846,-0.5961 0.3851,-1.3134 l 0.6374,-4.699 0.023,-0.2702 c 0.035,-0.4052 -0.018,-0.6918 -0.1592,-0.8595 -0.1415,-0.1677 -0.4176,-0.2693 -0.8293,-0.3047 l -0.106,-0.01 0.1149,-0.8845 z m 0.6222,-4.4089 -0.3376,2.3431 -2.8468,-0.2448 0.3375,-2.3431 z" />
    <path
       style="font-size:19.83680153px;font-style:normal;font-variant:normal;font-weight:bold;font-stretch:normal;text-align:start;line-height:125%;letter-spacing:0px;word-spacing:0px;writing-mode:lr-tb;text-anchor:start;fill:#000000;fill-opacity:1;stroke:none;font-family:Mirarae BT;-inkscape-font-specification:Mirarae BT Bold"
       inkscape:connector-curvature="0"
       id="path4570"
       d="m 145.21992,937.47938 c -0.02,0.095 -0.038,0.1821 -0.052,0.2616 -0.015,0.079 -0.026,0.1477 -0.035,0.2055 -0.052,0.3643 0,0.6389 0.1511,0.8239 0.1528,0.185 0.4242,0.3056 0.8141,0.3614 l 0.1629,0.023 -0.1827,0.9327 c -0.6027,-0.119 -1.0962,-0.2142 -1.4807,-0.2857 -0.3844,-0.072 -0.7076,-0.126 -0.9697,-0.1636 -0.262,-0.038 -0.5812,-0.075 -0.9574,-0.1129 -0.3762,-0.038 -0.867,-0.084 -1.4724,-0.1378 l 0.1732,-0.9341 c 0.6026,0.073 1.0084,-0.436 1.2172,-1.528 l 0,0 0.6498,-3.2337 0.062,-0.4315 c 0.073,-0.5113 0.039,-0.8946 -0.1041,-1.15 -0.1425,-0.2554 -0.4059,-0.4105 -0.7894,-0.4654 -0.652,-0.094 -1.3057,0.2007 -1.9614,0.8829 -0.6556,0.6823 -1.0942,1.5685 -1.3159,2.6588 l -0.2912,1.4847 c -0.01,0.039 -0.02,0.1209 -0.045,0.2479 -0.025,0.127 -0.044,0.2383 -0.058,0.3342 -0.041,0.2876 -0.01,0.4997 0.1046,0.6363 0.1107,0.1366 0.3251,0.2341 0.6429,0.2928 l -0.1731,0.9341 c -0.5579,-0.1126 -1.0258,-0.2042 -1.4039,-0.2749 -0.378,-0.071 -0.698,-0.1245 -0.9601,-0.1621 -0.2046,-0.03 -0.4691,-0.061 -0.7937,-0.094 -0.3247,-0.034 -0.8029,-0.076 -1.4348,-0.1275 l 0.1731,-0.9342 c 0.4338,0.023 0.7331,-0.04 0.8981,-0.1888 0.1649,-0.1492 0.3179,-0.579 0.459,-1.2894 l 0.9027,-4.6554 0.038,-0.2685 c 0.058,-0.4026 0.021,-0.6916 -0.1105,-0.8671 -0.131,-0.1755 -0.4016,-0.2924 -0.8107,-0.3511 l -0.1052,-0.015 0.1649,-0.8766 3.6338,0.5213 -0.7699,2.4337 0.2615,0.1549 c 0.732,-0.8735 1.4766,-1.5054 2.2339,-1.8958 0.7573,-0.3905 1.5195,-0.5307 2.2865,-0.4207 0.7862,0.1129 1.3665,0.4441 1.7411,0.9935 0.3745,0.5496 0.4999,1.2558 0.3761,2.1187 -0.02,0.1407 -0.046,0.2983 -0.078,0.4732 -0.031,0.1748 -0.068,0.3572 -0.1079,0.5471 z" />
    <path
       style="font-size:19.83680153px;font-style:normal;font-variant:normal;font-weight:bold;font-stretch:normal;text-align:start;line-height:125%;letter-spacing:0px;word-spacing:0px;writing-mode:lr-tb;text-anchor:start;fill:#000000;fill-opacity:1;stroke:none;font-family:Mirarae BT;-inkscape-font-specification:Mirarae BT Bold"
       inkscape:connector-curvature="0"
       id="path4572"
       d="m 155.60872,935.39978 c 0.1283,-0.5867 0.077,-1.0755 -0.1552,-1.4667 -0.2316,-0.391 -0.6251,-0.6473 -1.1802,-0.7687 -0.757,-0.1656 -1.4613,0.07 -2.113,0.7078 -0.6517,0.6374 -1.1024,1.527 -1.3521,2.6689 -0.16,0.7317 -0.154,1.3312 0.018,1.7985 0.1724,0.4672 0.4884,0.7513 0.949,0.852 0.6812,0.149 1.4322,-0.1792 2.2527,-0.9846 0.8207,-0.8054 1.3475,-1.7411 1.5807,-2.8072 z m 3.7963,-2.0352 c -0.3287,0.5363 -0.6163,1.0881 -0.8627,1.6556 -0.2464,0.5674 -0.46,1.1586 -0.6407,1.7734 l -0.845,3.0474 c -0.028,0.093 -0.067,0.23 -0.1195,0.4102 -0.575,2.0554 -1.2401,3.4038 -1.9951,4.0452 -0.6495,0.5519 -1.4028,0.906 -2.26,1.0623 -0.857,0.1565 -1.8218,0.1171 -2.8942,-0.1175 -0.6182,-0.1351 -1.2067,-0.3002 -1.7656,-0.4951 -0.5589,-0.1949 -1.0919,-0.4173 -1.5991,-0.667 l 1.0987,-2.2583 0.9557,0.209 c -0.01,0.025 -0.017,0.062 -0.034,0.1111 -0.017,0.049 -0.028,0.086 -0.034,0.1111 -0.084,0.3848 0.063,0.7475 0.4412,1.088 0.3783,0.3406 0.9018,0.5839 1.5705,0.7302 0.6686,0.1462 1.2456,0.1072 1.7309,-0.1171 0.4853,-0.2246 0.8745,-0.6285 1.1674,-1.2122 0.01,-0.019 0.019,-0.055 0.044,-0.1095 0.3905,-0.9391 0.9066,-1.9994 1.5484,-3.1811 l -0.3022,-0.2049 c -0.8318,0.6906 -1.6332,1.1663 -2.4041,1.4274 -0.771,0.2613 -1.5193,0.3122 -2.2447,0.1536 -0.8075,-0.1767 -1.3899,-0.5883 -1.7475,-1.235 -0.3577,-0.6466 -0.4362,-1.4273 -0.2364,-2.3419 0.1641,-0.7507 0.4842,-1.4888 0.9602,-2.2142 0.4758,-0.7255 1.061,-1.3759 1.7552,-1.9511 0.681,-0.5451 1.3954,-0.9177 2.1432,-1.1177 0.7468,-0.2034 1.5063,-0.2159 2.2759,-0.047 0.3912,0.085 0.7776,0.2229 1.1592,0.4122 0.3816,0.1892 0.7824,0.442 1.2023,0.7586 l 1.4044,-0.3476 z" />
  </g>
</svg>
